<?xml version="1.0" encoding="UTF-8"?>
<svg xmlns="http://www.w3.org/2000/svg" xmlns:xlink="http://www.w3.org/1999/xlink" width="375pt" height="289.499996pt" viewBox="0 0 375 289.499996" version="1.2">
<defs>
<clipPath id="clip1">
  <path d="M 0.324219 0 L 374.675781 0 L 374.675781 250 L 0.324219 250 Z M 0.324219 0 "/>
</clipPath>
</defs>
<g id="surface1">
<g clip-path="url(#clip1)" clip-rule="nonzero">
<path style="fill:none;stroke-width:10;stroke-linecap:round;stroke-linejoin:round;stroke:rgb(45.489502%,43.139648%,69.40918%);stroke-opacity:1;stroke-miterlimit:10;" d="M 272.200022 311.008066 L 86.979221 311.008066 C 81.480076 311.008066 76.978913 306.506641 76.978913 301.007825 L 76.978913 144.572346 C 76.978913 139.070605 81.480076 134.572105 86.979221 134.572105 L 338.219027 134.572105 C 343.721099 134.572105 348.219335 139.070605 348.219335 144.572346 L 348.219335 301.007825 C 348.219335 306.506641 343.721099 311.008066 338.219027 311.008066 L 312.883158 311.008066 " transform="matrix(1.334725,0,0,1.335515,-95.776896,-172.965206)"/>
</g>
<path style="fill:none;stroke-width:10;stroke-linecap:round;stroke-linejoin:round;stroke:rgb(92.549133%,39.608765%,20.779419%);stroke-opacity:1;stroke-miterlimit:10;" d="M 320.223156 267.2954 C 320.223156 268.199195 320.179256 269.105914 320.091457 270.006784 C 320.000732 270.910579 319.869033 271.805599 319.693435 272.69477 C 319.51491 273.58394 319.295413 274.461411 319.032016 275.330107 C 318.768619 276.198803 318.464249 277.049949 318.11598 277.886471 C 317.770637 278.725918 317.381394 279.544891 316.954106 280.343389 C 316.526817 281.141888 316.061483 281.919912 315.558102 282.674537 C 315.054721 283.426237 314.51622 284.154537 313.939673 284.856514 C 313.366053 285.555565 312.757313 286.228293 312.11638 286.868847 C 311.475447 287.5094 310.802322 288.11778 310.102856 288.693986 C 309.403391 289.267267 308.674659 289.808373 307.919587 290.311457 C 307.167442 290.81454 306.388958 291.279599 305.589987 291.70956 C 304.791016 292.136596 303.971558 292.522683 303.134541 292.870746 C 302.297524 293.215885 301.445873 293.523 300.576663 293.786241 C 299.710379 294.049482 298.829463 294.26885 297.942693 294.444344 C 297.052996 294.622763 296.157446 294.754383 295.253116 294.845055 C 294.351713 294.932802 293.447383 294.976676 292.540127 294.976676 C 291.63287 294.976676 290.72854 294.932802 289.827137 294.845055 C 288.925734 294.754383 288.030184 294.622763 287.140487 294.444344 C 286.250791 294.26885 285.3728 294.049482 284.50359 293.786241 C 283.637307 293.523 282.785656 293.215885 281.945712 292.870746 C 281.108695 292.522683 280.292164 292.136596 279.490266 291.70956 C 278.691295 291.279599 277.915738 290.81454 277.160666 290.311457 C 276.408521 289.808373 275.679789 289.267267 274.980324 288.693986 C 274.277932 288.11778 273.607733 287.5094 272.9668 286.868847 C 272.325867 286.228293 271.717127 285.555565 271.14058 284.856514 C 270.56696 284.154537 270.028459 283.429161 269.522152 282.674537 C 269.018771 281.919912 268.553436 281.141888 268.126147 280.343389 C 267.698859 279.544891 267.312543 278.725918 266.964274 277.886471 C 266.618931 277.049949 266.314561 276.198803 266.051164 275.330107 C 265.787767 274.461411 265.565343 273.58394 265.389745 272.69477 C 265.214147 271.805599 265.079522 270.910579 264.991723 270.006784 C 264.900997 269.105914 264.857097 268.199195 264.857097 267.2954 C 264.857097 266.38868 264.900997 265.48196 264.991723 264.58109 C 265.079522 263.677296 265.214147 262.782276 265.389745 261.893105 C 265.565343 261.003935 265.787767 260.126464 266.051164 259.257768 C 266.314561 258.389072 266.618931 257.537926 266.964274 256.701403 C 267.312543 255.861957 267.698859 255.042984 268.126147 254.244485 C 268.553436 253.445987 269.018771 252.667963 269.522152 251.913338 C 270.028459 251.161638 270.56696 250.433338 271.14058 249.731361 C 271.717127 249.032309 272.325867 248.359582 272.9668 247.719028 C 273.607733 247.078475 274.277932 246.470095 274.980324 245.893889 C 275.679789 245.320608 276.408521 244.779501 277.160666 244.276418 C 277.915738 243.773335 278.691295 243.308276 279.490266 242.878315 C 280.292164 242.451279 281.108695 242.065192 281.945712 241.717129 C 282.785656 241.37199 283.637307 241.064875 284.50359 240.801634 C 285.3728 240.538393 286.250791 240.319025 287.140487 240.143531 C 288.030184 239.965112 288.925734 239.833491 289.827137 239.745744 C 290.72854 239.655072 291.63287 239.611199 292.540127 239.611199 C 293.447383 239.611199 294.351713 239.655072 295.253116 239.745744 C 296.157446 239.833491 297.052996 239.965112 297.942693 240.143531 C 298.829463 240.319025 299.710379 240.538393 300.576663 240.801634 C 301.445873 241.064875 302.297524 241.37199 303.134541 241.717129 C 303.971558 242.065192 304.791016 242.451279 305.589987 242.88124 C 306.388958 243.308276 307.167442 243.773335 307.919587 244.276418 C 308.674659 244.779501 309.403391 245.320608 310.102856 245.893889 C 310.802322 246.470095 311.475447 247.078475 312.11638 247.719028 C 312.757313 248.359582 313.366053 249.032309 313.939673 249.731361 C 314.51622 250.433338 315.054721 251.161638 315.558102 251.913338 C 316.061483 252.667963 316.526817 253.445987 316.954106 254.244485 C 317.381394 255.042984 317.770637 255.861957 318.11598 256.701403 C 318.464249 257.537926 318.768619 258.389072 319.032016 259.257768 C 319.295413 260.126464 319.51491 261.003935 319.693435 261.893105 C 319.869033 262.782276 320.000732 263.677296 320.091457 264.58109 C 320.179256 265.48196 320.223156 266.38868 320.223156 267.2954 Z M 320.223156 267.2954 " transform="matrix(1.334725,0,0,1.335515,-95.776896,-172.965206)"/>
<path style="fill:none;stroke-width:10;stroke-linecap:round;stroke-linejoin:round;stroke:rgb(92.549133%,39.608765%,20.779419%);stroke-opacity:1;stroke-miterlimit:10;" d="M 275.31396 288.957227 L 267.985669 340.839145 L 292.540127 323.400877 L 317.097511 340.839145 L 309.76922 288.957227 " transform="matrix(1.334725,0,0,1.335515,-95.776896,-172.965206)"/>
<path style="fill:none;stroke-width:8;stroke-linecap:round;stroke-linejoin:round;stroke:rgb(0%,71.759033%,92.549133%);stroke-opacity:1;stroke-miterlimit:10;" d="M 118.264937 176.676074 L 107.480291 176.676074 C 105.917468 176.676074 104.641456 175.397892 104.641456 173.835994 L 104.641456 169.445716 C 104.641456 167.883818 105.917468 166.605636 107.480291 166.605636 L 118.264937 166.605636 " transform="matrix(1.334725,0,0,1.335515,-95.776896,-172.965206)"/>
<path style="fill:none;stroke-width:8;stroke-linecap:round;stroke-linejoin:round;stroke:rgb(0%,71.759033%,92.549133%);stroke-opacity:1;stroke-miterlimit:10;" d="M 128.335483 166.602711 L 139.120129 166.602711 C 140.682951 166.602711 141.958964 167.880893 141.958964 169.442791 L 141.958964 173.835994 C 141.958964 175.397892 140.682951 176.676074 139.120129 176.676074 L 128.335483 176.676074 " transform="matrix(1.334725,0,0,1.335515,-95.776896,-172.965206)"/>
<path style="fill:none;stroke-width:8;stroke-linecap:round;stroke-linejoin:round;stroke:rgb(0%,71.759033%,92.549133%);stroke-opacity:1;stroke-miterlimit:10;" d="M 118.264937 166.602711 L 118.264937 155.818596 C 118.264937 154.256698 119.540949 152.98144 121.103771 152.98144 L 125.493722 152.98144 C 127.056544 152.98144 128.335483 154.256698 128.335483 155.818596 L 128.335483 166.602711 " transform="matrix(1.334725,0,0,1.335515,-95.776896,-172.965206)"/>
<path style="fill:none;stroke-width:8;stroke-linecap:round;stroke-linejoin:round;stroke:rgb(0%,71.759033%,92.549133%);stroke-opacity:1;stroke-miterlimit:10;" d="M 128.335483 176.676074 L 128.335483 187.46019 C 128.335483 189.022087 127.056544 190.30027 125.496649 190.30027 L 121.103771 190.30027 C 119.543875 190.30027 118.264937 189.022087 118.264937 187.46019 L 118.264937 176.676074 " transform="matrix(1.334725,0,0,1.335515,-95.776896,-172.965206)"/>
<path style="fill:none;stroke-width:10;stroke-linecap:round;stroke-linejoin:round;stroke:rgb(45.489502%,43.139648%,69.40918%);stroke-opacity:1;stroke-miterlimit:10;" d="M 158.754915 186.611968 L 314.159171 186.611968 " transform="matrix(1.334725,0,0,1.335515,-95.776896,-172.965206)"/>
<path style="fill:none;stroke-width:10;stroke-linecap:round;stroke-linejoin:round;stroke:rgb(45.489502%,43.139648%,69.40918%);stroke-opacity:1;stroke-miterlimit:10;" d="M 104.641456 240.400923 L 231.291534 240.400923 " transform="matrix(1.334725,0,0,1.335515,-95.776896,-172.965206)"/>
<path style="fill:none;stroke-width:10;stroke-linecap:round;stroke-linejoin:round;stroke:rgb(45.489502%,43.139648%,69.40918%);stroke-opacity:1;stroke-miterlimit:10;" d="M 104.641456 267.2954 L 231.291534 267.2954 " transform="matrix(1.334725,0,0,1.335515,-95.776896,-172.965206)"/>
<path style="fill:none;stroke-width:10;stroke-linecap:round;stroke-linejoin:round;stroke:rgb(45.489502%,43.139648%,69.40918%);stroke-opacity:1;stroke-miterlimit:10;" d="M 104.641456 213.506445 L 314.159171 213.506445 " transform="matrix(1.334725,0,0,1.335515,-95.776896,-172.965206)"/>
</g>
</svg>
