<?xml version="1.0" encoding="UTF-8"?>
<svg xmlns="http://www.w3.org/2000/svg" xmlns:xlink="http://www.w3.org/1999/xlink" width="150pt" height="149.999998pt" viewBox="0 0 150 149.999998" version="1.2">
<g id="surface1">
<path style=" stroke:none;fill-rule:nonzero;fill:rgb(81.17981%,87.449646%,90.979004%);fill-opacity:1;" d="M 147.503906 85.109375 C 147.503906 119.5625 119.5625 147.503906 85.109375 147.503906 C 50.652344 147.503906 22.710938 119.5625 22.710938 85.109375 C 22.710938 50.652344 50.652344 22.710938 85.109375 22.710938 C 119.5625 22.710938 147.503906 50.652344 147.503906 85.109375 "/>
<path style=" stroke:none;fill-rule:nonzero;fill:rgb(95.689392%,95.689392%,90.19928%);fill-opacity:1;" d="M 127.539062 85.109375 C 127.539062 108.546875 108.546875 127.539062 85.109375 127.539062 C 61.671875 127.539062 42.679688 108.546875 42.679688 85.109375 C 42.679688 61.671875 61.671875 42.679688 85.109375 42.679688 C 108.546875 42.679688 127.539062 61.671875 127.539062 85.109375 "/>
<path style=" stroke:none;fill-rule:nonzero;fill:rgb(91.369629%,40.779114%,41.569519%);fill-opacity:1;" d="M 105.074219 85.109375 C 105.074219 96.132812 96.132812 105.074219 85.109375 105.074219 C 74.082031 105.074219 65.140625 96.132812 65.140625 85.109375 C 65.140625 74.082031 74.082031 65.140625 85.109375 65.140625 C 96.132812 65.140625 105.074219 74.082031 105.074219 85.109375 "/>
<path style=" stroke:none;fill-rule:nonzero;fill:rgb(35.289001%,39.219666%,43.919373%);fill-opacity:1;" d="M 85.109375 87.605469 C 84.464844 87.605469 83.832031 87.359375 83.34375 86.871094 L 20.949219 24.476562 C 19.972656 23.5 19.972656 21.921875 20.949219 20.949219 C 21.921875 19.972656 23.5 19.972656 24.476562 20.949219 L 86.871094 83.34375 C 87.847656 84.320312 87.847656 85.898438 86.871094 86.871094 C 86.386719 87.359375 85.75 87.605469 85.109375 87.605469 "/>
<path style=" stroke:none;fill-rule:nonzero;fill:rgb(88.62915%,60.389709%,37.649536%);fill-opacity:1;" d="M 15.097656 15.097656 L 16.863281 2.746094 L 27.449219 13.332031 L 25.6875 25.6875 L 15.097656 15.097656 "/>
<path style=" stroke:none;fill-rule:nonzero;fill:rgb(82.749939%,51.759338%,23.919678%);fill-opacity:1;" d="M 15.097656 15.097656 L 2.746094 16.863281 L 13.332031 27.449219 L 25.6875 25.6875 L 15.097656 15.097656 "/>
<path style=" stroke:none;fill-rule:nonzero;fill:rgb(49.01886%,55.288696%,61.178589%);fill-opacity:1;" d="M 40.183594 57.652344 C 39.539062 57.652344 38.90625 57.410156 38.417969 56.921875 L 23.441406 41.949219 C 22.46875 40.972656 22.46875 39.394531 23.441406 38.417969 C 24.417969 37.445312 25.996094 37.445312 26.972656 38.417969 L 41.949219 53.394531 C 42.921875 54.367188 42.921875 55.949219 41.949219 56.921875 C 41.460938 57.410156 40.828125 57.652344 40.183594 57.652344 "/>
<path style=" stroke:none;fill-rule:nonzero;fill:rgb(49.01886%,55.288696%,61.178589%);fill-opacity:1;" d="M 42.679688 30.199219 C 42.035156 30.199219 41.402344 29.957031 40.914062 29.46875 L 33.425781 21.980469 C 32.453125 21.007812 32.453125 19.425781 33.425781 18.453125 C 34.402344 17.476562 35.980469 17.476562 36.957031 18.453125 L 44.445312 25.9375 C 45.417969 26.914062 45.417969 28.492188 44.445312 29.46875 C 43.957031 29.957031 43.324219 30.199219 42.679688 30.199219 "/>
<path style=" stroke:none;fill-rule:nonzero;fill:rgb(0%,0%,0%);fill-opacity:1;" d="M 83.34375 86.871094 C 83.832031 87.359375 84.464844 87.605469 85.109375 87.605469 C 85.75 87.605469 86.386719 87.359375 86.871094 86.871094 C 87.847656 85.898438 87.847656 84.320312 86.871094 83.34375 L 74.667969 71.136719 C 77.582031 68.953125 81.1875 67.636719 85.109375 67.636719 C 94.742188 67.636719 102.578125 75.476562 102.578125 85.109375 C 102.578125 94.742188 94.742188 102.578125 85.109375 102.578125 C 75.476562 102.578125 67.636719 94.742188 67.636719 85.109375 C 67.636719 81.1875 68.953125 77.582031 71.136719 74.667969 Z M 67.570312 71.109375 C 64.496094 74.949219 62.644531 79.8125 62.644531 85.109375 C 62.644531 97.5 72.714844 107.570312 85.109375 107.570312 C 97.5 107.570312 107.570312 97.5 107.570312 85.109375 C 107.570312 72.714844 97.5 62.644531 85.109375 62.644531 C 79.8125 62.644531 74.949219 64.496094 71.109375 67.570312 L 58.734375 55.207031 C 65.773438 48.988281 75 45.175781 85.109375 45.175781 C 107.132812 45.175781 125.042969 63.085938 125.042969 85.109375 C 125.042969 107.132812 107.132812 125.042969 85.109375 125.042969 C 63.085938 125.042969 45.175781 107.132812 45.175781 85.109375 C 45.175781 75 48.988281 65.773438 55.207031 58.734375 Z M 85.109375 145.007812 C 52.078125 145.007812 25.207031 118.140625 25.207031 85.109375 C 25.207031 73.320312 28.648438 62.324219 34.546875 53.050781 L 38.417969 56.921875 C 38.90625 57.410156 39.539062 57.652344 40.183594 57.652344 C 40.828125 57.652344 41.460938 57.410156 41.949219 56.921875 C 42.921875 55.949219 42.921875 54.367188 41.949219 53.394531 L 37.445312 48.890625 C 38.574219 47.398438 39.785156 45.953125 41.050781 44.578125 L 51.675781 55.207031 C 44.558594 63.164062 40.183594 73.625 40.183594 85.109375 C 40.183594 109.882812 60.335938 130.035156 85.109375 130.035156 C 109.882812 130.035156 130.035156 109.882812 130.035156 85.109375 C 130.035156 60.335938 109.882812 40.183594 85.109375 40.183594 C 73.625 40.183594 63.164062 44.558594 55.207031 51.675781 L 44.578125 41.050781 C 55.253906 31.222656 69.488281 25.207031 85.109375 25.207031 C 118.140625 25.207031 145.007812 52.078125 145.007812 85.109375 C 145.007812 118.140625 118.140625 145.007812 85.109375 145.007812 Z M 14.210938 24.808594 L 8.039062 18.628906 L 14.21875 17.75 L 20.390625 23.921875 Z M 18.628906 8.039062 L 24.808594 14.210938 L 23.921875 20.390625 L 17.75 14.21875 Z M 85.109375 20.214844 C 68.113281 20.214844 52.632812 26.796875 41.050781 37.519531 L 28.335938 24.808594 L 29.925781 13.683594 C 30.035156 12.914062 29.769531 12.125 29.214844 11.570312 L 18.628906 0.980469 C 17.964844 0.316406 16.96875 0.0742188 16.074219 0.375 C 15.175781 0.679688 14.523438 1.457031 14.394531 2.394531 L 12.894531 12.894531 L 2.394531 14.394531 C 1.457031 14.523438 0.679688 15.175781 0.375 16.074219 C 0.0742188 16.96875 0.308594 17.964844 0.980469 18.628906 L 11.570312 29.214844 C 12.035156 29.683594 12.679688 29.945312 13.332031 29.945312 C 13.449219 29.945312 13.566406 29.945312 13.683594 29.925781 L 24.808594 28.335938 L 37.519531 41.050781 C 36.246094 42.425781 35.046875 43.859375 33.886719 45.339844 L 26.972656 38.417969 C 25.996094 37.445312 24.417969 37.445312 23.441406 38.417969 C 22.46875 39.394531 22.46875 40.972656 23.441406 41.949219 L 30.929688 49.445312 C 24.175781 59.683594 20.214844 71.9375 20.214844 85.109375 C 20.214844 120.886719 49.328125 150 85.109375 150 C 120.886719 150 150 120.886719 150 85.109375 C 150 49.328125 120.886719 20.214844 85.109375 20.214844 "/>
<path style=" stroke:none;fill-rule:nonzero;fill:rgb(0%,0%,0%);fill-opacity:1;" d="M 33.425781 18.453125 C 32.453125 19.425781 32.453125 21.007812 33.425781 21.980469 L 40.914062 29.46875 C 41.402344 29.957031 42.035156 30.199219 42.679688 30.199219 C 43.324219 30.199219 43.957031 29.957031 44.445312 29.46875 C 45.417969 28.492188 45.417969 26.914062 44.445312 25.9375 L 36.957031 18.453125 C 35.980469 17.476562 34.402344 17.476562 33.425781 18.453125 "/>
</g>
</svg>
