<?xml version="1.0" encoding="UTF-8"?>
<svg xmlns="http://www.w3.org/2000/svg" xmlns:xlink="http://www.w3.org/1999/xlink" width="150pt" height="108.749999pt" viewBox="0 0 150 108.749999" version="1.2">
<defs>
<clipPath id="clip1">
  <path d="M 68 0 L 141 0 L 141 108.285156 L 68 108.285156 Z M 68 0 "/>
</clipPath>
</defs>
<g id="surface1">
<path style=" stroke:none;fill-rule:nonzero;fill:rgb(91.758728%,33.329773%,57.249451%);fill-opacity:1;" d="M 107.746094 1.042969 C 91.746094 1.789062 74.976562 20.394531 74.976562 20.394531 C 74.976562 20.394531 58.207031 1.789062 42.207031 1.042969 C 24.589844 0.226562 0.152344 20.453125 13.546875 51.640625 C 23.363281 74.5 66.046875 107.441406 74.976562 107.441406 C 83.90625 107.441406 126.589844 74.5 136.40625 51.640625 C 149.800781 20.453125 125.363281 0.226562 107.746094 1.042969 Z M 107.746094 1.042969 "/>
<path style=" stroke:none;fill-rule:nonzero;fill:rgb(85.488892%,18.429565%,48.629761%);fill-opacity:1;" d="M 64.097656 94.347656 C 61.269531 94.347656 61.269531 98.714844 64.097656 98.714844 C 66.921875 98.714844 66.921875 94.347656 64.097656 94.347656 Z M 64.097656 94.347656 "/>
<path style=" stroke:none;fill-rule:nonzero;fill:rgb(85.488892%,18.429565%,48.629761%);fill-opacity:1;" d="M 57.140625 93.597656 C 55.71875 93.597656 55.71875 95.800781 57.140625 95.800781 C 58.5625 95.800781 58.5625 93.597656 57.140625 93.597656 Z M 57.140625 93.597656 "/>
<path style=" stroke:none;fill-rule:nonzero;fill:rgb(85.488892%,18.429565%,48.629761%);fill-opacity:1;" d="M 50.148438 91.746094 C 50.0625 91.746094 49.980469 91.753906 49.90625 91.769531 C 49.867188 91.960938 49.757812 92.132812 49.582031 92.230469 C 50.089844 92.632812 50.59375 93.03125 51.097656 93.429688 C 51.441406 92.765625 51.125 91.746094 50.148438 91.746094 Z M 50.148438 91.746094 "/>
<path style=" stroke:none;fill-rule:nonzero;fill:rgb(85.488892%,18.429565%,48.629761%);fill-opacity:1;" d="M 72.597656 102.03125 C 71.640625 102.03125 71.640625 103.511719 72.597656 103.511719 C 73.554688 103.507812 73.554688 102.03125 72.597656 102.03125 Z M 72.597656 102.03125 "/>
<path style=" stroke:none;fill-rule:nonzero;fill:rgb(85.488892%,18.429565%,48.629761%);fill-opacity:1;" d="M 70.019531 95.886719 C 68.707031 95.886719 68.707031 97.914062 70.019531 97.914062 C 71.332031 97.914062 71.332031 95.886719 70.019531 95.886719 Z M 70.019531 95.886719 "/>
<path style=" stroke:none;fill-rule:nonzero;fill:rgb(85.488892%,18.429565%,48.629761%);fill-opacity:1;" d="M 68.179688 89.210938 C 66.777344 89.210938 66.777344 91.378906 68.179688 91.378906 C 69.582031 91.378906 69.582031 89.210938 68.179688 89.210938 Z M 68.179688 89.210938 "/>
<path style=" stroke:none;fill-rule:nonzero;fill:rgb(85.488892%,18.429565%,48.629761%);fill-opacity:1;" d="M 81.058594 95.398438 C 79.589844 95.398438 79.589844 97.667969 81.058594 97.667969 C 82.53125 97.667969 82.53125 95.398438 81.058594 95.398438 Z M 81.058594 95.398438 "/>
<path style=" stroke:none;fill-rule:nonzero;fill:rgb(85.488892%,18.429565%,48.629761%);fill-opacity:1;" d="M 81.796875 102.78125 C 80.863281 102.78125 80.863281 104.226562 81.796875 104.226562 C 82.730469 104.226562 82.730469 102.78125 81.796875 102.78125 Z M 81.796875 102.78125 "/>
<path style=" stroke:none;fill-rule:nonzero;fill:rgb(85.488892%,18.429565%,48.629761%);fill-opacity:1;" d="M 31.304688 50.117188 C 28.476562 50.117188 28.476562 54.484375 31.304688 54.484375 C 34.128906 54.484375 34.128906 50.117188 31.304688 50.117188 Z M 31.304688 50.117188 "/>
<path style=" stroke:none;fill-rule:nonzero;fill:rgb(85.488892%,18.429565%,48.629761%);fill-opacity:1;" d="M 19.195312 57.117188 C 18.304688 57.117188 18.304688 58.496094 19.195312 58.496094 C 20.082031 58.496094 20.082031 57.117188 19.195312 57.117188 Z M 19.195312 57.117188 "/>
<path style=" stroke:none;fill-rule:nonzero;fill:rgb(85.488892%,18.429565%,48.629761%);fill-opacity:1;" d="M 24.347656 49.367188 C 22.921875 49.367188 22.921875 51.570312 24.347656 51.570312 C 25.769531 51.570312 25.769531 49.367188 24.347656 49.367188 Z M 23.8125 51.09375 C 23.300781 51.09375 23.300781 50.304688 23.8125 50.304688 C 24.328125 50.304688 24.328125 51.09375 23.8125 51.09375 Z M 23.8125 51.09375 "/>
<path style=" stroke:none;fill-rule:nonzero;fill:rgb(85.488892%,18.429565%,48.629761%);fill-opacity:1;" d="M 17.355469 47.515625 C 15.90625 47.515625 15.90625 49.753906 17.355469 49.753906 C 18.800781 49.753906 18.800781 47.515625 17.355469 47.515625 Z M 17.355469 47.515625 "/>
<path style=" stroke:none;fill-rule:nonzero;fill:rgb(85.488892%,18.429565%,48.629761%);fill-opacity:1;" d="M 14.601562 52.597656 C 14.363281 52.597656 14.199219 52.707031 14.097656 52.855469 C 14.261719 53.203125 14.429688 53.550781 14.609375 53.902344 C 15.445312 53.894531 15.445312 52.597656 14.601562 52.597656 Z M 14.601562 52.597656 "/>
<path style=" stroke:none;fill-rule:nonzero;fill:rgb(85.488892%,18.429565%,48.629761%);fill-opacity:1;" d="M 29.867188 58.464844 C 28.820312 58.464844 28.820312 60.082031 29.867188 60.082031 C 30.914062 60.082031 30.914062 58.464844 29.867188 58.464844 Z M 29.867188 58.464844 "/>
<path style=" stroke:none;fill-rule:nonzero;fill:rgb(85.488892%,18.429565%,48.629761%);fill-opacity:1;" d="M 25.082031 65.488281 C 24.101562 65.488281 24.101562 67 25.082031 67 C 26.0625 67 26.0625 65.488281 25.082031 65.488281 Z M 25.082031 65.488281 "/>
<path style=" stroke:none;fill-rule:nonzero;fill:rgb(85.488892%,18.429565%,48.629761%);fill-opacity:1;" d="M 33.546875 62.359375 C 32.789062 62.359375 32.789062 63.527344 33.546875 63.527344 C 34.300781 63.527344 34.300781 62.359375 33.546875 62.359375 Z M 33.546875 62.359375 "/>
<path style=" stroke:none;fill-rule:nonzero;fill:rgb(85.488892%,18.429565%,48.629761%);fill-opacity:1;" d="M 39.800781 59.28125 C 40.757812 59.28125 40.757812 57.800781 39.800781 57.800781 C 38.84375 57.800781 38.84375 59.28125 39.800781 59.28125 Z M 39.800781 59.28125 "/>
<path style=" stroke:none;fill-rule:nonzero;fill:rgb(85.488892%,18.429565%,48.629761%);fill-opacity:1;" d="M 37.226562 53.683594 C 38.539062 53.683594 38.539062 51.65625 37.226562 51.65625 C 35.914062 51.65625 35.914062 53.683594 37.226562 53.683594 Z M 37.226562 53.683594 "/>
<path style=" stroke:none;fill-rule:nonzero;fill:rgb(85.488892%,18.429565%,48.629761%);fill-opacity:1;" d="M 35.386719 44.980469 C 33.984375 44.980469 33.984375 47.148438 35.386719 47.148438 C 36.785156 47.148438 36.785156 44.980469 35.386719 44.980469 Z M 35.386719 44.980469 "/>
<path style=" stroke:none;fill-rule:nonzero;fill:rgb(85.488892%,18.429565%,48.629761%);fill-opacity:1;" d="M 48.265625 53.441406 C 49.734375 53.441406 49.734375 51.167969 48.265625 51.167969 C 46.796875 51.167969 46.796875 53.441406 48.265625 53.441406 Z M 48.265625 53.441406 "/>
<path style=" stroke:none;fill-rule:nonzero;fill:rgb(85.488892%,18.429565%,48.629761%);fill-opacity:1;" d="M 46.425781 62.226562 C 45.757812 62.226562 45.140625 62.925781 45.378906 63.597656 C 45.410156 63.691406 45.445312 63.785156 45.476562 63.878906 C 45.804688 64.8125 47.046875 64.8125 47.375 63.878906 C 47.40625 63.785156 47.441406 63.691406 47.476562 63.597656 C 47.710938 62.925781 47.097656 62.226562 46.425781 62.226562 Z M 46.425781 62.226562 "/>
<path style=" stroke:none;fill-rule:nonzero;fill:rgb(85.488892%,18.429565%,48.629761%);fill-opacity:1;" d="M 43.851562 69.519531 C 43.335938 69.519531 43.335938 70.308594 43.851562 70.308594 C 44.359375 70.308594 44.359375 69.519531 43.851562 69.519531 Z M 43.851562 69.519531 "/>
<path style=" stroke:none;fill-rule:nonzero;fill:rgb(85.488892%,18.429565%,48.629761%);fill-opacity:1;" d="M 49 59.996094 C 49.9375 59.996094 49.9375 58.550781 49 58.550781 C 48.066406 58.550781 48.066406 59.996094 49 59.996094 Z M 49 59.996094 "/>
<path style=" stroke:none;fill-rule:nonzero;fill:rgb(85.488892%,18.429565%,48.629761%);fill-opacity:1;" d="M 39.800781 63.78125 C 38.511719 63.78125 38.511719 65.773438 39.800781 65.773438 C 41.089844 65.773438 41.089844 63.78125 39.800781 63.78125 Z M 39.800781 63.78125 "/>
<path style=" stroke:none;fill-rule:nonzero;fill:rgb(85.488892%,18.429565%,48.629761%);fill-opacity:1;" d="M 30.601562 69.191406 C 29.667969 69.191406 29.667969 70.636719 30.601562 70.636719 C 31.535156 70.636719 31.535156 69.191406 30.601562 69.191406 Z M 30.601562 69.191406 "/>
<path style=" stroke:none;fill-rule:nonzero;fill:rgb(85.488892%,18.429565%,48.629761%);fill-opacity:1;" d="M 33.675781 3.5625 C 34.570312 3.5625 34.699219 2.382812 34.0625 2.039062 C 33.703125 2.140625 33.34375 2.246094 32.980469 2.363281 C 32.75 2.84375 32.976562 3.5625 33.675781 3.5625 Z M 33.675781 3.5625 "/>
<path style=" stroke:none;fill-rule:nonzero;fill:rgb(85.488892%,18.429565%,48.629761%);fill-opacity:1;" d="M 28.890625 10.480469 C 29.871094 10.480469 29.871094 8.96875 28.890625 8.96875 C 27.914062 8.96875 27.914062 10.480469 28.890625 10.480469 Z M 28.890625 10.480469 "/>
<path style=" stroke:none;fill-rule:nonzero;fill:rgb(85.488892%,18.429565%,48.629761%);fill-opacity:1;" d="M 23.042969 7.546875 C 22.636719 7.855469 22.234375 8.167969 21.835938 8.492188 C 21.953125 8.554688 22.085938 8.597656 22.25 8.597656 C 22.886719 8.597656 23.148438 8.023438 23.042969 7.546875 Z M 23.042969 7.546875 "/>
<path style=" stroke:none;fill-rule:nonzero;fill:rgb(85.488892%,18.429565%,48.629761%);fill-opacity:1;" d="M 23.371094 12.75 C 24.441406 12.75 24.441406 11.097656 23.371094 11.097656 C 22.304688 11.097656 22.304688 12.75 23.371094 12.75 Z M 23.371094 12.75 "/>
<path style=" stroke:none;fill-rule:nonzero;fill:rgb(85.488892%,18.429565%,48.629761%);fill-opacity:1;" d="M 37.355469 7.007812 C 38.113281 7.007812 38.113281 5.839844 37.355469 5.839844 C 36.601562 5.839844 36.601562 7.007812 37.355469 7.007812 Z M 37.355469 7.007812 "/>
<path style=" stroke:none;fill-rule:nonzero;fill:rgb(85.488892%,18.429565%,48.629761%);fill-opacity:1;" d="M 43.613281 2.757812 C 44.570312 2.757812 44.570312 1.28125 43.613281 1.28125 C 42.65625 1.28125 42.65625 2.757812 43.613281 2.757812 Z M 43.613281 2.757812 "/>
<path style=" stroke:none;fill-rule:nonzero;fill:rgb(85.488892%,18.429565%,48.629761%);fill-opacity:1;" d="M 49.289062 7.359375 C 49.617188 8.292969 50.859375 8.292969 51.183594 7.359375 C 51.21875 7.265625 51.25 7.171875 51.285156 7.078125 C 51.523438 6.402344 50.90625 5.703125 50.234375 5.703125 C 49.566406 5.703125 48.953125 6.402344 49.1875 7.078125 C 49.222656 7.171875 49.253906 7.265625 49.289062 7.359375 Z M 49.289062 7.359375 "/>
<path style=" stroke:none;fill-rule:nonzero;fill:rgb(85.488892%,18.429565%,48.629761%);fill-opacity:1;" d="M 47.660156 13.789062 C 48.171875 13.789062 48.171875 12.996094 47.660156 12.996094 C 47.148438 12.996094 47.148438 13.789062 47.660156 13.789062 Z M 47.660156 13.789062 "/>
<path style=" stroke:none;fill-rule:nonzero;fill:rgb(85.488892%,18.429565%,48.629761%);fill-opacity:1;" d="M 43.613281 9.253906 C 44.902344 9.253906 44.902344 7.257812 43.613281 7.257812 C 42.320312 7.257812 42.320312 9.253906 43.613281 9.253906 Z M 43.613281 9.253906 "/>
<path style=" stroke:none;fill-rule:nonzero;fill:rgb(85.488892%,18.429565%,48.629761%);fill-opacity:1;" d="M 34.414062 14.113281 C 35.347656 14.113281 35.347656 12.667969 34.414062 12.667969 C 33.476562 12.667969 33.476562 14.113281 34.414062 14.113281 Z M 34.414062 14.113281 "/>
<path style=" stroke:none;fill-rule:nonzero;fill:rgb(85.488892%,18.429565%,48.629761%);fill-opacity:1;" d="M 16.914062 37.953125 C 17.070312 37.988281 17.230469 38.023438 17.386719 38.058594 C 18.265625 38.257812 19.15625 37.652344 19.15625 36.714844 C 19.15625 35.777344 18.265625 35.175781 17.386719 35.375 C 17.230469 35.410156 17.070312 35.445312 16.914062 35.480469 C 15.683594 35.757812 15.683594 37.675781 16.914062 37.953125 Z M 16.914062 37.953125 "/>
<path style=" stroke:none;fill-rule:nonzero;fill:rgb(85.488892%,18.429565%,48.629761%);fill-opacity:1;" d="M 15.351562 25.769531 C 15.648438 25.769531 15.875 25.867188 16.046875 26.019531 C 16.023438 25.59375 15.738281 25.183594 15.183594 25.183594 C 14.449219 25.183594 14.183594 25.898438 14.378906 26.425781 C 14.515625 26.058594 14.839844 25.769531 15.351562 25.769531 Z M 15.351562 25.769531 "/>
<path style=" stroke:none;fill-rule:nonzero;fill:rgb(85.488892%,18.429565%,48.629761%);fill-opacity:1;" d="M 36.492188 22.757812 C 39.316406 22.757812 39.316406 18.390625 36.492188 18.390625 C 33.667969 18.390625 33.667969 22.757812 36.492188 22.757812 Z M 36.492188 22.757812 "/>
<path style=" stroke:none;fill-rule:nonzero;fill:rgb(85.488892%,18.429565%,48.629761%);fill-opacity:1;" d="M 24.382812 26.765625 C 25.273438 26.765625 25.273438 25.390625 24.382812 25.390625 C 23.492188 25.390625 23.492188 26.765625 24.382812 26.765625 Z M 24.382812 26.765625 "/>
<path style=" stroke:none;fill-rule:nonzero;fill:rgb(85.488892%,18.429565%,48.629761%);fill-opacity:1;" d="M 29.535156 19.839844 C 30.957031 19.839844 30.957031 17.636719 29.535156 17.636719 C 28.113281 17.636719 28.113281 19.839844 29.535156 19.839844 Z M 29.535156 19.839844 "/>
<path style=" stroke:none;fill-rule:nonzero;fill:rgb(85.488892%,18.429565%,48.629761%);fill-opacity:1;" d="M 22.542969 15.785156 C 21.097656 15.785156 21.097656 18.023438 22.542969 18.023438 C 23.988281 18.023438 23.988281 15.785156 22.542969 15.785156 Z M 22.542969 15.785156 "/>
<path style=" stroke:none;fill-rule:nonzero;fill:rgb(85.488892%,18.429565%,48.629761%);fill-opacity:1;" d="M 19.789062 22.175781 C 20.636719 22.175781 20.636719 20.867188 19.789062 20.867188 C 18.945312 20.867188 18.945312 22.175781 19.789062 22.175781 Z M 19.789062 22.175781 "/>
<path style=" stroke:none;fill-rule:nonzero;fill:rgb(85.488892%,18.429565%,48.629761%);fill-opacity:1;" d="M 35.054688 28.351562 C 36.101562 28.351562 36.101562 26.738281 35.054688 26.738281 C 34.007812 26.738281 34.007812 28.351562 35.054688 28.351562 Z M 35.054688 28.351562 "/>
<path style=" stroke:none;fill-rule:nonzero;fill:rgb(85.488892%,18.429565%,48.629761%);fill-opacity:1;" d="M 30.269531 35.269531 C 31.246094 35.269531 31.246094 33.757812 30.269531 33.757812 C 29.292969 33.757812 29.292969 35.269531 30.269531 35.269531 Z M 30.269531 35.269531 "/>
<path style=" stroke:none;fill-rule:nonzero;fill:rgb(85.488892%,18.429565%,48.629761%);fill-opacity:1;" d="M 23.628906 31.703125 C 22.539062 31.703125 22.539062 33.386719 23.628906 33.386719 C 24.71875 33.386719 24.71875 31.703125 23.628906 31.703125 Z M 23.628906 31.703125 "/>
<path style=" stroke:none;fill-rule:nonzero;fill:rgb(85.488892%,18.429565%,48.629761%);fill-opacity:1;" d="M 24.75 37.539062 C 25.820312 37.539062 25.820312 35.890625 24.75 35.890625 C 23.683594 35.890625 23.683594 37.539062 24.75 37.539062 Z M 24.75 37.539062 "/>
<path style=" stroke:none;fill-rule:nonzero;fill:rgb(85.488892%,18.429565%,48.629761%);fill-opacity:1;" d="M 16.085938 31.066406 C 15.417969 31.066406 15.417969 32.09375 16.085938 32.09375 C 16.753906 32.09375 16.753906 31.066406 16.085938 31.066406 Z M 16.085938 31.066406 "/>
<path style=" stroke:none;fill-rule:nonzero;fill:rgb(85.488892%,18.429565%,48.629761%);fill-opacity:1;" d="M 38.734375 30.628906 C 37.976562 30.628906 37.976562 31.796875 38.734375 31.796875 C 39.492188 31.796875 39.492188 30.628906 38.734375 30.628906 Z M 38.734375 30.628906 "/>
<path style=" stroke:none;fill-rule:nonzero;fill:rgb(85.488892%,18.429565%,48.629761%);fill-opacity:1;" d="M 44.992188 27.550781 C 45.949219 27.550781 45.949219 26.070312 44.992188 26.070312 C 44.03125 26.070312 44.03125 27.550781 44.992188 27.550781 Z M 44.992188 27.550781 "/>
<path style=" stroke:none;fill-rule:nonzero;fill:rgb(85.488892%,18.429565%,48.629761%);fill-opacity:1;" d="M 42.414062 19.925781 C 41.101562 19.925781 41.101562 21.957031 42.414062 21.957031 C 43.726562 21.957031 43.726562 19.925781 42.414062 19.925781 Z M 42.414062 19.925781 "/>
<path style=" stroke:none;fill-rule:nonzero;fill:rgb(85.488892%,18.429565%,48.629761%);fill-opacity:1;" d="M 40.574219 13.253906 C 39.171875 13.253906 39.171875 15.417969 40.574219 15.417969 C 41.976562 15.417969 41.976562 13.253906 40.574219 13.253906 Z M 40.574219 13.253906 "/>
<path style=" stroke:none;fill-rule:nonzero;fill:rgb(85.488892%,18.429565%,48.629761%);fill-opacity:1;" d="M 53.453125 21.707031 C 54.921875 21.707031 54.921875 19.441406 53.453125 19.441406 C 51.984375 19.441406 51.984375 21.707031 53.453125 21.707031 Z M 53.453125 21.707031 "/>
<path style=" stroke:none;fill-rule:nonzero;fill:rgb(85.488892%,18.429565%,48.629761%);fill-opacity:1;" d="M 50.566406 31.867188 C 50.597656 31.964844 50.632812 32.054688 50.667969 32.148438 C 50.992188 33.082031 52.234375 33.082031 52.5625 32.148438 C 52.597656 32.054688 52.628906 31.964844 52.664062 31.867188 C 52.898438 31.195312 52.285156 30.496094 51.613281 30.496094 C 50.945312 30.496094 50.328125 31.195312 50.566406 31.867188 Z M 50.566406 31.867188 "/>
<path style=" stroke:none;fill-rule:nonzero;fill:rgb(85.488892%,18.429565%,48.629761%);fill-opacity:1;" d="M 49.039062 38.578125 C 49.550781 38.578125 49.550781 37.789062 49.039062 37.789062 C 48.527344 37.789062 48.527344 38.578125 49.039062 38.578125 Z M 49.039062 38.578125 "/>
<path style=" stroke:none;fill-rule:nonzero;fill:rgb(85.488892%,18.429565%,48.629761%);fill-opacity:1;" d="M 54.191406 28.269531 C 55.125 28.269531 55.125 26.820312 54.191406 26.820312 C 53.257812 26.820312 53.257812 28.269531 54.191406 28.269531 Z M 54.191406 28.269531 "/>
<path style=" stroke:none;fill-rule:nonzero;fill:rgb(85.488892%,18.429565%,48.629761%);fill-opacity:1;" d="M 44.992188 32.050781 C 43.699219 32.050781 43.699219 34.042969 44.992188 34.042969 C 46.28125 34.042969 46.28125 32.050781 44.992188 32.050781 Z M 44.992188 32.050781 "/>
<path style=" stroke:none;fill-rule:nonzero;fill:rgb(85.488892%,18.429565%,48.629761%);fill-opacity:1;" d="M 35.789062 37.460938 C 34.855469 37.460938 34.855469 38.90625 35.789062 38.90625 C 36.726562 38.90625 36.726562 37.460938 35.789062 37.460938 Z M 35.789062 37.460938 "/>
<path style=" stroke:none;fill-rule:nonzero;fill:rgb(85.488892%,18.429565%,48.629761%);fill-opacity:1;" d="M 15.183594 20.808594 C 15.960938 20.808594 15.960938 19.605469 15.183594 19.605469 C 14.402344 19.605469 14.402344 20.808594 15.183594 20.808594 Z M 15.183594 20.808594 "/>
<path style=" stroke:none;fill-rule:nonzero;fill:rgb(85.488892%,18.429565%,48.629761%);fill-opacity:1;" d="M 15.550781 16.722656 C 16.265625 16.722656 16.265625 15.621094 15.550781 15.621094 C 15.449219 15.621094 15.367188 15.648438 15.296875 15.683594 C 15.207031 15.816406 15.117188 15.941406 15.03125 16.074219 C 14.984375 16.378906 15.152344 16.722656 15.550781 16.722656 Z M 15.550781 16.722656 "/>
<path style=" stroke:none;fill-rule:nonzero;fill:rgb(85.488892%,18.429565%,48.629761%);fill-opacity:1;" d="M 11.269531 30.90625 C 10.636719 30.90625 10.152344 31.132812 9.804688 31.472656 C 9.722656 32.496094 9.6875 33.542969 9.699219 34.609375 C 10.050781 35.007812 10.574219 35.273438 11.269531 35.273438 C 14.097656 35.273438 14.097656 30.90625 11.269531 30.90625 Z M 11.269531 30.90625 "/>
<path style=" stroke:none;fill-rule:nonzero;fill:rgb(85.488892%,18.429565%,48.629761%);fill-opacity:1;" d="M 10.03125 39.273438 C 10.097656 39.765625 10.175781 40.253906 10.257812 40.75 C 10.796875 40.410156 10.722656 39.433594 10.03125 39.273438 Z M 10.03125 39.273438 "/>
<path style=" stroke:none;fill-rule:nonzero;fill:rgb(85.488892%,18.429565%,48.629761%);fill-opacity:1;" d="M 13.511719 43.144531 C 12.753906 43.144531 12.753906 44.316406 13.511719 44.316406 C 14.269531 44.316406 14.269531 43.144531 13.511719 43.144531 Z M 13.511719 43.144531 "/>
<path style=" stroke:none;fill-rule:nonzero;fill:rgb(85.488892%,18.429565%,48.629761%);fill-opacity:1;" d="M 19.769531 38.585938 C 18.808594 38.585938 18.808594 40.066406 19.769531 40.066406 C 20.722656 40.066406 20.722656 38.585938 19.769531 38.585938 Z M 19.769531 38.585938 "/>
<path style=" stroke:none;fill-rule:nonzero;fill:rgb(85.488892%,18.429565%,48.629761%);fill-opacity:1;" d="M 17.191406 34.46875 C 18.503906 34.46875 18.503906 32.441406 17.191406 32.441406 C 15.878906 32.441406 15.878906 34.46875 17.191406 34.46875 Z M 17.191406 34.46875 "/>
<path style=" stroke:none;fill-rule:nonzero;fill:rgb(85.488892%,18.429565%,48.629761%);fill-opacity:1;" d="M 16.046875 26.019531 C 15.875 25.867188 15.644531 25.769531 15.351562 25.769531 C 14.839844 25.769531 14.515625 26.058594 14.378906 26.425781 C 14.140625 27.0625 14.460938 27.9375 15.351562 27.9375 C 16.457031 27.9375 16.6875 26.589844 16.046875 26.019531 Z M 16.046875 26.019531 "/>
<path style=" stroke:none;fill-rule:nonzero;fill:rgb(85.488892%,18.429565%,48.629761%);fill-opacity:1;" d="M 28.230469 31.953125 C 26.761719 31.953125 26.761719 34.222656 28.230469 34.222656 C 29.699219 34.222656 29.699219 31.953125 28.230469 31.953125 Z M 28.230469 31.953125 "/>
<path style=" stroke:none;fill-rule:nonzero;fill:rgb(85.488892%,18.429565%,48.629761%);fill-opacity:1;" d="M 26.390625 43.011719 C 25.722656 43.011719 25.105469 43.710938 25.34375 44.382812 C 25.375 44.476562 25.410156 44.570312 25.441406 44.667969 C 25.769531 45.597656 27.011719 45.597656 27.339844 44.667969 C 27.375 44.570312 27.40625 44.476562 27.441406 44.382812 C 27.675781 43.710938 27.0625 43.011719 26.390625 43.011719 Z M 26.390625 43.011719 "/>
<path style=" stroke:none;fill-rule:nonzero;fill:rgb(85.488892%,18.429565%,48.629761%);fill-opacity:1;" d="M 23.8125 50.304688 C 23.300781 50.304688 23.300781 51.097656 23.8125 51.097656 C 24.328125 51.09375 24.328125 50.304688 23.8125 50.304688 Z M 23.8125 50.304688 "/>
<path style=" stroke:none;fill-rule:nonzero;fill:rgb(85.488892%,18.429565%,48.629761%);fill-opacity:1;" d="M 28.96875 39.339844 C 28.03125 39.339844 28.03125 40.78125 28.96875 40.78125 C 29.902344 40.78125 29.902344 39.339844 28.96875 39.339844 Z M 28.96875 39.339844 "/>
<path style=" stroke:none;fill-rule:nonzero;fill:rgb(85.488892%,18.429565%,48.629761%);fill-opacity:1;" d="M 19.769531 44.566406 C 18.476562 44.566406 18.476562 46.5625 19.769531 46.5625 C 21.058594 46.5625 21.058594 44.566406 19.769531 44.566406 Z M 19.769531 44.566406 "/>
<path style=" stroke:none;fill-rule:nonzero;fill:rgb(85.488892%,18.429565%,48.629761%);fill-opacity:1;" d="M 49.925781 71.804688 C 47.097656 71.804688 47.097656 76.171875 49.925781 76.171875 C 52.753906 76.171875 52.753906 71.804688 49.925781 71.804688 Z M 49.925781 71.804688 "/>
<path style=" stroke:none;fill-rule:nonzero;fill:rgb(85.488892%,18.429565%,48.629761%);fill-opacity:1;" d="M 37.816406 78.804688 C 36.925781 78.804688 36.925781 80.179688 37.816406 80.179688 C 38.707031 80.179688 38.707031 78.804688 37.816406 78.804688 Z M 37.816406 78.804688 "/>
<path style=" stroke:none;fill-rule:nonzero;fill:rgb(85.488892%,18.429565%,48.629761%);fill-opacity:1;" d="M 42.96875 71.054688 C 41.546875 71.054688 41.546875 73.253906 42.96875 73.253906 C 44.390625 73.253906 44.390625 71.054688 42.96875 71.054688 Z M 42.96875 71.054688 "/>
<path style=" stroke:none;fill-rule:nonzero;fill:rgb(85.488892%,18.429565%,48.629761%);fill-opacity:1;" d="M 35.976562 69.203125 C 34.53125 69.203125 34.53125 71.4375 35.976562 71.4375 C 37.421875 71.4375 37.421875 69.203125 35.976562 69.203125 Z M 35.976562 69.203125 "/>
<path style=" stroke:none;fill-rule:nonzero;fill:rgb(85.488892%,18.429565%,48.629761%);fill-opacity:1;" d="M 33.222656 74.285156 C 32.378906 74.285156 32.378906 75.59375 33.222656 75.59375 C 34.066406 75.59375 34.066406 74.285156 33.222656 74.285156 Z M 33.222656 74.285156 "/>
<path style=" stroke:none;fill-rule:nonzero;fill:rgb(85.488892%,18.429565%,48.629761%);fill-opacity:1;" d="M 48.488281 80.152344 C 47.441406 80.152344 47.441406 81.769531 48.488281 81.769531 C 49.535156 81.769531 49.535156 80.152344 48.488281 80.152344 Z M 48.488281 80.152344 "/>
<path style=" stroke:none;fill-rule:nonzero;fill:rgb(85.488892%,18.429565%,48.629761%);fill-opacity:1;" d="M 43.703125 87.175781 C 43.640625 87.175781 43.582031 87.179688 43.523438 87.195312 C 43.828125 87.457031 44.132812 87.71875 44.433594 87.976562 C 44.457031 87.582031 44.214844 87.175781 43.703125 87.175781 Z M 43.703125 87.175781 "/>
<path style=" stroke:none;fill-rule:nonzero;fill:rgb(85.488892%,18.429565%,48.629761%);fill-opacity:1;" d="M 52.167969 84.042969 C 51.410156 84.042969 51.410156 85.214844 52.167969 85.214844 C 52.925781 85.210938 52.925781 84.042969 52.167969 84.042969 Z M 52.167969 84.042969 "/>
<path style=" stroke:none;fill-rule:nonzero;fill:rgb(85.488892%,18.429565%,48.629761%);fill-opacity:1;" d="M 58.421875 80.964844 C 59.382812 80.964844 59.382812 79.488281 58.421875 79.488281 C 57.46875 79.488281 57.46875 80.964844 58.421875 80.964844 Z M 58.421875 80.964844 "/>
<path style=" stroke:none;fill-rule:nonzero;fill:rgb(85.488892%,18.429565%,48.629761%);fill-opacity:1;" d="M 55.847656 73.34375 C 54.535156 73.34375 54.535156 75.371094 55.847656 75.371094 C 57.160156 75.371094 57.160156 73.34375 55.847656 73.34375 Z M 55.847656 73.34375 "/>
<path style=" stroke:none;fill-rule:nonzero;fill:rgb(85.488892%,18.429565%,48.629761%);fill-opacity:1;" d="M 54.007812 66.667969 C 52.605469 66.667969 52.605469 68.835938 54.007812 68.835938 C 55.410156 68.835938 55.410156 66.667969 54.007812 66.667969 Z M 54.007812 66.667969 "/>
<path style=" stroke:none;fill-rule:nonzero;fill:rgb(85.488892%,18.429565%,48.629761%);fill-opacity:1;" d="M 66.890625 72.855469 C 65.417969 72.855469 65.417969 75.125 66.890625 75.125 C 68.355469 75.125 68.355469 72.855469 66.890625 72.855469 Z M 66.890625 72.855469 "/>
<path style=" stroke:none;fill-rule:nonzero;fill:rgb(85.488892%,18.429565%,48.629761%);fill-opacity:1;" d="M 64.097656 85.566406 C 64.425781 86.5 65.667969 86.5 65.996094 85.566406 C 66.03125 85.472656 66.0625 85.378906 66.097656 85.285156 C 66.332031 84.609375 65.71875 83.914062 65.046875 83.914062 C 64.378906 83.914062 63.761719 84.609375 64 85.285156 C 64.03125 85.378906 64.066406 85.472656 64.097656 85.566406 Z M 64.097656 85.566406 "/>
<path style=" stroke:none;fill-rule:nonzero;fill:rgb(85.488892%,18.429565%,48.629761%);fill-opacity:1;" d="M 62.472656 91.996094 C 62.984375 91.996094 62.984375 91.203125 62.472656 91.203125 C 61.960938 91.203125 61.960938 91.996094 62.472656 91.996094 Z M 62.472656 91.996094 "/>
<path style=" stroke:none;fill-rule:nonzero;fill:rgb(85.488892%,18.429565%,48.629761%);fill-opacity:1;" d="M 67.625 80.238281 C 66.6875 80.238281 66.6875 81.683594 67.625 81.683594 C 68.558594 81.683594 68.558594 80.238281 67.625 80.238281 Z M 67.625 80.238281 "/>
<path style=" stroke:none;fill-rule:nonzero;fill:rgb(85.488892%,18.429565%,48.629761%);fill-opacity:1;" d="M 58.421875 85.46875 C 57.132812 85.46875 57.132812 87.460938 58.421875 87.460938 C 59.714844 87.460938 59.714844 85.46875 58.421875 85.46875 Z M 58.421875 85.46875 "/>
<path style=" stroke:none;fill-rule:nonzero;fill:rgb(85.488892%,18.429565%,48.629761%);fill-opacity:1;" d="M 49.90625 91.769531 C 49.992188 91.363281 49.765625 90.875 49.222656 90.875 C 48.84375 90.875 48.621094 91.117188 48.550781 91.398438 C 48.894531 91.679688 49.238281 91.957031 49.582031 92.230469 C 49.757812 92.132812 49.867188 91.960938 49.90625 91.769531 Z M 49.90625 91.769531 "/>
<path style=" stroke:none;fill-rule:nonzero;fill:rgb(85.488892%,18.429565%,48.629761%);fill-opacity:1;" d="M 28.789062 73.054688 C 28.917969 73.195312 29.046875 73.332031 29.175781 73.472656 C 29.132812 73.28125 29.003906 73.117188 28.789062 73.054688 Z M 28.789062 73.054688 "/>
<path style=" stroke:none;fill-rule:nonzero;fill:rgb(85.488892%,18.429565%,48.629761%);fill-opacity:1;" d="M 28.984375 69.039062 C 28.269531 69.039062 28.269531 70.136719 28.984375 70.136719 C 29.699219 70.136719 29.699219 69.039062 28.984375 69.039062 Z M 28.984375 69.039062 "/>
<path style=" stroke:none;fill-rule:nonzero;fill:rgb(68.629456%,14.509583%,43.139648%);fill-opacity:1;" d="M 59.871094 76.636719 C 59.855469 76.636719 59.84375 76.636719 59.828125 76.632812 C 59.480469 76.613281 59.195312 76.355469 59.144531 76.011719 L 55.054688 49.332031 L 52.160156 59.496094 C 52.070312 59.8125 51.78125 60.03125 51.449219 60.03125 L 24.636719 60.03125 C 24.230469 60.03125 23.898438 59.703125 23.898438 59.296875 C 23.898438 58.890625 24.230469 58.5625 24.636719 58.5625 L 50.894531 58.5625 L 54.5625 45.679688 C 54.65625 45.347656 54.96875 45.125 55.316406 45.148438 C 55.664062 45.167969 55.945312 45.429688 56 45.769531 L 60.082031 72.425781 L 63.832031 59.097656 C 63.921875 58.78125 64.210938 58.5625 64.542969 58.5625 L 70.605469 58.5625 L 72.867188 53.367188 C 72.992188 53.082031 73.28125 52.90625 73.59375 52.929688 C 73.90625 52.949219 74.171875 53.167969 74.253906 53.46875 L 77 63.535156 L 79.144531 58.984375 C 79.265625 58.726562 79.527344 58.5625 79.8125 58.5625 L 84.09375 58.5625 L 87.007812 54.875 C 87.15625 54.6875 87.382812 54.582031 87.621094 54.59375 C 87.855469 54.605469 88.074219 54.730469 88.203125 54.925781 L 90.246094 58.054688 L 92.609375 55.183594 C 92.761719 55 92.988281 54.902344 93.226562 54.914062 C 93.460938 54.929688 93.675781 55.058594 93.804688 55.257812 L 95.898438 58.5625 L 123.722656 58.5625 C 124.128906 58.5625 124.457031 58.890625 124.457031 59.296875 C 124.457031 59.703125 124.128906 60.03125 123.722656 60.03125 L 95.492188 60.03125 C 95.242188 60.03125 95.003906 59.902344 94.871094 59.691406 L 93.101562 56.902344 L 90.746094 59.765625 C 90.597656 59.945312 90.371094 60.042969 90.136719 60.03125 C 89.902344 60.019531 89.6875 59.894531 89.558594 59.699219 L 87.53125 56.589844 L 85.03125 59.753906 C 84.890625 59.929688 84.675781 60.03125 84.449219 60.03125 L 80.28125 60.03125 L 77.480469 65.96875 C 77.351562 66.246094 77.054688 66.414062 76.75 66.386719 C 76.441406 66.359375 76.183594 66.144531 76.105469 65.847656 L 73.382812 55.875 L 71.761719 59.589844 C 71.648438 59.859375 71.382812 60.03125 71.085938 60.03125 L 65.101562 60.03125 L 60.582031 76.101562 C 60.492188 76.417969 60.199219 76.636719 59.871094 76.636719 Z M 59.871094 76.636719 "/>
<g clip-path="url(#clip1)" clip-rule="nonzero">
<path style=" stroke:none;fill-rule:nonzero;fill:rgb(68.629456%,14.509583%,43.139648%);fill-opacity:1;" d="M 76.816406 108.175781 C 76.550781 108.175781 76.296875 108.035156 76.164062 107.789062 C 75.972656 107.429688 76.105469 106.984375 76.464844 106.792969 C 111.882812 87.851562 135.175781 62.460938 138.773438 38.871094 C 140.453125 27.859375 137.597656 18.234375 130.511719 11.046875 C 126.191406 6.660156 118.851562 1.527344 108.421875 2 C 96.078125 2.550781 82.796875 11.054688 70.019531 26.59375 C 69.761719 26.90625 69.300781 26.953125 68.984375 26.695312 C 68.667969 26.4375 68.621094 25.976562 68.878906 25.660156 C 81.929688 9.792969 95.582031 1.101562 108.355469 0.53125 C 119.324219 0.0390625 127.03125 5.417969 131.5625 10.015625 C 138.988281 17.550781 141.984375 27.601562 140.230469 39.09375 C 136.5625 63.136719 112.984375 88.929688 77.164062 108.089844 C 77.050781 108.148438 76.933594 108.175781 76.816406 108.175781 Z M 76.816406 108.175781 "/>
</g>
</g>
</svg>
