<?xml version="1.0" encoding="UTF-8"?>
<svg xmlns="http://www.w3.org/2000/svg" xmlns:xlink="http://www.w3.org/1999/xlink" width="375pt" height="374.999991pt" viewBox="0 0 375 374.999991" version="1.2">
<defs>
<clipPath id="clip1">
  <path d="M 165 14.660156 L 212 14.660156 L 212 61 L 165 61 Z M 165 14.660156 "/>
</clipPath>
<clipPath id="clip2">
  <path d="M 286 314 L 333 314 L 333 360.410156 L 286 360.410156 Z M 286 314 "/>
</clipPath>
</defs>
<g id="surface1">
<path style=" stroke:none;fill-rule:nonzero;fill:rgb(65.879822%,65.879822%,65.879822%);fill-opacity:1;" d="M 120.691406 32.003906 L 131.722656 64.824219 L 148.042969 41.042969 Z M 120.691406 32.003906 "/>
<path style=" stroke:none;fill-rule:nonzero;fill:rgb(65.879822%,65.879822%,65.879822%);fill-opacity:1;" d="M 355.414062 291.746094 L 326.613281 280.203125 L 332.375 306.015625 Z M 355.414062 291.746094 "/>
<path style=" stroke:none;fill-rule:nonzero;fill:rgb(65.879822%,65.879822%,65.879822%);fill-opacity:1;" d="M 124.445312 350.582031 L 132.667969 320.605469 L 107.71875 329.234375 Z M 124.445312 350.582031 "/>
<path style=" stroke:none;fill-rule:nonzero;fill:rgb(65.879822%,65.879822%,65.879822%);fill-opacity:1;" d="M 220.167969 209.242188 C 221.019531 206.855469 223.140625 205.164062 225.667969 205.164062 L 234.445312 205.164062 L 234.445312 182.078125 L 225.667969 182.078125 C 223.140625 182.078125 221.019531 180.386719 220.167969 178 C 219.671875 176.621094 219.117188 175.277344 218.503906 173.96875 C 217.425781 171.675781 217.730469 168.980469 219.523438 167.183594 L 225.726562 160.96875 L 209.433594 144.644531 L 203.230469 150.863281 C 201.445312 152.652344 198.75 152.960938 196.464844 151.882812 C 195.15625 151.265625 193.808594 150.707031 192.4375 150.214844 C 190.050781 149.355469 188.363281 147.230469 188.363281 144.695312 L 188.363281 135.898438 L 165.324219 135.898438 L 165.324219 144.695312 C 165.324219 147.230469 163.636719 149.355469 161.253906 150.210938 C 159.878906 150.707031 158.535156 151.261719 157.230469 151.878906 C 154.941406 152.957031 152.253906 152.652344 150.460938 150.855469 L 144.257812 144.640625 L 127.964844 160.960938 L 134.171875 167.179688 C 135.957031 168.96875 136.265625 171.667969 135.191406 173.960938 C 134.574219 175.273438 134.015625 176.621094 133.523438 177.996094 C 132.667969 180.386719 130.546875 182.078125 128.019531 182.078125 L 119.238281 182.078125 L 119.238281 205.164062 L 128.019531 205.164062 C 130.546875 205.164062 132.667969 206.855469 133.519531 209.242188 C 134.015625 210.621094 134.566406 211.964844 135.183594 213.273438 C 136.261719 215.566406 135.957031 218.261719 134.164062 220.058594 L 127.960938 226.273438 L 144.25 242.597656 L 150.453125 236.378906 C 152.242188 234.589844 154.9375 234.28125 157.222656 235.359375 C 158.53125 235.976562 159.878906 236.535156 161.25 237.027344 C 163.636719 237.886719 165.324219 240.011719 165.324219 242.546875 L 165.324219 251.34375 L 188.363281 251.34375 L 188.363281 242.546875 C 188.363281 240.011719 190.050781 237.886719 192.429688 237.03125 C 193.808594 236.535156 195.148438 235.980469 196.457031 235.363281 C 198.746094 234.285156 201.433594 234.589844 203.226562 236.386719 L 209.429688 242.601562 L 225.71875 226.28125 L 219.515625 220.0625 C 217.730469 218.273438 217.417969 215.574219 218.496094 213.28125 C 219.117188 211.957031 219.671875 210.613281 220.167969 209.242188 Z M 176.84375 216.710938 C 164.117188 216.710938 153.800781 206.371094 153.800781 193.621094 C 153.800781 180.871094 164.117188 170.53125 176.84375 170.53125 C 189.566406 170.53125 199.886719 180.871094 199.886719 193.621094 C 199.886719 206.371094 189.566406 216.710938 176.84375 216.710938 Z M 176.84375 216.710938 "/>
<path style=" stroke:none;fill-rule:nonzero;fill:rgb(100%,91.369629%,56.469727%);fill-opacity:1;" d="M 205.644531 37.773438 C 205.644531 38.34375 205.617188 38.90625 205.5625 39.472656 C 205.507812 40.035156 205.421875 40.597656 205.3125 41.152344 C 205.203125 41.710938 205.066406 42.257812 204.902344 42.800781 C 204.738281 43.34375 204.546875 43.878906 204.328125 44.402344 C 204.113281 44.925781 203.871094 45.4375 203.605469 45.9375 C 203.335938 46.4375 203.046875 46.925781 202.734375 47.394531 C 202.417969 47.867188 202.082031 48.320312 201.722656 48.761719 C 201.363281 49.199219 200.984375 49.617188 200.582031 50.019531 C 200.183594 50.421875 199.765625 50.800781 199.328125 51.160156 C 198.890625 51.519531 198.433594 51.859375 197.964844 52.171875 C 197.496094 52.488281 197.007812 52.777344 196.511719 53.046875 C 196.011719 53.3125 195.5 53.554688 194.976562 53.773438 C 194.453125 53.988281 193.921875 54.179688 193.378906 54.34375 C 192.839844 54.511719 192.289062 54.648438 191.734375 54.757812 C 191.179688 54.871094 190.621094 54.953125 190.058594 55.007812 C 189.496094 55.0625 188.929688 55.089844 188.363281 55.089844 C 187.796875 55.089844 187.234375 55.0625 186.671875 55.007812 C 186.105469 54.953125 185.546875 54.871094 184.992188 54.757812 C 184.4375 54.648438 183.890625 54.511719 183.347656 54.34375 C 182.804688 54.179688 182.273438 53.988281 181.75 53.773438 C 181.226562 53.554688 180.71875 53.3125 180.21875 53.046875 C 179.71875 52.777344 179.234375 52.488281 178.761719 52.171875 C 178.292969 51.859375 177.839844 51.519531 177.402344 51.160156 C 176.964844 50.800781 176.542969 50.421875 176.144531 50.019531 C 175.746094 49.617188 175.363281 49.199219 175.003906 48.761719 C 174.648438 48.320312 174.308594 47.867188 173.996094 47.394531 C 173.679688 46.925781 173.390625 46.4375 173.125 45.9375 C 172.855469 45.4375 172.613281 44.925781 172.398438 44.402344 C 172.183594 43.878906 171.992188 43.34375 171.828125 42.800781 C 171.664062 42.257812 171.527344 41.710938 171.414062 41.152344 C 171.304688 40.597656 171.222656 40.035156 171.167969 39.472656 C 171.109375 38.90625 171.082031 38.34375 171.082031 37.773438 C 171.082031 37.207031 171.109375 36.640625 171.167969 36.078125 C 171.222656 35.511719 171.304688 34.953125 171.414062 34.398438 C 171.527344 33.839844 171.664062 33.292969 171.828125 32.75 C 171.992188 32.207031 172.183594 31.671875 172.398438 31.148438 C 172.613281 30.625 172.855469 30.113281 173.125 29.613281 C 173.390625 29.113281 173.679688 28.625 173.996094 28.15625 C 174.308594 27.683594 174.648438 27.226562 175.003906 26.789062 C 175.363281 26.351562 175.746094 25.933594 176.144531 25.53125 C 176.542969 25.128906 176.964844 24.75 177.402344 24.390625 C 177.839844 24.03125 178.292969 23.691406 178.761719 23.378906 C 179.234375 23.0625 179.71875 22.769531 180.21875 22.503906 C 180.71875 22.234375 181.226562 21.992188 181.75 21.777344 C 182.273438 21.558594 182.804688 21.367188 183.347656 21.203125 C 183.890625 21.039062 184.4375 20.902344 184.992188 20.792969 C 185.546875 20.679688 186.105469 20.597656 186.671875 20.542969 C 187.234375 20.488281 187.796875 20.457031 188.363281 20.457031 C 188.929688 20.457031 189.496094 20.488281 190.058594 20.542969 C 190.621094 20.597656 191.179688 20.679688 191.734375 20.792969 C 192.289062 20.902344 192.839844 21.039062 193.378906 21.203125 C 193.921875 21.367188 194.453125 21.558594 194.976562 21.777344 C 195.5 21.992188 196.011719 22.234375 196.511719 22.503906 C 197.007812 22.769531 197.496094 23.0625 197.964844 23.378906 C 198.433594 23.691406 198.890625 24.03125 199.328125 24.390625 C 199.765625 24.75 200.183594 25.128906 200.582031 25.53125 C 200.984375 25.933594 201.363281 26.351562 201.722656 26.789062 C 202.082031 27.226562 202.417969 27.683594 202.734375 28.15625 C 203.046875 28.625 203.335938 29.113281 203.605469 29.613281 C 203.871094 30.113281 204.113281 30.625 204.328125 31.148438 C 204.546875 31.671875 204.738281 32.207031 204.902344 32.75 C 205.066406 33.292969 205.203125 33.839844 205.3125 34.398438 C 205.421875 34.953125 205.507812 35.511719 205.5625 36.078125 C 205.617188 36.640625 205.644531 37.207031 205.644531 37.773438 Z M 205.644531 37.773438 "/>
<path style=" stroke:none;fill-rule:nonzero;fill:rgb(38.819885%,73.728943%,58.039856%);fill-opacity:1;" d="M 326.613281 337.921875 C 326.613281 338.488281 326.585938 339.054688 326.53125 339.621094 C 326.472656 340.183594 326.390625 340.746094 326.28125 341.300781 C 326.171875 341.855469 326.03125 342.40625 325.867188 342.949219 C 325.703125 343.492188 325.515625 344.027344 325.296875 344.550781 C 325.082031 345.074219 324.839844 345.585938 324.574219 346.085938 C 324.304688 346.585938 324.015625 347.070312 323.699219 347.542969 C 323.386719 348.015625 323.050781 348.46875 322.691406 348.910156 C 322.332031 349.347656 321.953125 349.765625 321.550781 350.167969 C 321.152344 350.570312 320.730469 350.949219 320.292969 351.308594 C 319.855469 351.667969 319.402344 352.003906 318.933594 352.320312 C 318.460938 352.636719 317.976562 352.925781 317.476562 353.195312 C 316.980469 353.460938 316.46875 353.703125 315.945312 353.921875 C 315.421875 354.136719 314.890625 354.328125 314.347656 354.492188 C 313.804688 354.660156 313.257812 354.796875 312.703125 354.90625 C 312.148438 355.015625 311.589844 355.101562 311.027344 355.15625 C 310.460938 355.210938 309.898438 355.238281 309.332031 355.238281 C 308.765625 355.238281 308.203125 355.210938 307.636719 355.15625 C 307.074219 355.101562 306.515625 355.015625 305.960938 354.90625 C 305.40625 354.796875 304.855469 354.660156 304.316406 354.492188 C 303.773438 354.328125 303.242188 354.136719 302.71875 353.921875 C 302.195312 353.703125 301.683594 353.460938 301.183594 353.195312 C 300.6875 352.925781 300.203125 352.636719 299.730469 352.320312 C 299.261719 352.003906 298.804688 351.667969 298.367188 351.308594 C 297.929688 350.949219 297.511719 350.570312 297.113281 350.167969 C 296.710938 349.765625 296.332031 349.347656 295.972656 348.910156 C 295.613281 348.46875 295.277344 348.015625 294.964844 347.542969 C 294.648438 347.070312 294.359375 346.585938 294.089844 346.085938 C 293.824219 345.585938 293.582031 345.074219 293.367188 344.550781 C 293.148438 344.027344 292.960938 343.492188 292.792969 342.949219 C 292.628906 342.40625 292.492188 341.859375 292.382812 341.300781 C 292.273438 340.746094 292.1875 340.183594 292.132812 339.621094 C 292.078125 339.054688 292.050781 338.488281 292.050781 337.921875 C 292.050781 337.355469 292.078125 336.789062 292.132812 336.226562 C 292.1875 335.660156 292.273438 335.101562 292.382812 334.542969 C 292.492188 333.988281 292.628906 333.4375 292.792969 332.894531 C 292.960938 332.355469 293.148438 331.820312 293.367188 331.296875 C 293.582031 330.773438 293.824219 330.261719 294.089844 329.761719 C 294.359375 329.261719 294.648438 328.773438 294.964844 328.300781 C 295.277344 327.832031 295.613281 327.375 295.972656 326.9375 C 296.332031 326.5 296.710938 326.078125 297.113281 325.679688 C 297.511719 325.277344 297.929688 324.898438 298.367188 324.539062 C 298.804688 324.175781 299.261719 323.839844 299.730469 323.523438 C 300.203125 323.210938 300.6875 322.917969 301.183594 322.652344 C 301.683594 322.382812 302.195312 322.140625 302.71875 321.925781 C 303.242188 321.707031 303.773438 321.515625 304.316406 321.351562 C 304.855469 321.1875 305.40625 321.050781 305.960938 320.941406 C 306.515625 320.828125 307.074219 320.746094 307.636719 320.691406 C 308.203125 320.632812 308.765625 320.605469 309.332031 320.605469 C 309.898438 320.605469 310.460938 320.632812 311.027344 320.691406 C 311.589844 320.746094 312.148438 320.828125 312.703125 320.941406 C 313.257812 321.050781 313.804688 321.1875 314.347656 321.351562 C 314.890625 321.515625 315.421875 321.707031 315.945312 321.925781 C 316.46875 322.140625 316.980469 322.382812 317.476562 322.652344 C 317.976562 322.917969 318.460938 323.210938 318.933594 323.523438 C 319.402344 323.839844 319.855469 324.175781 320.292969 324.539062 C 320.730469 324.898438 321.152344 325.277344 321.550781 325.679688 C 321.953125 326.078125 322.332031 326.5 322.691406 326.9375 C 323.050781 327.375 323.386719 327.832031 323.699219 328.300781 C 324.015625 328.773438 324.304688 329.261719 324.574219 329.761719 C 324.839844 330.261719 325.082031 330.773438 325.296875 331.296875 C 325.515625 331.820312 325.703125 332.355469 325.867188 332.894531 C 326.03125 333.4375 326.171875 333.988281 326.28125 334.542969 C 326.390625 335.101562 326.472656 335.660156 326.53125 336.226562 C 326.585938 336.789062 326.613281 337.355469 326.613281 337.921875 Z M 326.613281 337.921875 "/>
<path style=" stroke:none;fill-rule:nonzero;fill:rgb(100%,50.19989%,53.329468%);fill-opacity:1;" d="M 90.4375 309.0625 C 90.4375 309.628906 90.410156 310.195312 90.355469 310.761719 C 90.300781 311.324219 90.214844 311.882812 90.105469 312.441406 C 89.996094 312.996094 89.859375 313.546875 89.695312 314.089844 C 89.53125 314.632812 89.339844 315.164062 89.121094 315.6875 C 88.90625 316.214844 88.664062 316.726562 88.398438 317.226562 C 88.128906 317.726562 87.839844 318.210938 87.523438 318.683594 C 87.210938 319.15625 86.875 319.609375 86.515625 320.046875 C 86.15625 320.484375 85.777344 320.90625 85.375 321.308594 C 84.976562 321.707031 84.558594 322.089844 84.121094 322.449219 C 83.683594 322.808594 83.226562 323.144531 82.757812 323.460938 C 82.285156 323.777344 81.800781 324.066406 81.304688 324.335938 C 80.804688 324.601562 80.292969 324.84375 79.769531 325.0625 C 79.246094 325.277344 78.714844 325.46875 78.171875 325.632812 C 77.632812 325.796875 77.082031 325.933594 76.527344 326.046875 C 75.972656 326.15625 75.414062 326.238281 74.851562 326.296875 C 74.289062 326.351562 73.722656 326.378906 73.15625 326.378906 C 72.589844 326.378906 72.027344 326.351562 71.460938 326.296875 C 70.898438 326.238281 70.339844 326.15625 69.785156 326.046875 C 69.230469 325.933594 68.683594 325.796875 68.140625 325.632812 C 67.597656 325.46875 67.066406 325.277344 66.542969 325.0625 C 66.019531 324.84375 65.507812 324.601562 65.011719 324.335938 C 64.511719 324.066406 64.027344 323.777344 63.554688 323.460938 C 63.085938 323.144531 62.632812 322.808594 62.195312 322.449219 C 61.757812 322.089844 61.335938 321.707031 60.9375 321.308594 C 60.535156 320.90625 60.15625 320.484375 59.796875 320.046875 C 59.4375 319.609375 59.101562 319.15625 58.789062 318.683594 C 58.472656 318.210938 58.183594 317.726562 57.917969 317.226562 C 57.648438 316.726562 57.40625 316.214844 57.191406 315.6875 C 56.972656 315.164062 56.785156 314.632812 56.621094 314.089844 C 56.457031 313.546875 56.316406 312.996094 56.207031 312.441406 C 56.097656 311.882812 56.015625 311.324219 55.957031 310.761719 C 55.902344 310.195312 55.875 309.628906 55.875 309.0625 C 55.875 308.496094 55.902344 307.929688 55.957031 307.367188 C 56.015625 306.800781 56.097656 306.242188 56.207031 305.683594 C 56.316406 305.128906 56.457031 304.578125 56.621094 304.035156 C 56.785156 303.492188 56.972656 302.960938 57.191406 302.4375 C 57.40625 301.910156 57.648438 301.398438 57.917969 300.898438 C 58.183594 300.398438 58.472656 299.914062 58.789062 299.441406 C 59.101562 298.96875 59.4375 298.515625 59.796875 298.078125 C 60.15625 297.640625 60.535156 297.21875 60.9375 296.816406 C 61.335938 296.417969 61.757812 296.035156 62.195312 295.675781 C 62.632812 295.316406 63.085938 294.980469 63.554688 294.664062 C 64.027344 294.351562 64.511719 294.058594 65.011719 293.792969 C 65.507812 293.523438 66.019531 293.28125 66.542969 293.066406 C 67.066406 292.847656 67.597656 292.65625 68.140625 292.492188 C 68.683594 292.328125 69.230469 292.191406 69.785156 292.078125 C 70.339844 291.96875 70.898438 291.886719 71.460938 291.828125 C 72.027344 291.773438 72.589844 291.746094 73.15625 291.746094 C 73.722656 291.746094 74.289062 291.773438 74.851562 291.828125 C 75.414062 291.886719 75.972656 291.96875 76.527344 292.078125 C 77.082031 292.191406 77.632812 292.328125 78.171875 292.492188 C 78.714844 292.65625 79.246094 292.847656 79.769531 293.066406 C 80.292969 293.28125 80.804688 293.523438 81.304688 293.792969 C 81.800781 294.058594 82.285156 294.351562 82.757812 294.664062 C 83.226562 294.980469 83.683594 295.316406 84.121094 295.675781 C 84.558594 296.035156 84.976562 296.417969 85.375 296.816406 C 85.777344 297.21875 86.15625 297.640625 86.515625 298.078125 C 86.875 298.515625 87.210938 298.96875 87.523438 299.441406 C 87.839844 299.914062 88.128906 300.398438 88.398438 300.898438 C 88.664062 301.398438 88.90625 301.910156 89.121094 302.4375 C 89.339844 302.960938 89.53125 303.492188 89.695312 304.035156 C 89.859375 304.578125 89.996094 305.128906 90.105469 305.683594 C 90.214844 306.242188 90.300781 306.800781 90.355469 307.367188 C 90.410156 307.929688 90.4375 308.496094 90.4375 309.0625 Z M 90.4375 309.0625 "/>
<path style=" stroke:none;fill-rule:nonzero;fill:rgb(0%,0%,0%);fill-opacity:1;" d="M 205.644531 193.621094 C 205.644531 177.707031 192.726562 164.761719 176.84375 164.761719 C 160.960938 164.761719 148.042969 177.707031 148.042969 193.621094 C 148.042969 209.535156 160.960938 222.480469 176.84375 222.480469 C 192.726562 222.480469 205.644531 209.535156 205.644531 193.621094 Z M 159.5625 193.621094 C 159.5625 184.074219 167.316406 176.304688 176.84375 176.304688 C 186.371094 176.304688 194.125 184.074219 194.125 193.621094 C 194.125 203.167969 186.371094 210.9375 176.84375 210.9375 C 167.316406 210.9375 159.5625 203.167969 159.5625 193.621094 Z M 159.5625 193.621094 "/>
<path style=" stroke:none;fill-rule:nonzero;fill:rgb(0%,0%,0%);fill-opacity:1;" d="M 165.324219 257.113281 L 188.363281 257.113281 C 191.550781 257.113281 194.125 254.527344 194.125 251.34375 L 194.371094 242.464844 C 195.925781 241.910156 197.429688 241.28125 199.152344 240.460938 L 205.355469 246.679688 C 207.515625 248.84375 211.34375 248.84375 213.503906 246.679688 L 229.792969 230.347656 C 232.046875 228.09375 232.046875 224.445312 229.792969 222.1875 L 223.703125 215.734375 C 224.402344 214.25 225.027344 212.726562 225.664062 210.929688 L 234.445312 210.929688 C 237.632812 210.929688 240.207031 208.34375 240.207031 205.160156 L 240.207031 182.070312 C 240.207031 178.886719 237.632812 176.300781 234.445312 176.300781 L 225.59375 176.0625 C 225.035156 174.503906 224.40625 172.984375 223.589844 171.261719 L 229.792969 165.042969 C 232.046875 162.785156 232.046875 159.140625 229.792969 156.882812 L 213.503906 140.550781 C 212.417969 139.46875 210.960938 138.863281 209.429688 138.863281 C 207.898438 138.863281 206.433594 139.46875 205.355469 140.550781 L 198.910156 146.648438 C 197.429688 145.957031 195.921875 145.324219 194.125 144.691406 L 194.125 135.898438 C 194.125 132.714844 191.550781 130.128906 188.363281 130.128906 L 165.324219 130.128906 C 162.136719 130.128906 159.5625 132.714844 159.5625 135.898438 L 159.316406 144.777344 C 157.757812 145.332031 156.253906 145.960938 154.535156 146.78125 L 148.328125 140.5625 C 146.167969 138.398438 142.34375 138.398438 140.183594 140.5625 L 123.894531 156.894531 C 121.640625 159.148438 121.640625 162.796875 123.894531 165.054688 L 129.984375 171.507812 C 129.285156 172.992188 128.65625 174.515625 128.023438 176.3125 L 119.238281 176.3125 C 116.054688 176.3125 113.480469 178.898438 113.480469 182.082031 L 113.480469 205.171875 C 113.480469 208.355469 116.054688 210.941406 119.238281 210.941406 L 128.09375 211.179688 C 128.652344 212.738281 129.28125 214.257812 130.097656 215.980469 L 123.894531 222.199219 C 121.640625 224.457031 121.640625 228.101562 123.894531 230.359375 L 140.183594 246.691406 C 141.265625 247.773438 142.726562 248.378906 144.257812 248.378906 C 145.789062 248.378906 147.253906 247.773438 148.328125 246.691406 L 154.773438 240.59375 C 156.253906 241.285156 157.765625 241.917969 159.5625 242.550781 L 159.5625 251.34375 C 159.5625 254.527344 162.136719 257.113281 165.324219 257.113281 Z M 146.386719 232.300781 L 144.257812 234.433594 L 136.113281 226.269531 L 138.242188 224.132812 C 141.714844 220.65625 142.5625 215.429688 140.398438 210.804688 C 139.855469 209.660156 139.371094 208.496094 138.945312 207.277344 C 137.222656 202.492188 132.9375 199.394531 128.019531 199.394531 L 125 199.394531 L 125 187.847656 L 128.019531 187.847656 C 132.9375 187.847656 137.222656 184.75 138.945312 179.941406 C 139.367188 178.742188 139.851562 177.574219 140.398438 176.421875 C 142.558594 171.808594 141.710938 166.578125 138.238281 163.105469 L 136.105469 160.96875 L 144.25 152.800781 L 146.382812 154.9375 C 149.796875 158.367188 155.144531 159.238281 159.675781 157.101562 C 160.816406 156.558594 162 156.066406 163.203125 155.640625 C 167.914062 153.945312 171.082031 149.550781 171.082031 144.695312 L 171.082031 141.671875 L 182.605469 141.671875 L 182.605469 144.695312 C 182.605469 149.550781 185.773438 153.949219 190.476562 155.640625 C 191.683594 156.074219 192.863281 156.5625 193.996094 157.101562 C 198.53125 159.242188 203.875 158.382812 207.296875 154.941406 L 209.429688 152.808594 L 217.574219 160.972656 L 215.445312 163.109375 C 211.96875 166.585938 211.125 171.8125 213.289062 176.4375 C 213.832031 177.582031 214.316406 178.746094 214.742188 179.964844 C 216.464844 184.75 220.75 187.847656 225.667969 187.847656 L 228.6875 187.847656 L 228.6875 199.394531 L 225.667969 199.394531 C 220.75 199.394531 216.464844 202.492188 214.742188 207.300781 C 214.320312 208.5 213.835938 209.667969 213.289062 210.820312 C 211.128906 215.433594 211.976562 220.664062 215.449219 224.136719 L 217.582031 226.273438 L 209.433594 234.441406 L 207.304688 232.304688 C 203.875 228.867188 198.542969 227.992188 194.007812 230.140625 C 192.867188 230.683594 191.6875 231.175781 190.484375 231.601562 C 185.773438 233.296875 182.605469 237.691406 182.605469 242.546875 L 182.605469 245.570312 L 171.082031 245.570312 L 171.082031 242.546875 C 171.082031 237.691406 167.914062 233.292969 163.207031 231.601562 C 162.003906 231.167969 160.824219 230.679688 159.6875 230.140625 C 155.15625 228.003906 149.820312 228.859375 146.386719 232.300781 Z M 146.386719 232.300781 "/>
<path style=" stroke:none;fill-rule:nonzero;fill:rgb(0%,0%,0%);fill-opacity:1;" d="M 247.28125 248.117188 C 249.234375 244.144531 250.886719 239.976562 252.199219 235.734375 L 241.199219 232.304688 C 240.0625 235.976562 238.628906 239.578125 236.941406 243.011719 Z M 247.28125 248.117188 "/>
<path style=" stroke:none;fill-rule:nonzero;fill:rgb(0%,0%,0%);fill-opacity:1;" d="M 136.605469 316.398438 C 135.050781 314.933594 132.8125 314.453125 130.789062 315.152344 L 105.839844 323.78125 C 104.078125 324.386719 102.71875 325.820312 102.195312 327.609375 C 101.664062 329.398438 102.039062 331.335938 103.191406 332.804688 L 119.917969 354.148438 C 121.019531 355.558594 122.695312 356.351562 124.445312 356.351562 C 124.820312 356.351562 125.207031 356.320312 125.582031 356.238281 C 127.714844 355.804688 129.425781 354.207031 130 352.109375 L 132.742188 342.121094 C 142.1875 344.042969 151.671875 345.039062 161.070312 345.039062 C 197.972656 345.039062 233.589844 330.511719 260.398438 303.632812 C 310.050781 253.859375 310.050781 172.871094 260.398438 123.097656 C 238.644531 101.289062 209.71875 89.277344 178.953125 89.277344 C 148.179688 89.277344 119.257812 101.289062 97.5 123.097656 C 56.855469 163.84375 56.855469 230.136719 97.5 270.886719 C 115.328125 288.757812 139.03125 298.597656 164.246094 298.597656 C 189.457031 298.597656 213.164062 288.757812 230.992188 270.886719 L 222.84375 262.722656 C 207.1875 278.414062 186.382812 287.054688 164.246094 287.054688 C 142.109375 287.054688 121.300781 278.414062 105.644531 262.722656 C 69.492188 226.480469 69.492188 167.507812 105.644531 131.265625 C 125.226562 111.632812 151.253906 100.828125 178.953125 100.828125 C 206.640625 100.828125 232.667969 111.640625 252.253906 131.265625 C 297.414062 176.535156 297.414062 250.203125 252.253906 295.476562 C 221.542969 326.261719 178.265625 339.324219 135.804688 330.949219 L 138.21875 322.140625 C 138.789062 320.070312 138.167969 317.859375 136.605469 316.398438 Z M 121.925781 338.007812 L 117.246094 332.046875 L 124.214844 329.640625 Z M 121.925781 338.007812 "/>
<path style=" stroke:none;fill-rule:nonzero;fill:rgb(0%,0%,0%);fill-opacity:1;" d="M 54.769531 278.414062 C 12.550781 220.511719 18.679688 141.621094 69.347656 90.828125 C 84.730469 75.414062 102.609375 63.570312 122.503906 55.472656 L 126.265625 66.664062 C 126.957031 68.738281 128.765625 70.238281 130.925781 70.539062 C 131.199219 70.578125 131.464844 70.59375 131.726562 70.59375 C 133.605469 70.59375 135.390625 69.671875 136.476562 68.089844 L 152.792969 44.308594 C 153.820312 42.8125 154.085938 40.921875 153.503906 39.195312 C 152.925781 37.476562 151.574219 36.125 149.851562 35.558594 L 122.496094 26.519531 C 120.425781 25.839844 118.132812 26.382812 116.605469 27.933594 C 115.0625 29.488281 114.539062 31.777344 115.234375 33.84375 L 118.824219 44.515625 C 97.234375 53.203125 77.851562 65.984375 61.203125 82.664062 C 6.492188 137.511719 -0.125 222.699219 45.460938 285.222656 Z M 138.945312 44.113281 L 133.507812 52.039062 L 129.828125 41.101562 Z M 138.945312 44.113281 "/>
<path style=" stroke:none;fill-rule:nonzero;fill:rgb(0%,0%,0%);fill-opacity:1;" d="M 339.007812 278.957031 L 328.75 274.847656 C 326.761719 274.054688 324.511719 274.425781 322.875 275.808594 C 321.25 277.199219 320.523438 279.375 320.992188 281.464844 L 326.75 307.277344 C 327.15625 309.101562 328.414062 310.617188 330.136719 311.335938 C 330.851562 311.644531 331.613281 311.792969 332.375 311.792969 C 333.433594 311.792969 334.476562 311.503906 335.398438 310.933594 L 358.4375 296.664062 C 360.289062 295.519531 361.34375 293.425781 361.152344 291.253906 C 360.96875 289.085938 359.574219 287.203125 357.550781 286.394531 L 349.707031 283.25 C 374.84375 213.511719 357.726562 135.3125 305.214844 82.671875 C 282.839844 60.246094 254.863281 44.441406 224.292969 36.960938 L 221.554688 48.175781 C 250.074219 55.15625 276.179688 69.910156 297.0625 90.832031 C 346.320312 140.207031 362.4375 213.507812 339.007812 278.957031 Z M 336.226562 296.84375 L 334.621094 289.628906 L 342.667969 292.855469 Z M 336.226562 296.84375 "/>
<g clip-path="url(#clip1)" clip-rule="nonzero">
<path style=" stroke:none;fill-rule:nonzero;fill:rgb(0%,0%,0%);fill-opacity:1;" d="M 188.363281 60.863281 C 201.070312 60.863281 211.40625 50.507812 211.40625 37.773438 C 211.40625 25.042969 201.070312 14.6875 188.363281 14.6875 C 175.65625 14.6875 165.324219 25.042969 165.324219 37.773438 C 165.324219 50.507812 175.65625 60.863281 188.363281 60.863281 Z M 188.363281 26.230469 C 194.71875 26.230469 199.886719 31.410156 199.886719 37.773438 C 199.886719 44.140625 194.71875 49.320312 188.363281 49.320312 C 182.011719 49.320312 176.84375 44.140625 176.84375 37.773438 C 176.84375 31.410156 182.011719 26.230469 188.363281 26.230469 Z M 188.363281 26.230469 "/>
</g>
<g clip-path="url(#clip2)" clip-rule="nonzero">
<path style=" stroke:none;fill-rule:nonzero;fill:rgb(0%,0%,0%);fill-opacity:1;" d="M 309.332031 361.011719 C 322.039062 361.011719 332.375 350.65625 332.375 337.921875 C 332.375 325.191406 322.039062 314.835938 309.332031 314.835938 C 296.625 314.835938 286.289062 325.191406 286.289062 337.921875 C 286.289062 350.65625 296.625 361.011719 309.332031 361.011719 Z M 309.332031 326.378906 C 315.683594 326.378906 320.851562 331.554688 320.851562 337.921875 C 320.851562 344.289062 315.683594 349.46875 309.332031 349.46875 C 302.976562 349.46875 297.8125 344.289062 297.8125 337.921875 C 297.8125 331.554688 302.976562 326.378906 309.332031 326.378906 Z M 309.332031 326.378906 "/>
</g>
<path style=" stroke:none;fill-rule:nonzero;fill:rgb(0%,0%,0%);fill-opacity:1;" d="M 50.113281 309.0625 C 50.113281 321.796875 60.449219 332.152344 73.15625 332.152344 C 85.863281 332.152344 96.199219 321.796875 96.199219 309.0625 C 96.199219 296.328125 85.863281 285.972656 73.15625 285.972656 C 60.449219 285.972656 50.113281 296.328125 50.113281 309.0625 Z M 84.675781 309.0625 C 84.675781 315.429688 79.511719 320.605469 73.15625 320.605469 C 66.804688 320.605469 61.636719 315.429688 61.636719 309.0625 C 61.636719 302.695312 66.804688 297.519531 73.15625 297.519531 C 79.511719 297.519531 84.675781 302.695312 84.675781 309.0625 Z M 84.675781 309.0625 "/>
</g>
</svg>
