<?xml version="1.0" encoding="UTF-8"?>
<svg xmlns="http://www.w3.org/2000/svg" xmlns:xlink="http://www.w3.org/1999/xlink" width="375pt" height="374.999991pt" viewBox="0 0 375 374.999991" version="1.2">
<defs>
<clipPath id="clip1">
  <path d="M 254 205 L 334 205 L 334 288.75 L 254 288.75 Z M 254 205 "/>
</clipPath>
</defs>
<g id="surface1">
<path style="fill:none;stroke-width:10;stroke-linecap:round;stroke-linejoin:round;stroke:rgb(45.489502%,43.139648%,69.40918%);stroke-opacity:1;stroke-miterlimit:10;" d="M 272.199761 311.007972 L 86.979753 311.007972 C 81.478778 311.007972 76.979578 306.506222 76.979578 301.00799 L 76.979578 144.57215 C 76.979578 139.070987 81.478778 134.572167 86.979753 134.572167 L 338.220252 134.572167 C 343.721228 134.572167 348.220428 139.070987 348.220428 144.57215 L 348.220428 301.00799 C 348.220428 306.506222 343.721228 311.007972 338.220252 311.007972 L 312.882959 311.007972 " transform="matrix(1.33357,0,0,1.332815,-96.017056,-172.617586)"/>
<path style="fill:none;stroke-width:10;stroke-linecap:round;stroke-linejoin:round;stroke:rgb(92.549133%,39.608765%,20.779419%);stroke-opacity:1;stroke-miterlimit:10;" d="M 320.223451 267.294683 C 320.223451 268.200308 320.179514 269.105934 320.091639 270.008629 C 320.000835 270.908393 319.869022 271.805226 319.693272 272.693267 C 319.514593 273.584238 319.294905 274.463486 319.03128 275.331011 C 318.767655 276.198536 318.463022 277.051407 318.11738 277.886693 C 317.768809 278.724909 317.382159 279.54261 316.954501 280.342726 C 316.526843 281.142842 316.061105 281.919511 315.557288 282.672734 C 315.053472 283.428887 314.514505 284.155732 313.940388 284.8562 C 313.366272 285.556668 312.757005 286.227827 312.115517 286.869679 C 311.47403 287.508599 310.803251 288.118211 310.10318 288.692653 C 309.403109 289.267095 308.673746 289.809298 307.920951 290.31047 C 307.168155 290.814572 306.388996 291.280574 305.589334 291.708474 C 304.789671 292.136375 303.972434 292.523244 303.134692 292.869082 C 302.29695 293.217851 301.444563 293.522657 300.577529 293.786431 C 299.710496 294.047275 298.831746 294.267087 297.941279 294.445867 C 297.053741 294.621717 296.157416 294.753604 295.255233 294.84446 C 294.35305 294.932385 293.447937 294.976347 292.539895 294.976347 C 291.634783 294.976347 290.72967 294.932385 289.827487 294.84446 C 288.925303 294.753604 288.028978 294.621717 287.141441 294.445867 C 286.250974 294.267087 285.372224 294.047275 284.505191 293.786431 C 283.638157 293.522657 282.78577 293.217851 281.948028 292.869082 C 281.110286 292.523244 280.29012 292.136375 279.490457 291.708474 C 278.690794 291.280574 277.914565 290.814572 277.161769 290.31047 C 276.406044 289.809298 275.679611 289.267095 274.97954 288.692653 C 274.279469 288.118211 273.60869 287.508599 272.967202 286.869679 C 272.325715 286.227827 271.716448 285.556668 271.142332 284.8562 C 270.565286 284.155732 270.026319 283.428887 269.522502 282.672734 C 269.018686 281.919511 268.552948 281.142842 268.12529 280.342726 C 267.70056 279.54261 267.310981 278.724909 266.96534 277.886693 C 266.616769 277.051407 266.312135 276.198536 266.05144 275.331011 C 265.787815 274.463486 265.568127 273.584238 265.389448 272.693267 C 265.213698 271.805226 265.078956 270.908393 264.991081 270.008629 C 264.903206 269.105934 264.859269 268.200308 264.859269 267.294683 C 264.859269 266.386126 264.903206 265.483431 264.991081 264.580737 C 265.078956 263.678042 265.213698 262.781209 265.389448 261.893168 C 265.568127 261.005127 265.787815 260.125879 266.05144 259.258354 C 266.312135 258.390829 266.616769 257.537959 266.96534 256.699742 C 267.310981 255.861525 267.70056 255.043825 268.12529 254.243709 C 268.552948 253.443593 269.018686 252.666924 269.522502 251.913701 C 270.026319 251.160478 270.565286 250.433633 271.142332 249.733165 C 271.716448 249.029767 272.325715 248.361538 272.967202 247.719687 C 273.60869 247.077836 274.279469 246.471155 274.97954 245.893782 C 275.679611 245.319339 276.406044 244.780067 277.161769 244.275965 C 277.914565 243.771863 278.690794 243.305861 279.490457 242.880891 C 280.29012 242.45299 281.110286 242.066121 281.948028 241.717353 C 282.78577 241.371515 283.638157 241.066709 284.505191 240.802935 C 285.372224 240.53916 286.250974 240.319348 287.141441 240.143498 C 288.028978 239.964718 288.925303 239.832831 289.827487 239.744906 C 290.72967 239.65405 291.634783 239.610088 292.539895 239.610088 C 293.447937 239.610088 294.35305 239.65405 295.255233 239.744906 C 296.157416 239.832831 297.053741 239.964718 297.941279 240.143498 C 298.831746 240.319348 299.710496 240.53916 300.577529 240.802935 C 301.444563 241.066709 302.29695 241.371515 303.134692 241.717353 C 303.972434 242.066121 304.789671 242.45299 305.589334 242.880891 C 306.388996 243.305861 307.168155 243.771863 307.920951 244.275965 C 308.673746 244.780067 309.403109 245.319339 310.10318 245.893782 C 310.803251 246.471155 311.47403 247.077836 312.115517 247.719687 C 312.757005 248.361538 313.366272 249.029767 313.940388 249.733165 C 314.514505 250.433633 315.053472 251.160478 315.557288 251.913701 C 316.061105 252.666924 316.526843 253.443593 316.954501 254.243709 C 317.382159 255.043825 317.768809 255.861525 318.11738 256.699742 C 318.463022 257.537959 318.767655 258.390829 319.03128 259.258354 C 319.294905 260.125879 319.514593 261.005127 319.693272 261.893168 C 319.869022 262.781209 320.000835 263.678042 320.091639 264.580737 C 320.179514 265.483431 320.223451 266.386126 320.223451 267.294683 Z M 320.223451 267.294683 " transform="matrix(1.33357,0,0,1.332815,-96.017056,-172.617586)"/>
<g clip-path="url(#clip1)" clip-rule="nonzero">
<path style="fill:none;stroke-width:10;stroke-linecap:round;stroke-linejoin:round;stroke:rgb(92.549133%,39.608765%,20.779419%);stroke-opacity:1;stroke-miterlimit:10;" d="M 275.313465 288.956428 L 267.98469 340.837933 L 292.539895 323.39951 L 317.09803 340.837933 L 309.769255 288.956428 " transform="matrix(1.33357,0,0,1.332815,-96.017056,-172.617586)"/>
</g>
<path style="fill:none;stroke-width:8;stroke-linecap:round;stroke-linejoin:round;stroke:rgb(0%,71.759033%,92.549133%);stroke-opacity:1;stroke-miterlimit:10;" d="M 118.263255 176.676432 L 107.480992 176.676432 C 105.916817 176.676432 104.6397 175.398592 104.6397 173.836461 L 104.6397 169.446081 C 104.6397 167.88395 105.916817 166.60611 107.480992 166.60611 L 118.263255 166.60611 " transform="matrix(1.33357,0,0,1.332815,-96.017056,-172.617586)"/>
<path style="fill:none;stroke-width:8;stroke-linecap:round;stroke-linejoin:round;stroke:rgb(0%,71.759033%,92.549133%);stroke-opacity:1;stroke-miterlimit:10;" d="M 128.33666 166.603179 L 139.118923 166.603179 C 140.683098 166.603179 141.960215 167.88102 141.960215 169.443151 L 141.960215 173.836461 C 141.960215 175.395661 140.683098 176.676432 139.118923 176.676432 L 128.33666 176.676432 " transform="matrix(1.33357,0,0,1.332815,-96.017056,-172.617586)"/>
<path style="fill:none;stroke-width:8;stroke-linecap:round;stroke-linejoin:round;stroke:rgb(0%,71.759033%,92.549133%);stroke-opacity:1;stroke-miterlimit:10;" d="M 118.263255 166.603179 L 118.263255 155.820665 C 118.263255 154.258534 119.543301 152.980693 121.104547 152.980693 L 125.495368 152.980693 C 127.056614 152.980693 128.333731 154.258534 128.333731 155.820665 L 128.333731 166.603179 " transform="matrix(1.33357,0,0,1.332815,-96.017056,-172.617586)"/>
<path style="fill:none;stroke-width:8;stroke-linecap:round;stroke-linejoin:round;stroke:rgb(0%,71.759033%,92.549133%);stroke-opacity:1;stroke-miterlimit:10;" d="M 128.33666 176.676432 L 128.33666 187.458946 C 128.33666 189.021077 127.056614 190.298918 125.495368 190.298918 L 121.104547 190.298918 C 119.543301 190.298918 118.266184 189.021077 118.266184 187.458946 L 118.266184 176.676432 " transform="matrix(1.33357,0,0,1.332815,-96.017056,-172.617586)"/>
<path style="fill:none;stroke-width:10;stroke-linecap:round;stroke-linejoin:round;stroke:rgb(45.489502%,43.139648%,69.40918%);stroke-opacity:1;stroke-miterlimit:10;" d="M 158.756058 186.611937 L 314.160076 186.611937 " transform="matrix(1.33357,0,0,1.332815,-96.017056,-172.617586)"/>
<path style="fill:none;stroke-width:10;stroke-linecap:round;stroke-linejoin:round;stroke:rgb(45.489502%,43.139648%,69.40918%);stroke-opacity:1;stroke-miterlimit:10;" d="M 104.6397 240.401411 L 231.291017 240.401411 " transform="matrix(1.33357,0,0,1.332815,-96.017056,-172.617586)"/>
<path style="fill:none;stroke-width:10;stroke-linecap:round;stroke-linejoin:round;stroke:rgb(45.489502%,43.139648%,69.40918%);stroke-opacity:1;stroke-miterlimit:10;" d="M 104.6397 267.294683 L 231.291017 267.294683 " transform="matrix(1.33357,0,0,1.332815,-96.017056,-172.617586)"/>
<path style="fill:none;stroke-width:10;stroke-linecap:round;stroke-linejoin:round;stroke:rgb(45.489502%,43.139648%,69.40918%);stroke-opacity:1;stroke-miterlimit:10;" d="M 104.6397 213.505209 L 314.160076 213.505209 " transform="matrix(1.33357,0,0,1.332815,-96.017056,-172.617586)"/>
</g>
</svg>
