<?xml version="1.0" encoding="UTF-8"?>
<svg xmlns="http://www.w3.org/2000/svg" xmlns:xlink="http://www.w3.org/1999/xlink" width="150pt" height="149.999998pt" viewBox="0 0 150 149.999998" version="1.2">
<defs>
<clipPath id="clip1">
  <path d="M 131 74 L 146.316406 74 L 146.316406 90 L 131 90 Z M 131 74 "/>
</clipPath>
<clipPath id="clip2">
  <path d="M 70 134 L 87 134 L 87 149.699219 L 70 149.699219 Z M 70 134 "/>
</clipPath>
<clipPath id="clip3">
  <path d="M 3.816406 74 L 19 74 L 19 90 L 3.816406 90 Z M 3.816406 74 "/>
</clipPath>
</defs>
<g id="surface1">
<path style=" stroke:none;fill-rule:nonzero;fill:rgb(1.568604%,1.959229%,1.959229%);fill-opacity:1;" d="M 85.109375 52.699219 L 85.109375 39.464844 L 104.796875 39.464844 C 105.15625 39.464844 105.507812 39.324219 105.757812 39.070312 C 106.011719 38.816406 106.160156 38.46875 106.160156 38.109375 L 106.160156 6.511719 C 106.160156 5.765625 105.550781 5.160156 104.796875 5.160156 C 104.046875 5.160156 103.4375 5.765625 103.4375 6.511719 L 103.4375 36.757812 L 83.75 36.757812 C 83.390625 36.757812 83.039062 36.902344 82.785156 37.152344 C 82.535156 37.40625 82.386719 37.753906 82.386719 38.109375 L 82.386719 52.699219 C 82.386719 53.441406 82.996094 54.054688 83.75 54.054688 C 84.5 54.054688 85.109375 53.441406 85.109375 52.699219 "/>
<path style=" stroke:none;fill-rule:nonzero;fill:rgb(1.568604%,1.959229%,1.959229%);fill-opacity:1;" d="M 79.769531 143.332031 L 79.769531 130.105469 L 89.085938 130.105469 C 89.445312 130.105469 89.800781 129.960938 90.050781 129.707031 C 90.304688 129.457031 90.449219 129.105469 90.449219 128.75 L 90.449219 99.410156 C 90.449219 98.664062 89.839844 98.054688 89.085938 98.054688 C 88.335938 98.054688 87.726562 98.664062 87.726562 99.410156 L 87.726562 127.394531 L 78.410156 127.394531 C 78.050781 127.394531 77.703125 127.542969 77.445312 127.796875 C 77.195312 128.046875 77.046875 128.390625 77.046875 128.75 L 77.046875 143.332031 C 77.046875 144.085938 77.660156 144.6875 78.410156 144.6875 C 79.160156 144.6875 79.769531 144.085938 79.769531 143.332031 "/>
<path style=" stroke:none;fill-rule:nonzero;fill:rgb(1.568604%,1.959229%,1.959229%);fill-opacity:1;" d="M 74.589844 52.699219 L 74.589844 26.757812 L 83.75 26.757812 C 84.105469 26.757812 84.457031 26.617188 84.710938 26.359375 C 84.96875 26.113281 85.109375 25.757812 85.109375 25.402344 L 85.109375 13.726562 C 85.109375 12.976562 84.5 12.375 83.75 12.375 C 82.996094 12.375 82.386719 12.976562 82.386719 13.726562 L 82.386719 24.046875 L 73.226562 24.046875 C 72.867188 24.046875 72.515625 24.195312 72.265625 24.449219 C 72.007812 24.699219 71.867188 25.050781 71.867188 25.402344 L 71.867188 52.699219 C 71.867188 53.441406 72.472656 54.054688 73.226562 54.054688 C 73.980469 54.054688 74.589844 53.441406 74.589844 52.699219 "/>
<path style=" stroke:none;fill-rule:nonzero;fill:rgb(1.568604%,1.959229%,1.959229%);fill-opacity:1;" d="M 98.410156 59.558594 L 119.460938 59.558594 C 119.8125 59.558594 120.167969 59.414062 120.421875 59.160156 C 120.671875 58.914062 120.820312 58.558594 120.820312 58.203125 L 120.820312 33.648438 C 120.820312 32.898438 120.210938 32.292969 119.460938 32.292969 C 118.703125 32.292969 118.097656 32.898438 118.097656 33.648438 L 118.097656 56.847656 L 98.410156 56.847656 C 97.660156 56.847656 97.050781 57.460938 97.050781 58.203125 C 97.050781 58.957031 97.660156 59.558594 98.410156 59.558594 "/>
<path style=" stroke:none;fill-rule:nonzero;fill:rgb(1.568604%,1.959229%,1.959229%);fill-opacity:1;" d="M 124.445312 116.398438 L 124.445312 95.445312 C 124.445312 95.085938 124.296875 94.742188 124.046875 94.484375 C 123.792969 94.238281 123.4375 94.089844 123.085938 94.089844 L 98.410156 94.089844 C 97.660156 94.089844 97.050781 94.699219 97.050781 95.445312 C 97.050781 96.191406 97.660156 96.800781 98.410156 96.800781 L 121.722656 96.800781 L 121.722656 116.398438 C 121.722656 117.144531 122.328125 117.753906 123.085938 117.753906 C 123.835938 117.753906 124.445312 117.144531 124.445312 116.398438 "/>
<path style=" stroke:none;fill-rule:nonzero;fill:rgb(1.568604%,1.959229%,1.959229%);fill-opacity:1;" d="M 98.410156 71.84375 L 130.675781 71.84375 C 131.425781 71.84375 132.035156 71.230469 132.035156 70.488281 C 132.035156 69.734375 131.425781 69.132812 130.675781 69.132812 L 98.410156 69.132812 C 97.660156 69.132812 97.050781 69.734375 97.050781 70.488281 C 97.050781 71.230469 97.660156 71.84375 98.410156 71.84375 "/>
<path style=" stroke:none;fill-rule:nonzero;fill:rgb(1.568604%,1.959229%,1.959229%);fill-opacity:1;" d="M 98.410156 83.429688 L 137.578125 83.429688 C 138.328125 83.429688 138.9375 82.824219 138.9375 82.074219 C 138.9375 81.328125 138.328125 80.722656 137.578125 80.722656 L 98.410156 80.722656 C 97.660156 80.722656 97.050781 81.328125 97.050781 82.074219 C 97.050781 82.824219 97.660156 83.429688 98.410156 83.429688 "/>
<path style=" stroke:none;fill-rule:nonzero;fill:rgb(1.568604%,1.959229%,1.959229%);fill-opacity:1;" d="M 65.785156 52.699219 L 65.785156 38.109375 C 65.785156 37.753906 65.636719 37.40625 65.386719 37.152344 C 65.128906 36.902344 64.777344 36.757812 64.421875 36.757812 L 44.734375 36.757812 L 44.734375 6.511719 C 44.734375 5.765625 44.125 5.160156 43.371094 5.160156 C 42.621094 5.160156 42.011719 5.765625 42.011719 6.511719 L 42.011719 38.109375 C 42.011719 38.46875 42.160156 38.816406 42.410156 39.070312 C 42.664062 39.324219 43.011719 39.464844 43.371094 39.464844 L 63.0625 39.464844 L 63.0625 52.699219 C 63.0625 53.441406 63.667969 54.054688 64.421875 54.054688 C 65.175781 54.054688 65.785156 53.441406 65.785156 52.699219 "/>
<path style=" stroke:none;fill-rule:nonzero;fill:rgb(1.568604%,1.959229%,1.959229%);fill-opacity:1;" d="M 68.710938 128.332031 L 68.710938 116.828125 C 68.710938 116.46875 68.5625 116.121094 68.3125 115.867188 C 68.058594 115.617188 67.710938 115.472656 67.351562 115.472656 L 62.5 115.472656 L 62.5 99.410156 C 62.5 98.664062 61.890625 98.054688 61.140625 98.054688 C 60.390625 98.054688 59.78125 98.664062 59.78125 99.410156 L 59.78125 116.828125 C 59.78125 117.183594 59.925781 117.53125 60.179688 117.785156 C 60.433594 118.039062 60.78125 118.179688 61.140625 118.179688 L 65.988281 118.179688 L 65.988281 128.332031 C 65.988281 129.078125 66.601562 129.6875 67.351562 129.6875 C 68.101562 129.6875 68.710938 129.078125 68.710938 128.332031 "/>
<path style=" stroke:none;fill-rule:nonzero;fill:rgb(1.568604%,1.959229%,1.959229%);fill-opacity:1;" d="M 49.761719 56.847656 L 30.070312 56.847656 L 30.070312 33.648438 C 30.070312 32.898438 29.460938 32.292969 28.710938 32.292969 C 27.960938 32.292969 27.351562 32.898438 27.351562 33.648438 L 27.351562 58.203125 C 27.351562 58.558594 27.496094 58.914062 27.746094 59.160156 C 28.003906 59.414062 28.351562 59.558594 28.710938 59.558594 L 49.761719 59.558594 C 50.511719 59.558594 51.121094 58.957031 51.121094 58.203125 C 51.121094 57.460938 50.511719 56.847656 49.761719 56.847656 "/>
<path style=" stroke:none;fill-rule:nonzero;fill:rgb(1.568604%,1.959229%,1.959229%);fill-opacity:1;" d="M 26.445312 116.398438 L 26.445312 96.800781 L 49.761719 96.800781 C 50.511719 96.800781 51.121094 96.191406 51.121094 95.445312 C 51.121094 94.699219 50.511719 94.089844 49.761719 94.089844 L 25.085938 94.089844 C 24.726562 94.089844 24.378906 94.238281 24.125 94.484375 C 23.871094 94.742188 23.726562 95.085938 23.726562 95.445312 L 23.726562 116.398438 C 23.726562 117.144531 24.335938 117.753906 25.085938 117.753906 C 25.835938 117.753906 26.445312 117.144531 26.445312 116.398438 "/>
<path style=" stroke:none;fill-rule:nonzero;fill:rgb(1.568604%,1.959229%,1.959229%);fill-opacity:1;" d="M 49.761719 69.132812 L 17.496094 69.132812 C 16.742188 69.132812 16.132812 69.734375 16.132812 70.488281 C 16.132812 71.230469 16.742188 71.84375 17.496094 71.84375 L 49.761719 71.84375 C 50.511719 71.84375 51.121094 71.230469 51.121094 70.488281 C 51.121094 69.734375 50.511719 69.132812 49.761719 69.132812 "/>
<path style=" stroke:none;fill-rule:nonzero;fill:rgb(1.568604%,1.959229%,1.959229%);fill-opacity:1;" d="M 49.761719 80.722656 L 10.59375 80.722656 C 9.839844 80.722656 9.230469 81.328125 9.230469 82.074219 C 9.230469 82.824219 9.839844 83.429688 10.59375 83.429688 L 49.761719 83.429688 C 50.511719 83.429688 51.121094 82.824219 51.121094 82.074219 C 51.121094 81.328125 50.511719 80.722656 49.761719 80.722656 "/>
<path style=" stroke:none;fill-rule:nonzero;fill:rgb(88.238525%,72.549438%,18.429565%);fill-opacity:1;" d="M 51.480469 100.765625 C 50.730469 100.765625 50.121094 100.15625 50.121094 99.410156 L 50.121094 52.699219 C 50.121094 51.945312 50.730469 51.34375 51.480469 51.34375 L 98.410156 51.34375 C 99.160156 51.34375 99.769531 51.945312 99.769531 52.699219 L 99.769531 99.410156 C 99.769531 100.15625 99.160156 100.765625 98.410156 100.765625 L 51.480469 100.765625 "/>
<path style=" stroke:none;fill-rule:nonzero;fill:rgb(1.568604%,1.959229%,1.959229%);fill-opacity:1;" d="M 98.410156 49.988281 L 51.480469 49.988281 C 49.980469 49.988281 48.761719 51.199219 48.761719 52.699219 L 48.761719 99.410156 C 48.761719 100.90625 49.980469 102.117188 51.480469 102.117188 L 98.410156 102.117188 C 99.910156 102.117188 101.128906 100.90625 101.128906 99.410156 L 101.128906 52.699219 C 101.128906 51.199219 99.910156 49.988281 98.410156 49.988281 M 98.410156 52.699219 L 98.410156 99.410156 L 51.480469 99.410156 L 51.480469 52.699219 L 98.410156 52.699219 "/>
<path style=" stroke:none;fill-rule:nonzero;fill:rgb(65.098572%,52.938843%,13.328552%);fill-opacity:1;" d="M 98.410156 99.410156 L 51.480469 99.410156 L 51.480469 92.640625 L 90.816406 92.640625 L 90.816406 52.699219 L 98.410156 52.699219 L 98.410156 99.410156 "/>
<path style=" stroke:none;fill-rule:nonzero;fill:rgb(39.219666%,79.60968%,83.918762%);fill-opacity:1;" d="M 61.140625 91.144531 C 60.390625 91.144531 59.78125 90.542969 59.78125 89.789062 L 59.78125 62.3125 C 59.78125 61.566406 60.390625 60.960938 61.140625 60.960938 L 88.75 60.960938 C 89.5 60.960938 90.109375 61.566406 90.109375 62.3125 L 90.109375 89.789062 C 90.109375 90.542969 89.5 91.144531 88.75 91.144531 L 61.140625 91.144531 "/>
<path style=" stroke:none;fill-rule:nonzero;fill:rgb(1.568604%,1.959229%,1.959229%);fill-opacity:1;" d="M 88.75 59.605469 L 61.140625 59.605469 C 59.640625 59.605469 58.421875 60.820312 58.421875 62.3125 L 58.421875 89.789062 C 58.421875 91.285156 59.640625 92.5 61.140625 92.5 L 88.75 92.5 C 90.25 92.5 91.46875 91.285156 91.46875 89.789062 L 91.46875 62.3125 C 91.46875 60.820312 90.25 59.605469 88.75 59.605469 Z M 88.75 62.3125 L 88.75 89.789062 L 61.140625 89.789062 L 61.140625 62.3125 L 88.75 62.3125 "/>
<path style=" stroke:none;fill-rule:nonzero;fill:rgb(100%,100%,100%);fill-opacity:1;" d="M 56.824219 88.214844 L 56.824219 58.011719 L 82.316406 58.011719 C 83.066406 58.011719 83.675781 57.40625 83.675781 56.660156 C 83.675781 55.910156 83.066406 55.304688 82.316406 55.304688 L 55.464844 55.304688 C 55.105469 55.304688 54.753906 55.449219 54.5 55.699219 C 54.246094 55.953125 54.105469 56.300781 54.105469 56.660156 L 54.105469 88.214844 C 54.105469 88.960938 54.707031 89.566406 55.464844 89.566406 C 56.214844 89.566406 56.824219 88.960938 56.824219 88.214844 "/>
<path style=" stroke:none;fill-rule:nonzero;fill:rgb(39.219666%,79.60968%,83.918762%);fill-opacity:1;" d="M 49.539062 12.65625 C 49.539062 16.046875 46.777344 18.792969 43.371094 18.792969 C 39.964844 18.792969 37.207031 16.046875 37.207031 12.65625 C 37.207031 9.261719 39.964844 6.511719 43.371094 6.511719 C 46.777344 6.511719 49.539062 9.261719 49.539062 12.65625 "/>
<path style=" stroke:none;fill-rule:nonzero;fill:rgb(1.568604%,1.959229%,1.959229%);fill-opacity:1;" d="M 49.539062 12.65625 L 48.179688 12.65625 C 48.179688 13.976562 47.644531 15.167969 46.773438 16.035156 C 45.898438 16.90625 44.707031 17.4375 43.371094 17.4375 C 42.042969 17.4375 40.847656 16.90625 39.976562 16.035156 C 39.101562 15.167969 38.566406 13.976562 38.566406 12.65625 C 38.566406 11.328125 39.101562 10.140625 39.976562 9.269531 C 40.847656 8.402344 42.042969 7.867188 43.371094 7.867188 C 44.707031 7.867188 45.898438 8.402344 46.773438 9.269531 C 47.644531 10.140625 48.179688 11.328125 48.179688 12.65625 L 50.898438 12.65625 C 50.898438 8.515625 47.53125 5.160156 43.371094 5.160156 C 39.214844 5.160156 35.84375 8.515625 35.84375 12.65625 C 35.84375 16.792969 39.214844 20.148438 43.371094 20.148438 C 47.53125 20.148438 50.898438 16.792969 50.898438 12.65625 L 49.539062 12.65625 "/>
<path style=" stroke:none;fill-rule:nonzero;fill:rgb(39.219666%,79.60968%,83.918762%);fill-opacity:1;" d="M 89.917969 12.65625 C 89.917969 16.046875 87.15625 18.792969 83.75 18.792969 C 80.339844 18.792969 77.582031 16.046875 77.582031 12.65625 C 77.582031 9.261719 80.339844 6.511719 83.75 6.511719 C 87.15625 6.511719 89.917969 9.261719 89.917969 12.65625 "/>
<path style=" stroke:none;fill-rule:nonzero;fill:rgb(1.568604%,1.959229%,1.959229%);fill-opacity:1;" d="M 89.917969 12.65625 L 88.558594 12.65625 C 88.554688 13.976562 88.019531 15.167969 87.148438 16.035156 C 86.273438 16.90625 85.082031 17.4375 83.75 17.4375 C 82.414062 17.4375 81.222656 16.90625 80.351562 16.035156 C 79.476562 15.167969 78.941406 13.976562 78.941406 12.65625 C 78.941406 11.328125 79.476562 10.140625 80.351562 9.269531 C 81.222656 8.402344 82.414062 7.867188 83.75 7.867188 C 85.082031 7.867188 86.273438 8.402344 87.148438 9.269531 C 88.019531 10.140625 88.554688 11.328125 88.558594 12.65625 L 91.28125 12.65625 C 91.273438 8.515625 87.90625 5.160156 83.75 5.160156 C 79.589844 5.160156 76.222656 8.515625 76.222656 12.65625 C 76.222656 16.792969 79.589844 20.148438 83.75 20.148438 C 87.90625 20.148438 91.273438 16.792969 91.28125 12.65625 L 89.917969 12.65625 "/>
<path style=" stroke:none;fill-rule:nonzero;fill:rgb(39.219666%,79.60968%,83.918762%);fill-opacity:1;" d="M 110.964844 7.585938 C 110.964844 10.976562 108.207031 13.726562 104.796875 13.726562 C 101.390625 13.726562 98.628906 10.976562 98.628906 7.585938 C 98.628906 4.195312 101.390625 1.449219 104.796875 1.449219 C 108.207031 1.449219 110.964844 4.195312 110.964844 7.585938 "/>
<path style=" stroke:none;fill-rule:nonzero;fill:rgb(1.568604%,1.959229%,1.959229%);fill-opacity:1;" d="M 110.964844 7.585938 L 109.605469 7.585938 C 109.605469 8.914062 109.070312 10.101562 108.195312 10.96875 C 107.324219 11.835938 106.125 12.371094 104.796875 12.375 C 103.464844 12.371094 102.273438 11.835938 101.398438 10.96875 C 100.527344 10.101562 99.992188 8.914062 99.988281 7.585938 C 99.992188 6.261719 100.527344 5.074219 101.398438 4.203125 C 102.273438 3.335938 103.464844 2.800781 104.796875 2.800781 C 106.125 2.800781 107.324219 3.335938 108.195312 4.203125 C 109.070312 5.074219 109.605469 6.261719 109.605469 7.585938 L 112.324219 7.585938 C 112.324219 3.449219 108.957031 0.09375 104.796875 0.09375 C 100.640625 0.09375 97.273438 3.449219 97.265625 7.585938 C 97.273438 11.726562 100.640625 15.078125 104.796875 15.082031 C 108.957031 15.078125 112.324219 11.726562 112.324219 7.585938 L 110.964844 7.585938 "/>
<path style=" stroke:none;fill-rule:nonzero;fill:rgb(39.219666%,79.60968%,83.918762%);fill-opacity:1;" d="M 125.625 36.667969 C 125.625 40.0625 122.867188 42.808594 119.460938 42.808594 C 116.046875 42.808594 113.289062 40.0625 113.289062 36.667969 C 113.289062 33.277344 116.046875 30.527344 119.460938 30.527344 C 122.867188 30.527344 125.625 33.277344 125.625 36.667969 "/>
<path style=" stroke:none;fill-rule:nonzero;fill:rgb(1.568604%,1.959229%,1.959229%);fill-opacity:1;" d="M 125.625 36.667969 L 124.265625 36.667969 C 124.265625 37.996094 123.726562 39.183594 122.855469 40.050781 C 121.984375 40.921875 120.789062 41.453125 119.460938 41.453125 C 118.125 41.453125 116.933594 40.921875 116.058594 40.050781 C 115.1875 39.183594 114.648438 37.996094 114.648438 36.667969 C 114.648438 35.34375 115.1875 34.15625 116.058594 33.285156 C 116.933594 32.417969 118.125 31.878906 119.460938 31.878906 C 120.789062 31.878906 121.984375 32.417969 122.855469 33.285156 C 123.726562 34.15625 124.265625 35.34375 124.265625 36.667969 L 126.988281 36.667969 C 126.988281 32.53125 123.617188 29.171875 119.460938 29.171875 C 115.300781 29.171875 111.929688 32.53125 111.929688 36.667969 C 111.929688 40.808594 115.300781 44.160156 119.460938 44.160156 C 123.617188 44.160156 126.988281 40.808594 126.988281 36.667969 L 125.625 36.667969 "/>
<path style=" stroke:none;fill-rule:nonzero;fill:rgb(39.219666%,79.60968%,83.918762%);fill-opacity:1;" d="M 136.847656 70.488281 C 136.847656 73.875 134.082031 76.625 130.675781 76.625 C 127.269531 76.625 124.511719 73.875 124.511719 70.488281 C 124.511719 67.09375 127.269531 64.34375 130.675781 64.34375 C 134.082031 64.34375 136.847656 67.09375 136.847656 70.488281 "/>
<path style=" stroke:none;fill-rule:nonzero;fill:rgb(1.568604%,1.959229%,1.959229%);fill-opacity:1;" d="M 136.847656 70.488281 L 135.488281 70.488281 C 135.480469 71.808594 134.949219 72.996094 134.078125 73.867188 C 133.203125 74.734375 132.011719 75.265625 130.675781 75.273438 C 129.34375 75.265625 128.152344 74.734375 127.273438 73.867188 C 126.40625 72.996094 125.871094 71.808594 125.871094 70.488281 C 125.871094 69.160156 126.40625 67.976562 127.273438 67.101562 C 128.152344 66.230469 129.34375 65.699219 130.675781 65.699219 C 132.011719 65.699219 133.203125 66.230469 134.078125 67.101562 C 134.949219 67.976562 135.480469 69.160156 135.488281 70.488281 L 138.207031 70.488281 C 138.203125 66.34375 134.835938 62.992188 130.675781 62.992188 C 126.519531 62.992188 123.148438 66.34375 123.148438 70.488281 C 123.148438 74.628906 126.519531 77.976562 130.675781 77.980469 C 134.835938 77.976562 138.203125 74.628906 138.207031 70.488281 L 136.847656 70.488281 "/>
<path style=" stroke:none;fill-rule:nonzero;fill:rgb(39.219666%,79.60968%,83.918762%);fill-opacity:1;" d="M 145.066406 82.074219 C 145.066406 85.464844 142.300781 88.214844 138.894531 88.214844 C 135.492188 88.214844 132.726562 85.464844 132.726562 82.074219 C 132.726562 78.683594 135.492188 75.933594 138.894531 75.933594 C 142.300781 75.933594 145.066406 78.683594 145.066406 82.074219 "/>
<g clip-path="url(#clip1)" clip-rule="nonzero">
<path style=" stroke:none;fill-rule:nonzero;fill:rgb(1.568604%,1.959229%,1.959229%);fill-opacity:1;" d="M 145.066406 82.074219 L 143.707031 82.074219 C 143.707031 83.402344 143.167969 84.589844 142.296875 85.460938 C 141.425781 86.328125 140.226562 86.859375 138.894531 86.859375 C 137.566406 86.859375 136.367188 86.328125 135.5 85.460938 C 134.628906 84.589844 134.089844 83.402344 134.089844 82.074219 C 134.089844 80.75 134.628906 79.5625 135.5 78.691406 C 136.367188 77.824219 137.566406 77.285156 138.894531 77.285156 C 140.226562 77.285156 141.425781 77.824219 142.296875 78.691406 C 143.167969 79.5625 143.707031 80.75 143.707031 82.074219 L 146.425781 82.074219 C 146.425781 80.007812 145.582031 78.125 144.222656 76.777344 C 142.863281 75.421875 140.972656 74.578125 138.894531 74.578125 C 134.738281 74.582031 131.367188 77.9375 131.367188 82.074219 C 131.367188 86.214844 134.738281 89.566406 138.894531 89.566406 C 140.972656 89.566406 142.863281 88.726562 144.222656 87.375 C 145.582031 86.023438 146.425781 84.140625 146.425781 82.074219 L 145.066406 82.074219 "/>
</g>
<path style=" stroke:none;fill-rule:nonzero;fill:rgb(39.219666%,79.60968%,83.918762%);fill-opacity:1;" d="M 129.25 114.523438 C 129.25 117.914062 126.484375 120.660156 123.085938 120.660156 C 119.671875 120.660156 116.914062 117.914062 116.914062 114.523438 C 116.914062 111.132812 119.671875 108.382812 123.085938 108.382812 C 126.484375 108.382812 129.25 111.132812 129.25 114.523438 "/>
<path style=" stroke:none;fill-rule:nonzero;fill:rgb(1.568604%,1.959229%,1.959229%);fill-opacity:1;" d="M 129.25 114.523438 L 127.890625 114.523438 C 127.890625 115.847656 127.351562 117.039062 126.480469 117.902344 C 125.609375 118.769531 124.414062 119.308594 123.085938 119.308594 C 121.75 119.308594 120.558594 118.769531 119.683594 117.902344 C 118.8125 117.039062 118.273438 115.847656 118.273438 114.523438 C 118.273438 113.195312 118.8125 112.003906 119.683594 111.136719 C 120.558594 110.273438 121.75 109.734375 123.085938 109.734375 C 124.414062 109.734375 125.609375 110.273438 126.480469 111.136719 C 127.351562 112.003906 127.890625 113.195312 127.890625 114.523438 L 130.609375 114.523438 C 130.609375 112.453125 129.769531 110.574219 128.40625 109.21875 C 127.046875 107.867188 125.15625 107.027344 123.085938 107.027344 C 118.925781 107.027344 115.550781 110.378906 115.550781 114.523438 C 115.550781 118.664062 118.925781 122.015625 123.085938 122.015625 C 125.15625 122.015625 127.046875 121.175781 128.40625 119.820312 C 129.769531 118.46875 130.609375 116.585938 130.609375 114.523438 L 129.25 114.523438 "/>
<path style=" stroke:none;fill-rule:nonzero;fill:rgb(39.219666%,79.60968%,83.918762%);fill-opacity:1;" d="M 84.65625 142.070312 C 84.65625 145.457031 81.890625 148.207031 78.484375 148.207031 C 75.078125 148.207031 72.320312 145.457031 72.320312 142.070312 C 72.320312 138.679688 75.078125 135.925781 78.484375 135.925781 C 81.890625 135.925781 84.65625 138.679688 84.65625 142.070312 "/>
<g clip-path="url(#clip2)" clip-rule="nonzero">
<path style=" stroke:none;fill-rule:nonzero;fill:rgb(1.568604%,1.959229%,1.959229%);fill-opacity:1;" d="M 84.65625 142.070312 L 83.296875 142.070312 C 83.296875 143.390625 82.757812 144.582031 81.886719 145.449219 C 81.015625 146.316406 79.820312 146.851562 78.484375 146.851562 C 77.15625 146.851562 75.960938 146.316406 75.089844 145.449219 C 74.214844 144.582031 73.679688 143.390625 73.679688 142.070312 C 73.679688 140.742188 74.214844 139.554688 75.089844 138.683594 C 75.960938 137.816406 77.15625 137.28125 78.484375 137.28125 C 79.820312 137.28125 81.015625 137.816406 81.886719 138.683594 C 82.757812 139.554688 83.296875 140.742188 83.296875 142.070312 L 86.015625 142.070312 C 86.015625 137.929688 82.648438 134.574219 78.484375 134.574219 C 74.328125 134.574219 70.957031 137.929688 70.957031 142.070312 C 70.957031 146.207031 74.328125 149.5625 78.484375 149.5625 C 82.648438 149.5625 86.015625 146.207031 86.015625 142.070312 L 84.65625 142.070312 "/>
</g>
<path style=" stroke:none;fill-rule:nonzero;fill:rgb(39.219666%,79.60968%,83.918762%);fill-opacity:1;" d="M 73.523438 127.578125 C 73.523438 130.96875 70.757812 133.722656 67.351562 133.722656 C 63.945312 133.722656 61.183594 130.96875 61.183594 127.578125 C 61.183594 124.1875 63.945312 121.441406 67.351562 121.441406 C 70.757812 121.441406 73.523438 124.1875 73.523438 127.578125 "/>
<path style=" stroke:none;fill-rule:nonzero;fill:rgb(1.568604%,1.959229%,1.959229%);fill-opacity:1;" d="M 73.523438 127.578125 L 72.160156 127.578125 C 72.160156 128.90625 71.621094 130.09375 70.753906 130.964844 C 69.875 131.832031 68.683594 132.367188 67.351562 132.367188 C 66.015625 132.367188 64.824219 131.832031 63.953125 130.964844 C 63.078125 130.09375 62.546875 128.90625 62.546875 127.578125 C 62.546875 126.257812 63.078125 125.066406 63.953125 124.195312 C 64.824219 123.328125 66.015625 122.796875 67.351562 122.796875 C 68.683594 122.796875 69.875 123.328125 70.753906 124.195312 C 71.621094 125.066406 72.160156 126.257812 72.160156 127.578125 L 74.882812 127.578125 C 74.882812 123.441406 71.507812 120.085938 67.351562 120.085938 C 63.191406 120.085938 59.824219 123.441406 59.824219 127.578125 C 59.824219 131.71875 63.191406 135.078125 67.351562 135.078125 C 71.507812 135.078125 74.882812 131.71875 74.882812 127.578125 L 73.523438 127.578125 "/>
<path style=" stroke:none;fill-rule:nonzero;fill:rgb(39.219666%,79.60968%,83.918762%);fill-opacity:1;" d="M 31.257812 114.523438 C 31.257812 117.914062 28.492188 120.660156 25.085938 120.660156 C 21.683594 120.660156 18.921875 117.914062 18.921875 114.523438 C 18.921875 111.132812 21.683594 108.382812 25.085938 108.382812 C 28.492188 108.382812 31.257812 111.132812 31.257812 114.523438 "/>
<path style=" stroke:none;fill-rule:nonzero;fill:rgb(1.568604%,1.959229%,1.959229%);fill-opacity:1;" d="M 31.257812 114.523438 L 29.898438 114.523438 C 29.898438 115.847656 29.359375 117.039062 28.488281 117.902344 C 27.613281 118.769531 26.417969 119.308594 25.085938 119.308594 C 23.753906 119.308594 22.5625 118.769531 21.691406 117.902344 C 20.820312 117.039062 20.28125 115.847656 20.28125 114.523438 C 20.28125 113.195312 20.820312 112.003906 21.691406 111.136719 C 22.5625 110.273438 23.753906 109.734375 25.085938 109.734375 C 26.417969 109.734375 27.613281 110.273438 28.488281 111.136719 C 29.359375 112.003906 29.898438 113.195312 29.898438 114.523438 L 32.617188 114.523438 C 32.617188 110.378906 29.246094 107.027344 25.085938 107.027344 C 20.929688 107.027344 17.558594 110.378906 17.558594 114.523438 C 17.558594 118.664062 20.929688 122.015625 25.085938 122.015625 C 29.246094 122.015625 32.617188 118.664062 32.617188 114.523438 L 31.257812 114.523438 "/>
<path style=" stroke:none;fill-rule:nonzero;fill:rgb(39.219666%,79.60968%,83.918762%);fill-opacity:1;" d="M 17.496094 82.074219 C 17.496094 85.464844 14.734375 88.214844 11.324219 88.214844 C 7.921875 88.214844 5.15625 85.464844 5.15625 82.074219 C 5.15625 78.683594 7.921875 75.933594 11.324219 75.933594 C 14.734375 75.933594 17.496094 78.683594 17.496094 82.074219 "/>
<g clip-path="url(#clip3)" clip-rule="nonzero">
<path style=" stroke:none;fill-rule:nonzero;fill:rgb(1.568604%,1.959229%,1.959229%);fill-opacity:1;" d="M 17.496094 82.074219 L 16.132812 82.074219 C 16.132812 83.402344 15.601562 84.589844 14.722656 85.460938 C 13.855469 86.328125 12.660156 86.859375 11.324219 86.859375 C 9.996094 86.859375 8.800781 86.328125 7.925781 85.460938 C 7.054688 84.589844 6.519531 83.402344 6.519531 82.074219 C 6.519531 80.75 7.054688 79.5625 7.925781 78.691406 C 8.800781 77.824219 9.996094 77.285156 11.324219 77.285156 C 12.660156 77.285156 13.855469 77.824219 14.722656 78.691406 C 15.601562 79.5625 16.132812 80.75 16.132812 82.074219 L 18.855469 82.074219 C 18.855469 77.9375 15.484375 74.582031 11.324219 74.578125 C 7.167969 74.582031 3.796875 77.9375 3.796875 82.074219 C 3.796875 86.214844 7.167969 89.566406 11.324219 89.566406 C 15.484375 89.566406 18.855469 86.214844 18.855469 82.074219 L 17.496094 82.074219 "/>
</g>
<path style=" stroke:none;fill-rule:nonzero;fill:rgb(39.219666%,79.60968%,83.918762%);fill-opacity:1;" d="M 26.234375 69.796875 C 26.234375 73.1875 23.476562 75.933594 20.070312 75.933594 C 16.660156 75.933594 13.898438 73.1875 13.898438 69.796875 C 13.898438 66.402344 16.660156 63.65625 20.070312 63.65625 C 23.476562 63.65625 26.234375 66.402344 26.234375 69.796875 "/>
<path style=" stroke:none;fill-rule:nonzero;fill:rgb(1.568604%,1.959229%,1.959229%);fill-opacity:1;" d="M 26.234375 69.796875 L 24.875 69.796875 C 24.875 71.121094 24.339844 72.308594 23.464844 73.179688 C 22.59375 74.046875 21.402344 74.578125 20.070312 74.578125 C 18.734375 74.578125 17.542969 74.046875 16.667969 73.179688 C 15.796875 72.308594 15.257812 71.121094 15.257812 69.796875 C 15.257812 68.46875 15.796875 67.28125 16.667969 66.414062 C 17.542969 65.542969 18.734375 65.011719 20.070312 65.011719 C 21.402344 65.011719 22.59375 65.542969 23.464844 66.414062 C 24.339844 67.28125 24.875 68.46875 24.875 69.796875 L 27.59375 69.796875 C 27.59375 65.65625 24.226562 62.304688 20.070312 62.304688 C 17.988281 62.304688 16.101562 63.144531 14.746094 64.496094 C 13.382812 65.847656 12.539062 67.730469 12.539062 69.796875 C 12.539062 71.859375 13.382812 73.742188 14.746094 75.09375 C 16.101562 76.445312 17.988281 77.285156 20.070312 77.285156 C 24.226562 77.285156 27.59375 73.933594 27.59375 69.796875 L 26.234375 69.796875 "/>
<path style=" stroke:none;fill-rule:nonzero;fill:rgb(39.219666%,79.60968%,83.918762%);fill-opacity:1;" d="M 34.882812 33.214844 C 34.882812 36.605469 32.117188 39.351562 28.710938 39.351562 C 25.308594 39.351562 22.542969 36.605469 22.542969 33.214844 C 22.542969 29.824219 25.308594 27.070312 28.710938 27.070312 C 32.117188 27.070312 34.882812 29.824219 34.882812 33.214844 "/>
<path style=" stroke:none;fill-rule:nonzero;fill:rgb(1.568604%,1.959229%,1.959229%);fill-opacity:1;" d="M 34.882812 33.214844 L 33.523438 33.214844 C 33.523438 34.535156 32.984375 35.722656 32.113281 36.59375 C 31.234375 37.460938 30.042969 37.996094 28.710938 37.996094 C 27.378906 37.996094 26.1875 37.460938 25.316406 36.59375 C 24.445312 35.722656 23.90625 34.535156 23.90625 33.214844 C 23.90625 31.886719 24.445312 30.699219 25.316406 29.828125 C 26.1875 28.960938 27.378906 28.429688 28.710938 28.425781 C 30.042969 28.429688 31.234375 28.960938 32.113281 29.828125 C 32.984375 30.699219 33.523438 31.886719 33.523438 33.214844 L 36.242188 33.214844 C 36.242188 29.074219 32.867188 25.722656 28.710938 25.714844 C 24.554688 25.722656 21.183594 29.074219 21.183594 33.214844 C 21.183594 37.351562 24.554688 40.707031 28.710938 40.707031 C 32.867188 40.707031 36.242188 37.351562 36.242188 33.214844 L 34.882812 33.214844 "/>
</g>
</svg>
