<?xml version="1.0" encoding="UTF-8"?>
<svg xmlns:xlink="http://www.w3.org/1999/xlink" xmlns="http://www.w3.org/2000/svg" height="63px" viewBox="0 0 96 22" width="96px">
  <title>Reaktor logo</title>
  <defs>
    <path d="M9.54680332,6.15969996 C9.54680332,4.92233362 8.6107603,4.10678583 6.84616015,4.10678583 L4.19885826,4.10678583 L4.19885826,8.26623914 L6.84616015,8.26623914 C8.6107603,8.26623914 9.54680332,7.39706629 9.54680332,6.15969996 Z M15.1895714,18.7960623 L10.483007,18.7960623 L6.36464266,12.0305268 L4.19885826,12.0305268 L4.19885826,18.7960623 L0,18.7960623 L0,0 L6.97999535,0 C10.6700228,0 13.7716896,2.21123573 13.7716896,5.97568301 C13.7716896,8.55622942 12.4084343,10.2141375 10.509035,11.1356586 L15.1895714,18.7960623 Z M25.6558691,10.6614918 C25.4961666,9.47775053 24.3457945,8.26623914 22.607383,8.26623914 C20.8961241,8.26623914 19.7470373,9.50344587 19.5587362,10.6614918 L25.6558691,10.6614918 Z M29.3730492,13.3994022 L19.6392301,13.3994022 C19.8535592,14.7159294 21.0571119,15.6899584 22.6878769,15.6899584 C23.9719235,15.6899584 24.8808139,15.0841229 25.5493472,14.2953876 L28.7316685,15.9276004 C27.3944413,17.8488458 25.1210103,19.165373 22.6345356,19.165373 C18.9446688,19.165373 15.5221511,16.4531579 15.5221511,12.0048315 C15.5221511,8.10887512 18.4629906,4.94914615 22.5008611,4.94914615 C26.6452534,4.94914615 29.4535431,8.13457046 29.4535431,11.9780189 C29.4535431,12.4521858 29.4263905,13.0837166 29.3730492,13.3994022 Z M40.2691298,13.6627396 L40.2691298,12.4521858 C39.4407333,12.6095498 38.9590551,12.6887106 37.7294744,12.9520479 C36.6324436,13.1896899 35.1613811,13.4530273 35.1613811,14.6635811 C35.1613811,15.6107976 36.0974241,15.9276004 37.1141217,15.9276004 C38.0501648,15.9276004 39.5744078,15.4791289 40.082114,14.558725 C40.2691298,14.2162268 40.2691298,14.0577456 40.2691298,13.6627396 Z M40.2431018,18.7960623 L40.2431018,17.4014915 L40.0549613,17.4014915 C38.9590551,18.4803767 37.7021611,19.1130247 35.8572277,19.1130247 C33.1826125,19.1130247 31.1235107,17.3221711 31.1235107,15.0060792 C31.1235107,12.4521858 32.9955967,11.1088461 35.4288908,10.6359561 C36.258412,10.4774749 39.4407333,9.95080017 40.2431018,9.84594402 C40.2431018,9.02927905 39.3329261,8.2405438 37.808683,8.2405438 C36.5519497,8.2405438 35.6702119,8.87207463 35.3495216,9.47775053 L31.6855221,8.7659417 C32.1932282,7.16054147 34.1459689,4.92233362 37.9956988,4.92233362 C42.2478984,4.92233362 44.0668038,7.66024404 44.0668038,10.424967 L44.0668038,18.7960623 L40.2431018,18.7960623 Z M55.2527267,10.7197452 L62.2243674,22 L57.572269,22 L52.494083,13.6884349 L52.4691796,13.7152475 L50.9982779,15.2949523 L50.9982779,18.8228748 L47.0667686,18.8228748 L47.0667686,0.152576063 L50.9982779,0.152576063 L50.9982779,9.87163937 L55.3568386,5.31733964 L60.3035994,5.31733964 L55.2527267,10.7197452 Z M66.5061296,19.1910683 C63.858667,19.1910683 61.9332397,17.374679 61.9332397,14.6635811 L61.9332397,1.95843187 L65.8647489,1.95843187 L65.8647489,5.3709647 L69.6670823,5.3709647 L69.6670823,8.55622942 L65.8647489,8.55622942 L65.8647489,13.5310709 C65.8647489,14.7952498 66.4267603,15.6376101 67.7096823,15.6376101 C68.6185727,15.6376101 69.6670823,15.4534335 69.9072787,15.3742727 L69.9072787,18.6655108 C69.5060944,18.7960623 68.1380192,19.1910683 66.5061296,19.1910683 Z M81.9028001,11.9582287 C81.9028001,9.70039029 80.3027225,8.33598363 78.5429423,8.33598363 C76.7831622,8.33598363 75.1830845,9.70039029 75.1830845,11.9582287 C75.1830845,14.2430393 76.6494876,15.6864472 78.5429423,15.6864472 C80.436397,15.6864472 81.9028001,14.2430393 81.9028001,11.9582287 Z M85.7170228,11.9582287 C85.7170228,16.4472527 82.2495184,19.1257926 78.5429423,19.1257926 C74.8636795,19.1257926 71.3701472,16.4472527 71.3701472,11.9582287 C71.3701472,8.02029801 74.5428285,4.92233362 78.5429423,4.92233362 C82.5702087,4.92233362 85.7170228,8.02029801 85.7170228,11.9582287 Z M96,8.93958475 L96,4.92233362 C94.0803567,4.92233362 92.3739178,6.10384052 91.8662117,6.89129899 L91.8662117,5.31622245 L87.9465918,5.31622245 L87.9465918,18.7575991 L91.8662117,18.7575991 L91.8662117,12.2472614 C91.8662117,10.0417713 93.5466226,8.93958475 96,8.93958475 Z" id="path-1"></path>
  </defs>
  <g fill-rule="evenodd" fill="none" id="Landing-Page" stroke-width="1" stroke="none">
    <g id="Dashboard--Copy-39" transform="translate(-275.000000, -5279.000000)">
      <g id="Group-6" transform="translate(275.000000, 5279.000000)">
        <mask fill="white" id="mask-2">
          <use xlink:href="#path-1"></use>
        </mask>
        <use fill="#ffffff" id="Clip-2" xlink:href="#path-1"></use>
      </g>
    </g>
  </g>
</svg>
