<?xml version="1.0" encoding="UTF-8"?>
<svg xmlns="http://www.w3.org/2000/svg" xmlns:xlink="http://www.w3.org/1999/xlink" width="150pt" height="149.999998pt" viewBox="0 0 150 149.999998" version="1.2">
<g id="surface1">
<path style=" stroke:none;fill-rule:nonzero;fill:rgb(87.059021%,70.588684%,56.858826%);fill-opacity:1;" d="M 114.800781 82.835938 C 114.800781 91.066406 121.496094 97.761719 129.726562 97.761719 C 137.957031 97.761719 144.652344 91.066406 144.652344 82.835938 C 144.652344 76.316406 140.472656 70.777344 134.652344 68.753906 C 133.109375 68.210938 131.445312 67.910156 129.726562 67.910156 C 121.496094 67.910156 114.800781 74.605469 114.800781 82.835938 "/>
<path style=" stroke:none;fill-rule:nonzero;fill:rgb(87.059021%,70.588684%,56.858826%);fill-opacity:1;" d="M 60.296875 80.347656 C 60.152344 81.144531 60.074219 81.992188 60.074219 82.835938 C 60.074219 91.066406 66.769531 97.761719 75 97.761719 C 83.230469 97.761719 89.925781 91.066406 89.925781 82.835938 C 89.925781 81.992188 89.847656 81.144531 89.703125 80.347656 C 88.535156 73.285156 82.386719 67.910156 75 67.910156 C 67.613281 67.910156 61.464844 73.285156 60.296875 80.347656 "/>
<path style=" stroke:none;fill-rule:nonzero;fill:rgb(47.059631%,23.139954%,19.999695%);fill-opacity:1;" d="M 134.652344 68.753906 C 134.226562 76.585938 127.714844 82.835938 119.777344 82.835938 L 114.800781 82.835938 C 114.800781 74.605469 121.496094 67.910156 129.726562 67.910156 C 131.445312 67.910156 133.109375 68.210938 134.652344 68.753906 "/>
<path style=" stroke:none;fill-rule:nonzero;fill:rgb(25.878906%,23.529053%,23.529053%);fill-opacity:1;" d="M 75 67.910156 C 75 74.78125 69.433594 80.347656 62.5625 80.347656 L 60.296875 80.347656 C 61.464844 73.285156 67.613281 67.910156 75 67.910156 "/>
<path style=" stroke:none;fill-rule:nonzero;fill:rgb(25.878906%,23.529053%,23.529053%);fill-opacity:1;" d="M 89.703125 80.347656 L 87.4375 80.347656 C 84.007812 80.347656 80.898438 78.957031 78.632812 76.714844 C 76.390625 74.449219 75 71.339844 75 67.910156 C 82.386719 67.910156 88.535156 73.285156 89.703125 80.347656 "/>
<path style=" stroke:none;fill-rule:nonzero;fill:rgb(87.059021%,70.588684%,56.858826%);fill-opacity:1;" d="M 20.273438 67.910156 C 28.503906 67.910156 35.199219 74.605469 35.199219 82.835938 C 35.199219 91.066406 28.503906 97.761719 20.273438 97.761719 C 12.042969 97.761719 5.347656 91.066406 5.347656 82.835938 C 5.347656 74.605469 12.042969 67.910156 20.273438 67.910156 "/>
<path style=" stroke:none;fill-rule:nonzero;fill:rgb(94.898987%,56.079102%,11.369324%);fill-opacity:1;" d="M 32.710938 70.398438 L 20.273438 70.398438 C 20.273438 67.648438 22.5 65.421875 25.25 65.421875 L 32.710938 65.421875 C 34.082031 65.421875 35.199219 64.304688 35.199219 62.933594 L 40.175781 62.933594 C 40.175781 67.054688 36.832031 70.398438 32.710938 70.398438 "/>
<path style=" stroke:none;fill-rule:nonzero;fill:rgb(93.328857%,13.328552%,26.269531%);fill-opacity:1;" d="M 43.507812 93.058594 L 47.636719 99.277344 L 37.6875 114.171875 L 37.6875 147.511719 L 2.859375 147.511719 L 2.859375 115.175781 C 2.859375 111.042969 6.195312 107.710938 10.324219 107.710938 L 30.050781 107.710938 L 42.660156 88.78125 L 42.660156 90.296875 C 42.660156 91.269531 42.964844 92.242188 43.507812 93.058594 "/>
<path style=" stroke:none;fill-rule:nonzero;fill:rgb(19.999695%,68.629456%,41.178894%);fill-opacity:1;" d="M 107.339844 88.78125 L 119.949219 107.710938 L 142.164062 107.710938 C 144.90625 107.710938 147.140625 109.957031 147.140625 112.6875 L 147.140625 147.511719 L 112.3125 147.511719 C 112.3125 147.511719 112.34375 114.582031 112.390625 114.28125 L 102.363281 99.277344 L 106.492188 93.058594 C 107.035156 92.242188 107.339844 91.269531 107.339844 90.296875 L 107.339844 88.78125 "/>
<path style=" stroke:none;fill-rule:nonzero;fill:rgb(20.779419%,47.44873%,69.40918%);fill-opacity:1;" d="M 52.613281 67.910156 L 52.613281 88.78125 L 65.226562 107.710938 L 84.773438 107.710938 L 97.386719 88.78125 L 97.386719 67.910156 C 97.386719 65.179688 99.621094 62.933594 102.363281 62.933594 C 103.734375 62.933594 104.976562 63.480469 105.871094 64.402344 C 106.792969 65.296875 107.339844 66.539062 107.339844 67.910156 L 107.339844 90.296875 C 107.339844 91.269531 107.035156 92.242188 106.492188 93.058594 L 102.363281 99.277344 L 92.414062 114.171875 L 92.414062 147.511719 L 57.585938 147.511719 L 57.585938 115.175781 C 57.585938 114.871094 57.617188 114.582031 57.664062 114.28125 L 47.636719 99.277344 L 43.507812 93.058594 C 42.964844 92.242188 42.660156 91.269531 42.660156 90.296875 L 42.660156 67.910156 C 42.660156 65.179688 44.898438 62.933594 47.636719 62.933594 C 49.007812 62.933594 50.25 63.480469 51.144531 64.402344 C 52.066406 65.296875 52.613281 66.539062 52.613281 67.910156 "/>
<path style=" stroke:none;fill-rule:nonzero;fill:rgb(25.878906%,23.529053%,23.529053%);fill-opacity:1;" d="M 77.488281 40.546875 L 77.488281 15.671875 L 77.515625 15.496094 C 78.082031 15.625 78.652344 15.671875 79.226562 15.671875 L 93.0625 15.671875 L 85.777344 39.925781 L 85.777344 40.546875 L 79.226562 40.546875 C 78.652344 40.546875 78.082031 40.597656 77.515625 40.691406 L 77.488281 40.546875 "/>
<path style=" stroke:none;fill-rule:nonzero;fill:rgb(27.839661%,27.839661%,28.62854%);fill-opacity:1;" d="M 94.902344 15.671875 C 97.640625 15.671875 99.875 17.917969 99.875 20.648438 L 99.875 35.570312 C 99.875 38.300781 97.640625 40.546875 94.902344 40.546875 L 85.777344 40.546875 L 85.777344 39.925781 L 93.0625 15.671875 L 94.902344 15.671875 "/>
<path style=" stroke:none;fill-rule:nonzero;fill:rgb(98.429871%,77.648926%,24.708557%);fill-opacity:1;" d="M 77.488281 40.546875 L 77.515625 40.691406 C 75.273438 41.089844 73.183594 42.265625 71.6875 44.035156 C 67.140625 49.496094 60.277344 52.984375 52.613281 52.984375 C 37.9375 52.984375 26.238281 40.273438 27.882812 25.273438 C 29.15625 13.777344 38.609375 4.476562 50.125 3.359375 C 58.753906 2.515625 66.59375 6.101562 71.636719 12.113281 C 73.164062 13.902344 75.222656 15.128906 77.515625 15.496094 L 77.488281 15.671875 L 77.488281 40.546875 "/>
<path style=" stroke:none;fill-rule:nonzero;fill:rgb(94.898987%,56.079102%,11.369324%);fill-opacity:1;" d="M 62.132812 20.113281 C 60.65625 18.371094 58.742188 17.070312 56.605469 16.332031 L 58.21875 11.628906 C 61.210938 12.648438 63.875 14.476562 65.925781 16.894531 L 62.132812 20.113281 "/>
<path style=" stroke:none;fill-rule:nonzero;fill:rgb(94.898987%,56.079102%,11.369324%);fill-opacity:1;" d="M 52.613281 45.523438 C 47.675781 45.523438 42.953125 43.414062 39.640625 39.722656 C 36.296875 35.96875 34.761719 31.140625 35.316406 26.097656 C 36.179688 18.148438 42.855469 11.570312 50.824219 10.785156 C 51.4375 10.726562 52.039062 10.695312 52.613281 10.695312 L 52.613281 15.671875 C 52.195312 15.671875 51.757812 15.691406 51.308594 15.738281 C 45.636719 16.292969 40.875 20.988281 40.261719 26.632812 C 39.863281 30.257812 40.960938 33.726562 43.351562 36.40625 C 45.710938 39.03125 49.09375 40.546875 52.613281 40.546875 C 56.285156 40.546875 59.753906 38.914062 62.152344 36.066406 L 65.964844 39.253906 C 62.621094 43.238281 57.753906 45.523438 52.613281 45.523438 "/>
<path style=" stroke:none;fill-rule:nonzero;fill:rgb(27.839661%,27.839661%,28.62854%);fill-opacity:1;" d="M 112.3125 38.058594 L 107.339844 38.058594 L 107.339844 18.160156 L 112.3125 18.160156 L 112.3125 38.058594 "/>
<path style=" stroke:none;fill-rule:nonzero;fill:rgb(6.269836%,5.879211%,5.099487%);fill-opacity:1;" d="M 129.726562 70.398438 C 130.464844 70.398438 131.195312 70.496094 131.894531 70.621094 C 130.660156 76.179688 125.703125 80.347656 119.777344 80.347656 L 117.542969 80.347656 C 118.699219 74.671875 123.722656 70.398438 129.726562 70.398438 Z M 142.164062 82.835938 C 142.164062 89.695312 136.585938 95.273438 129.726562 95.273438 C 123.722656 95.273438 118.699219 91 117.542969 85.324219 L 119.777344 85.324219 C 127.800781 85.324219 134.554688 79.863281 136.566406 72.46875 C 139.929688 74.691406 142.164062 78.503906 142.164062 82.835938 Z M 129.726562 100.25 C 139.328125 100.25 147.140625 92.4375 147.140625 82.835938 C 147.140625 73.234375 139.328125 65.421875 129.726562 65.421875 C 120.125 65.421875 112.3125 73.234375 112.3125 82.835938 C 112.3125 92.4375 120.125 100.25 129.726562 100.25 "/>
<path style=" stroke:none;fill-rule:nonzero;fill:rgb(6.269836%,5.879211%,5.099487%);fill-opacity:1;" d="M 86.320312 77.753906 C 82.347656 77.296875 79.101562 74.519531 77.964844 70.796875 C 81.695312 71.71875 84.765625 74.304688 86.320312 77.753906 Z M 75 95.273438 C 68.140625 95.273438 62.5625 89.695312 62.5625 82.835938 C 67.75 82.835938 72.328125 80.171875 75 76.152344 C 77.671875 80.171875 82.25 82.835938 87.4375 82.835938 C 87.4375 89.695312 81.859375 95.273438 75 95.273438 Z M 72.035156 70.796875 C 70.898438 74.519531 67.652344 77.296875 63.679688 77.753906 C 65.234375 74.304688 68.304688 71.71875 72.035156 70.796875 Z M 57.585938 82.835938 C 57.585938 92.4375 65.398438 100.25 75 100.25 C 84.601562 100.25 92.414062 92.4375 92.414062 82.835938 C 92.414062 73.234375 84.601562 65.421875 75 65.421875 C 65.398438 65.421875 57.585938 73.234375 57.585938 82.835938 "/>
<path style=" stroke:none;fill-rule:nonzero;fill:rgb(6.269836%,5.879211%,5.099487%);fill-opacity:1;" d="M 32.710938 82.835938 C 32.710938 89.695312 27.132812 95.273438 20.273438 95.273438 C 13.414062 95.273438 7.835938 89.695312 7.835938 82.835938 C 7.835938 75.976562 13.414062 70.398438 20.273438 70.398438 C 27.132812 70.398438 32.710938 75.976562 32.710938 82.835938 Z M 2.859375 82.835938 C 2.859375 92.4375 10.671875 100.25 20.273438 100.25 C 29.875 100.25 37.6875 92.4375 37.6875 82.835938 C 37.6875 77.96875 35.675781 73.566406 32.4375 70.398438 L 32.710938 70.398438 C 36.832031 70.398438 40.175781 67.054688 40.175781 62.933594 L 35.199219 62.933594 C 35.199219 64.304688 34.082031 65.421875 32.710938 65.421875 L 20.273438 65.421875 C 10.671875 65.421875 2.859375 73.234375 2.859375 82.835938 "/>
<path style=" stroke:none;fill-rule:nonzero;fill:rgb(6.269836%,5.879211%,5.099487%);fill-opacity:1;" d="M 144.652344 145.023438 L 114.800781 145.023438 C 114.8125 132.460938 114.839844 115.574219 114.867188 114.4375 C 114.90625 113.890625 114.761719 113.347656 114.453125 112.898438 L 105.347656 99.265625 L 108.339844 94.769531 L 117.882812 109.089844 C 118.339844 109.78125 119.117188 110.199219 119.949219 110.199219 L 142.164062 110.199219 C 143.535156 110.199219 144.652344 111.316406 144.652344 112.6875 Z M 90.34375 112.792969 C 90.070312 113.210938 89.925781 113.6875 89.925781 114.171875 L 89.925781 145.023438 L 60.074219 145.023438 L 60.074219 115.175781 C 60.074219 115.007812 60.085938 114.84375 60.113281 114.6875 C 60.21875 114.058594 60.085938 113.425781 59.726562 112.898438 L 45.578125 91.679688 C 45.304688 91.269531 45.148438 90.773438 45.148438 90.296875 L 45.148438 67.910156 C 45.148438 66.539062 46.265625 65.421875 47.636719 65.421875 C 48.296875 65.421875 48.910156 65.675781 49.40625 66.179688 C 49.871094 66.636719 50.125 67.25 50.125 67.910156 L 50.125 88.78125 C 50.125 89.269531 50.269531 89.753906 50.542969 90.164062 L 63.15625 109.089844 C 63.613281 109.78125 64.390625 110.199219 65.226562 110.199219 L 84.773438 110.199219 C 85.609375 110.199219 86.386719 109.78125 86.84375 109.089844 L 99.457031 90.164062 C 99.730469 89.753906 99.875 89.269531 99.875 88.78125 L 99.875 67.910156 C 99.875 66.539062 100.992188 65.421875 102.363281 65.421875 C 103.023438 65.421875 103.636719 65.675781 104.132812 66.179688 C 104.597656 66.636719 104.851562 67.25 104.851562 67.910156 L 104.851562 90.296875 C 104.851562 90.773438 104.695312 91.269531 104.421875 91.6875 Z M 35.617188 112.792969 C 35.34375 113.210938 35.199219 113.6875 35.199219 114.171875 L 35.199219 145.023438 L 5.347656 145.023438 L 5.347656 115.175781 C 5.347656 112.433594 7.582031 110.199219 10.324219 110.199219 L 30.050781 110.199219 C 30.882812 110.199219 31.660156 109.78125 32.117188 109.089844 L 41.660156 94.769531 L 44.652344 99.265625 Z M 142.164062 105.222656 L 121.28125 105.222656 L 109.824219 88.023438 L 109.824219 67.910156 C 109.824219 65.898438 109.039062 64.015625 107.648438 62.671875 C 106.257812 61.234375 104.382812 60.449219 102.363281 60.449219 C 98.242188 60.449219 94.902344 63.789062 94.902344 67.910156 L 94.902344 87.8125 L 83.445312 105.222656 L 66.554688 105.222656 L 55.097656 88.023438 L 55.097656 67.910156 C 55.097656 65.898438 54.3125 64.015625 52.921875 62.671875 C 51.535156 61.234375 49.65625 60.449219 47.636719 60.449219 C 43.515625 60.449219 40.175781 63.789062 40.175781 67.910156 L 40.175781 88.023438 L 28.71875 105.222656 L 10.324219 105.222656 C 4.832031 105.222656 0.375 109.683594 0.375 115.175781 L 0.375 147.511719 C 0.375 148.882812 1.492188 150 2.859375 150 L 37.6875 150 C 39.058594 150 40.175781 148.882812 40.175781 147.511719 L 40.175781 114.929688 L 47.648438 103.746094 L 55.097656 114.929688 C 55.097656 115.007812 55.097656 115.097656 55.097656 115.175781 L 55.097656 147.511719 C 55.097656 148.882812 56.21875 150 57.585938 150 L 92.414062 150 C 93.78125 150 94.902344 148.882812 94.902344 147.511719 L 94.902344 114.929688 L 102.351562 103.746094 L 109.894531 115.027344 C 109.863281 117.3125 109.84375 124.425781 109.824219 147.511719 C 109.824219 148.171875 110.089844 148.804688 110.554688 149.269531 C 111.019531 149.738281 111.652344 150 112.3125 150 L 147.140625 150 C 148.507812 150 149.625 148.882812 149.625 147.511719 L 149.625 112.6875 C 149.625 108.566406 146.285156 105.222656 142.164062 105.222656 "/>
<path style=" stroke:none;fill-rule:nonzero;fill:rgb(6.269836%,5.879211%,5.099487%);fill-opacity:1;" d="M 69.78125 42.441406 C 65.515625 47.5625 59.257812 50.496094 52.613281 50.496094 C 46.257812 50.496094 40.175781 47.777344 35.929688 43.035156 C 31.625 38.234375 29.652344 32.027344 30.371094 25.542969 C 31.515625 15.136719 39.921875 6.847656 50.359375 5.828125 C 51.085938 5.761719 51.824219 5.722656 52.554688 5.722656 C 59.152344 5.722656 65.449219 8.617188 69.734375 13.71875 C 71.152344 15.410156 72.980469 16.664062 75 17.402344 L 75 38.808594 C 72.988281 39.535156 71.179688 40.769531 69.78125 42.441406 Z M 79.976562 18.160156 L 89.710938 18.160156 L 83.746094 38.058594 L 79.976562 38.058594 Z M 97.386719 20.648438 L 97.386719 35.570312 C 97.386719 36.941406 96.269531 38.058594 94.902344 38.058594 L 88.933594 38.058594 L 94.910156 18.160156 C 96.269531 18.167969 97.386719 19.277344 97.386719 20.648438 Z M 102.363281 35.570312 L 102.363281 20.648438 C 102.363281 16.527344 99.019531 13.183594 94.902344 13.183594 L 79.238281 13.183594 C 77.039062 13.183594 74.960938 12.210938 73.542969 10.511719 C 67.730469 3.601562 58.890625 0 49.871094 0.882812 C 37.113281 2.125 26.832031 12.269531 25.421875 25 C 24.558594 32.785156 27.035156 40.566406 32.214844 46.359375 C 37.40625 52.148438 44.839844 55.472656 52.613281 55.472656 C 60.734375 55.472656 68.382812 51.886719 73.601562 45.628906 C 74.980469 43.976562 77.03125 43.035156 79.238281 43.035156 L 94.902344 43.035156 C 99.019531 43.035156 102.363281 39.691406 102.363281 35.570312 "/>
<path style=" stroke:none;fill-rule:nonzero;fill:rgb(6.269836%,5.879211%,5.099487%);fill-opacity:1;" d="M 62.113281 20.113281 L 65.925781 16.914062 C 63.875 14.476562 61.203125 12.648438 58.207031 11.621094 L 56.597656 16.332031 C 58.742188 17.0625 60.648438 18.371094 62.113281 20.113281 "/>
<path style=" stroke:none;fill-rule:nonzero;fill:rgb(6.269836%,5.879211%,5.099487%);fill-opacity:1;" d="M 52.613281 40.546875 C 49.085938 40.546875 45.703125 39.042969 43.34375 36.398438 C 40.953125 33.734375 39.851562 30.265625 40.25 26.640625 C 40.882812 20.976562 45.644531 16.285156 51.328125 15.738281 C 51.757812 15.691406 52.183594 15.671875 52.613281 15.671875 L 52.613281 10.695312 C 52.027344 10.695312 51.4375 10.726562 50.84375 10.785156 C 42.867188 11.5625 36.191406 18.140625 35.304688 26.097656 C 34.753906 31.140625 36.289062 35.980469 39.628906 39.722656 C 42.933594 43.402344 47.664062 45.523438 52.613281 45.523438 C 57.773438 45.523438 62.640625 43.238281 65.964844 39.253906 L 62.144531 36.066406 C 59.773438 38.914062 56.292969 40.546875 52.613281 40.546875 "/>
<path style=" stroke:none;fill-rule:nonzero;fill:rgb(6.269836%,5.879211%,5.099487%);fill-opacity:1;" d="M 107.339844 38.058594 L 112.3125 38.058594 L 112.3125 15.671875 L 107.339844 15.671875 L 107.339844 38.058594 "/>
</g>
</svg>
