<?xml version="1.0" encoding="UTF-8"?>
<svg xmlns="http://www.w3.org/2000/svg" height="63" viewBox="0 0 207 63" width="207">
  <title>University Logo</title>
  <g fill-rule="nonzero" fill="#ffffff">
    <path d="M66 41.834c-2.382-5.334-7.73-6.111-11.077-8.334-1.602-1.064-2.25-3.2-2.506-4.985-1.576.167-4.203.191-5.457-3.056-.986-2.553-.577-6.784-3.878-10.369-3.002-3.26-6.694-4.334-10.082-4.092 4.152 2.827 2.514 7.088-.5 7.088-4.197 0-5.37-5.146-11.514-5.146-1.405 0-2.643.447-3.416.967 3.44.442 4.264 3.314 5.339 5.914.855 2.066 2.383 3.27 4.62 3.9-.404.236-1.369.527-2.618.527-2.714 0-4.603-1.454-6.547-3.492-1.709-1.794-3.616-3.494-6.814-3.494-1.573 0-2.778.508-3.195.794 1.756.281 4.349 1.347 4.349 3.237 0 1.617-1.756 2.236-3.195.689-1.603-1.722-3.851-3.026-6.425-3.026-1.272 0-2.544.413-3.084.949 3.05.358 4.857 2.352 6.746 6.8 1.066 2.51 2.584 4.883 6.406 4.927 1.74.021 4.21-.821 5.66.596 1.372 1.34.91 3.1 1.538 4.525.79 1.793 2.427 2.717 5.628 2.887-2.656 2.262-9.004.905-11.166-1.408.285 5.788 4.769 10.98 13.67 8.539 1.547-.424 2.65-.184 3.246 1.41.817 2.187 2.753 2.55 4.582 2.32 4.184-.528 6.667.33 9.075 3.26.526-4.848-2.877-7.695-5.014-9.056-2.035-1.297-2.234-2.645-2.26-3.69 1.474 1.717 3.394 2.444 5.392 2.73 3.453.495 5.928 1.476 7.237 3.362.382-5.328-5.112-6.532-5.785-8.773 1.728 1.148 3.003 1.565 4.803 1.426 2.4-.185 5.32-2.105 7.474 1.652 2.748-1.819 6.35-1.17 8.768.422zM36.094 34.65h-6.188v-6.3h6.188v6.3zM29.906 6.3h6.188V0h-6.188v6.3zm6.188 50.4h-6.188V63h6.188v-6.3zM80.298 36.987c2.017 0 3.335-1.154 3.335-3.554V28.15h-1.79v5.368c0 1.207-.587 1.804-1.52 1.804-.934 0-1.519-.61-1.519-1.84V28.15H77v5.318c0 2.35 1.294 3.518 3.298 3.518zm4.467-.135h1.765v-5.259l3.448 5.259h1.542V28.15h-1.765v5.069l-3.337-5.07h-1.653v8.702zm8.077 0h1.803V28.15h-1.803v8.7zm5.292.048h1.667l2.936-8.75h-1.902l-1.841 5.992-1.842-5.991h-1.954l2.936 8.749zm5.063-.048h5.66v-1.628h-3.87v-1.94h3.36v-1.628h-3.36v-1.88h3.82v-1.624h-5.61v8.7zm6.661 0h1.803v-2.86h1.132l1.607 2.86h2.064l-1.852-3.234c.957-.421 1.615-1.254 1.615-2.571v-.05c0-.86-.26-1.543-.732-2.014-.548-.547-1.357-.832-2.365-.832h-3.272v8.7zm1.803-4.451v-2.625h1.295c.92 0 1.456.437 1.456 1.308v.013c0 .783-.498 1.305-1.42 1.305h-1.331V32.4zm8.14 4.56c1.693 0 2.923-.993 2.923-2.608v-.026c0-1.355-.82-2-2.337-2.6-1.358-.557-1.657-.794-1.657-1.29v-.012c0-.45.387-.76 1.01-.76.672 0 1.306.361 1.855.808l1.006-1.366c-.795-.72-1.79-1.068-2.811-1.068-1.68 0-2.849 1.031-2.849 2.547v.024c0 1.493.957 2.076 2.5 2.675 1.246.47 1.495.745 1.495 1.18v.014c0 .51-.424.856-1.12.856-.873 0-1.582-.473-2.167-.981l-1.07 1.328c.959.895 2.114 1.28 3.222 1.28zm3.6-.11h1.8v-8.7h-1.8v8.7zm4.613 0h1.79v-7.036h2.191v-1.663h-6.17v1.663h2.189v7.037zm6.958 0h1.802v-3.457l2.837-5.243h-1.99l-1.73 3.418-1.716-3.418h-2.041l2.837 5.268v3.433zm10.81.149c2.303 0 3.943-1.839 3.943-4.438v-.149c0-2.598-1.616-4.413-3.931-4.413-2.304 0-3.944 1.825-3.944 4.438v.149c0 2.598 1.617 4.413 3.932 4.413zm.012-1.665c-1.207 0-2.09-1.083-2.09-2.798v-.086c0-1.716.857-2.786 2.08-2.786 1.206 0 2.078 1.083 2.078 2.8v.084c-.001 1.717-.86 2.786-2.068 2.786zm4.66 1.517h1.802v-3.447h3.348v-1.65h-3.348v-1.953h3.808V28.15h-5.61v8.702zm9.119 0h1.803v-3.545h2.863v3.545h1.804V28.15h-1.804v3.493h-2.863V28.15h-1.803v8.7zm7.76 0h5.661v-1.628h-3.87v-1.94h3.359v-1.628h-3.36v-1.88h3.821v-1.624h-5.61v8.7h-.001zm6.66 0h5.326v-1.654h-3.522v-7.047h-1.804v8.7zm8.828.11c1.692 0 2.921-.994 2.921-2.61v-.025c0-1.355-.819-2-2.338-2.6-1.356-.557-1.656-.794-1.656-1.29v-.012c0-.45.386-.76 1.01-.76.672 0 1.307.361 1.855.808l1.006-1.366c-.795-.72-1.791-1.068-2.812-1.068-1.68 0-2.849 1.031-2.849 2.547v.024c0 1.493.958 2.076 2.5 2.675 1.246.47 1.496.745 1.496 1.18v.014c0 .51-.424.856-1.122.856-.872 0-1.58-.473-2.164-.981l-1.07 1.328c.957.895 2.114 1.28 3.223 1.28zm3.803-.11h1.804V28.15h-1.804v8.7zm3.105 0h1.766v-5.259l3.449 5.259h1.541V28.15h-1.765v5.069l-3.336-5.07h-1.655v8.702zm8.048 0h1.801V34.29l.81-1.019 2.178 3.58h2.115l-3.05-5.01 2.925-3.69h-2.126l-2.851 3.753V28.15h-1.801v8.7h-.001zm7.42 0H207V28.15h-1.804v8.7z"></path>
  </g>
</svg>
