<?xml version="1.0" encoding="UTF-8"?>
<svg xmlns="http://www.w3.org/2000/svg" xmlns:xlink="http://www.w3.org/1999/xlink" width="375pt" height="374.999991pt" viewBox="0 0 375 374.999991" version="1.2">
<defs>
<clipPath id="clip1">
  <path d="M 0 109 L 291 109 L 291 336.75 L 0 336.75 Z M 0 109 "/>
</clipPath>
<clipPath id="clip2">
  <path d="M 162 293 L 270 293 L 270 336.75 L 162 336.75 Z M 162 293 "/>
</clipPath>
</defs>
<g id="surface1">
<path style=" stroke:none;fill-rule:nonzero;fill:rgb(100%,100%,100%);fill-opacity:1;" d="M 285.882812 323.265625 C 285.882812 328.253906 281.835938 332.296875 276.851562 332.296875 L 13.894531 332.296875 C 8.90625 332.296875 4.867188 328.25 4.867188 323.265625 L 4.867188 123.039062 C 4.867188 118.058594 8.910156 114.015625 13.894531 114.015625 L 276.851562 114.015625 C 281.839844 114.015625 285.882812 118.058594 285.882812 123.039062 Z M 285.882812 323.265625 "/>
<g clip-path="url(#clip1)" clip-rule="nonzero">
<path style="fill:none;stroke-width:3;stroke-linecap:round;stroke-linejoin:round;stroke:rgb(19.999695%,21.179199%,22.749329%);stroke-opacity:1;stroke-miterlimit:10;" d="M 101.650515 120.730164 C 101.650515 122.448744 100.258109 123.841642 98.543139 123.841642 L 8.06769 123.841642 C 6.351376 123.841642 4.961658 122.447398 4.961658 120.730164 L 4.961658 51.747417 C 4.961658 50.031529 6.35272 48.638631 8.06769 48.638631 L 98.543139 48.638631 C 100.259453 48.638631 101.650515 50.031529 101.650515 51.747417 Z M 101.650515 120.730164 " transform="matrix(2.906391,0,0,2.90256,-9.553331,-27.16092)"/>
</g>
<path style=" stroke:none;fill-rule:nonzero;fill:rgb(31.759644%,33.729553%,35.688782%);fill-opacity:1;" d="M 276.847656 114.023438 L 13.890625 114.023438 C 8.90625 114.023438 4.863281 118.066406 4.863281 123.046875 L 4.863281 155.871094 L 285.878906 155.871094 L 285.878906 123.046875 C 285.878906 118.0625 281.835938 114.023438 276.847656 114.023438 Z M 276.847656 114.023438 "/>
<path style=" stroke:none;fill-rule:nonzero;fill:rgb(41.178894%,43.139648%,44.709778%);fill-opacity:1;" d="M 276.847656 114.023438 L 13.890625 114.023438 C 8.90625 114.023438 4.863281 118.066406 4.863281 123.046875 L 4.863281 128.40625 L 285.878906 128.40625 L 285.878906 123.046875 C 285.878906 118.0625 281.835938 114.023438 276.847656 114.023438 Z M 276.847656 114.023438 "/>
<path style="fill:none;stroke-width:3;stroke-linecap:round;stroke-linejoin:round;stroke:rgb(19.999695%,21.179199%,22.749329%);stroke-opacity:1;stroke-miterlimit:10;" d="M 98.541795 48.641323 L 8.066346 48.641323 C 6.351376 48.641323 4.960314 50.03422 4.960314 51.750109 L 4.960314 63.058822 L 101.649171 63.058822 L 101.649171 51.750109 C 101.649171 50.032875 100.258109 48.641323 98.541795 48.641323 Z M 98.541795 48.641323 " transform="matrix(2.906391,0,0,2.90256,-9.553331,-27.16092)"/>
<path style=" stroke:none;fill-rule:nonzero;fill:rgb(100%,35.688782%,0%);fill-opacity:1;" d="M 43.144531 134.953125 C 43.144531 135.382812 43.101562 135.808594 43.019531 136.230469 C 42.933594 136.652344 42.8125 137.0625 42.644531 137.457031 C 42.480469 137.855469 42.28125 138.230469 42.039062 138.589844 C 41.800781 138.945312 41.53125 139.277344 41.226562 139.582031 C 40.921875 139.886719 40.589844 140.15625 40.234375 140.394531 C 39.875 140.632812 39.496094 140.835938 39.097656 141 C 38.703125 141.164062 38.292969 141.289062 37.871094 141.371094 C 37.449219 141.457031 37.023438 141.5 36.589844 141.5 C 36.160156 141.5 35.734375 141.457031 35.3125 141.371094 C 34.890625 141.289062 34.480469 141.164062 34.082031 141 C 33.6875 140.835938 33.308594 140.632812 32.949219 140.394531 C 32.59375 140.15625 32.261719 139.886719 31.957031 139.582031 C 31.652344 139.277344 31.382812 138.945312 31.140625 138.589844 C 30.902344 138.230469 30.699219 137.855469 30.535156 137.457031 C 30.371094 137.0625 30.246094 136.652344 30.164062 136.230469 C 30.078125 135.808594 30.039062 135.382812 30.039062 134.953125 C 30.039062 134.523438 30.078125 134.097656 30.164062 133.675781 C 30.246094 133.253906 30.371094 132.84375 30.535156 132.449219 C 30.699219 132.050781 30.902344 131.671875 31.140625 131.316406 C 31.382812 130.960938 31.652344 130.628906 31.957031 130.324219 C 32.261719 130.019531 32.59375 129.75 32.949219 129.511719 C 33.308594 129.273438 33.6875 129.070312 34.082031 128.90625 C 34.480469 128.742188 34.890625 128.617188 35.3125 128.535156 C 35.734375 128.449219 36.160156 128.40625 36.589844 128.40625 C 37.023438 128.40625 37.449219 128.449219 37.871094 128.535156 C 38.292969 128.617188 38.703125 128.742188 39.097656 128.90625 C 39.496094 129.070312 39.875 129.273438 40.234375 129.511719 C 40.589844 129.75 40.921875 130.019531 41.226562 130.324219 C 41.53125 130.628906 41.800781 130.960938 42.039062 131.316406 C 42.28125 131.671875 42.480469 132.050781 42.644531 132.449219 C 42.8125 132.84375 42.933594 133.253906 43.019531 133.675781 C 43.101562 134.097656 43.144531 134.523438 43.144531 134.953125 Z M 43.144531 134.953125 "/>
<path style="fill:none;stroke-width:3;stroke-linecap:round;stroke-linejoin:round;stroke:rgb(19.999695%,21.179199%,22.749329%);stroke-opacity:1;stroke-miterlimit:10;" d="M 13.622528 55.852091 C 13.622528 54.605885 14.631888 53.596539 15.877795 53.596539 C 17.122358 53.596539 18.133062 54.605885 18.133062 55.852091 " transform="matrix(2.906391,0,0,2.90256,-9.553331,-27.16092)"/>
<path style=" stroke:none;fill-rule:nonzero;fill:rgb(100%,59.21936%,0%);fill-opacity:1;" d="M 72.847656 134.953125 C 72.847656 135.382812 72.808594 135.808594 72.722656 136.230469 C 72.640625 136.652344 72.515625 137.0625 72.351562 137.457031 C 72.183594 137.855469 71.984375 138.230469 71.742188 138.589844 C 71.503906 138.945312 71.234375 139.277344 70.929688 139.582031 C 70.625 139.886719 70.292969 140.15625 69.9375 140.394531 C 69.578125 140.632812 69.199219 140.835938 68.804688 141 C 68.40625 141.164062 67.996094 141.289062 67.574219 141.371094 C 67.152344 141.457031 66.726562 141.5 66.292969 141.5 C 65.863281 141.5 65.4375 141.457031 65.015625 141.371094 C 64.59375 141.289062 64.183594 141.164062 63.785156 141 C 63.390625 140.835938 63.011719 140.632812 62.652344 140.394531 C 62.296875 140.15625 61.964844 139.886719 61.660156 139.582031 C 61.355469 139.277344 61.085938 138.945312 60.84375 138.589844 C 60.605469 138.230469 60.40625 137.855469 60.238281 137.457031 C 60.074219 137.0625 59.949219 136.652344 59.867188 136.230469 C 59.78125 135.808594 59.742188 135.382812 59.742188 134.953125 C 59.742188 134.523438 59.78125 134.097656 59.867188 133.675781 C 59.949219 133.253906 60.074219 132.84375 60.238281 132.449219 C 60.40625 132.050781 60.605469 131.671875 60.84375 131.316406 C 61.085938 130.960938 61.355469 130.628906 61.660156 130.324219 C 61.964844 130.019531 62.296875 129.75 62.652344 129.511719 C 63.011719 129.273438 63.390625 129.070312 63.785156 128.90625 C 64.183594 128.742188 64.59375 128.617188 65.015625 128.535156 C 65.4375 128.449219 65.863281 128.40625 66.292969 128.40625 C 66.726562 128.40625 67.152344 128.449219 67.574219 128.535156 C 67.996094 128.617188 68.40625 128.742188 68.804688 128.90625 C 69.199219 129.070312 69.578125 129.273438 69.9375 129.511719 C 70.292969 129.75 70.625 130.019531 70.929688 130.324219 C 71.234375 130.628906 71.503906 130.960938 71.742188 131.316406 C 71.984375 131.671875 72.183594 132.050781 72.351562 132.449219 C 72.515625 132.84375 72.640625 133.253906 72.722656 133.675781 C 72.808594 134.097656 72.847656 134.523438 72.847656 134.953125 Z M 72.847656 134.953125 "/>
<path style="fill:none;stroke-width:3;stroke-linecap:round;stroke-linejoin:round;stroke:rgb(19.999695%,21.179199%,22.749329%);stroke-opacity:1;stroke-miterlimit:10;" d="M 23.842462 55.852091 C 23.842462 54.605885 24.851822 53.596539 26.099073 53.596539 C 27.343637 53.596539 28.352996 54.605885 28.352996 55.852091 " transform="matrix(2.906391,0,0,2.90256,-9.553331,-27.16092)"/>
<path style=" stroke:none;fill-rule:nonzero;fill:rgb(12.548828%,82.749939%,59.21936%);fill-opacity:1;" d="M 102.554688 134.953125 C 102.554688 135.382812 102.511719 135.808594 102.429688 136.230469 C 102.34375 136.652344 102.21875 137.0625 102.054688 137.457031 C 101.890625 137.855469 101.6875 138.234375 101.449219 138.589844 C 101.210938 138.949219 100.9375 139.277344 100.632812 139.582031 C 100.328125 139.886719 100 140.160156 99.640625 140.398438 C 99.28125 140.636719 98.90625 140.839844 98.507812 141.003906 C 98.109375 141.167969 97.699219 141.292969 97.277344 141.375 C 96.855469 141.460938 96.429688 141.5 96 141.5 C 95.566406 141.5 95.140625 141.460938 94.71875 141.375 C 94.296875 141.292969 93.886719 141.167969 93.488281 141.003906 C 93.089844 140.839844 92.714844 140.636719 92.355469 140.398438 C 91.996094 140.160156 91.667969 139.886719 91.363281 139.582031 C 91.058594 139.277344 90.785156 138.949219 90.546875 138.589844 C 90.308594 138.234375 90.105469 137.855469 89.941406 137.457031 C 89.777344 137.0625 89.652344 136.652344 89.566406 136.230469 C 89.484375 135.808594 89.441406 135.382812 89.441406 134.953125 C 89.441406 134.523438 89.484375 134.097656 89.566406 133.675781 C 89.652344 133.253906 89.777344 132.84375 89.941406 132.445312 C 90.105469 132.050781 90.308594 131.671875 90.546875 131.316406 C 90.785156 130.957031 91.058594 130.625 91.363281 130.324219 C 91.667969 130.019531 91.996094 129.746094 92.355469 129.507812 C 92.714844 129.269531 93.089844 129.066406 93.488281 128.902344 C 93.886719 128.738281 94.296875 128.613281 94.71875 128.53125 C 95.140625 128.445312 95.566406 128.40625 96 128.40625 C 96.429688 128.40625 96.855469 128.445312 97.277344 128.53125 C 97.699219 128.613281 98.109375 128.738281 98.507812 128.902344 C 98.90625 129.066406 99.28125 129.269531 99.640625 129.507812 C 100 129.746094 100.328125 130.019531 100.632812 130.324219 C 100.9375 130.625 101.210938 130.957031 101.449219 131.316406 C 101.6875 131.671875 101.890625 132.050781 102.054688 132.445312 C 102.21875 132.84375 102.34375 133.253906 102.429688 133.675781 C 102.511719 134.097656 102.554688 134.523438 102.554688 134.953125 Z M 102.554688 134.953125 "/>
<path style="fill:none;stroke-width:3;stroke-linecap:round;stroke-linejoin:round;stroke:rgb(19.999695%,21.179199%,22.749329%);stroke-opacity:1;stroke-miterlimit:10;" d="M 34.062397 55.852091 C 34.062397 54.605885 35.0731 53.596539 36.317664 53.596539 C 37.562227 53.596539 38.574274 54.605885 38.574274 55.852091 " transform="matrix(2.906391,0,0,2.90256,-9.553331,-27.16092)"/>
<path style="fill:none;stroke-width:3;stroke-linecap:round;stroke-linejoin:round;stroke:rgb(19.999695%,21.179199%,22.749329%);stroke-opacity:1;stroke-miterlimit:10;" d="M 18.133062 76.854564 L 40.462624 76.854564 " transform="matrix(2.906391,0,0,2.90256,-9.553331,-27.16092)"/>
<path style="fill:none;stroke-width:3;stroke-linecap:round;stroke-linejoin:round;stroke:rgb(19.999695%,21.179199%,22.749329%);stroke-opacity:1;stroke-miterlimit:10;" d="M 45.80645 76.854564 L 51.823632 76.854564 " transform="matrix(2.906391,0,0,2.90256,-9.553331,-27.16092)"/>
<path style="fill:none;stroke-width:3;stroke-linecap:round;stroke-linejoin:round;stroke:rgb(19.999695%,21.179199%,22.749329%);stroke-opacity:1;stroke-miterlimit:10;" d="M 62.777401 76.854564 L 64.309585 76.854564 " transform="matrix(2.906391,0,0,2.90256,-9.553331,-27.16092)"/>
<path style="fill:none;stroke-width:3;stroke-linecap:round;stroke-linejoin:round;stroke:rgb(19.999695%,21.179199%,22.749329%);stroke-opacity:1;stroke-miterlimit:10;" d="M 57.057249 76.854564 L 58.586744 76.854564 " transform="matrix(2.906391,0,0,2.90256,-9.553331,-27.16092)"/>
<path style="fill:none;stroke-width:3;stroke-linecap:round;stroke-linejoin:round;stroke:rgb(19.999695%,21.179199%,22.749329%);stroke-opacity:1;stroke-miterlimit:10;" d="M 64.309585 87.314081 L 41.980023 87.314081 " transform="matrix(2.906391,0,0,2.90256,-9.553331,-27.16092)"/>
<path style="fill:none;stroke-width:3;stroke-linecap:round;stroke-linejoin:round;stroke:rgb(19.999695%,21.179199%,22.749329%);stroke-opacity:1;stroke-miterlimit:10;" d="M 36.634852 87.314081 L 30.616327 87.314081 " transform="matrix(2.906391,0,0,2.90256,-9.553331,-27.16092)"/>
<path style="fill:none;stroke-width:3;stroke-linecap:round;stroke-linejoin:round;stroke:rgb(19.999695%,21.179199%,22.749329%);stroke-opacity:1;stroke-miterlimit:10;" d="M 19.662558 87.314081 L 18.133062 87.314081 " transform="matrix(2.906391,0,0,2.90256,-9.553331,-27.16092)"/>
<path style="fill:none;stroke-width:3;stroke-linecap:round;stroke-linejoin:round;stroke:rgb(19.999695%,21.179199%,22.749329%);stroke-opacity:1;stroke-miterlimit:10;" d="M 25.384054 87.314081 L 23.854559 87.314081 " transform="matrix(2.906391,0,0,2.90256,-9.553331,-27.16092)"/>
<path style="fill:none;stroke-width:3;stroke-linecap:round;stroke-linejoin:round;stroke:rgb(19.999695%,21.179199%,22.749329%);stroke-opacity:1;stroke-miterlimit:10;" d="M 18.133062 97.777635 L 40.462624 97.777635 " transform="matrix(2.906391,0,0,2.90256,-9.553331,-27.16092)"/>
<path style="fill:none;stroke-width:3;stroke-linecap:round;stroke-linejoin:round;stroke:rgb(19.999695%,21.179199%,22.749329%);stroke-opacity:1;stroke-miterlimit:10;" d="M 45.80645 97.777635 L 51.823632 97.777635 " transform="matrix(2.906391,0,0,2.90256,-9.553331,-27.16092)"/>
<path style="fill:none;stroke-width:3;stroke-linecap:round;stroke-linejoin:round;stroke:rgb(19.999695%,21.179199%,22.749329%);stroke-opacity:1;stroke-miterlimit:10;" d="M 62.777401 97.777635 L 64.309585 97.777635 " transform="matrix(2.906391,0,0,2.90256,-9.553331,-27.16092)"/>
<path style="fill:none;stroke-width:3;stroke-linecap:round;stroke-linejoin:round;stroke:rgb(19.999695%,21.179199%,22.749329%);stroke-opacity:1;stroke-miterlimit:10;" d="M 57.057249 97.777635 L 58.586744 97.777635 " transform="matrix(2.906391,0,0,2.90256,-9.553331,-27.16092)"/>
<path style="fill:none;stroke-width:3;stroke-linecap:round;stroke-linejoin:round;stroke:rgb(19.999695%,21.179199%,22.749329%);stroke-opacity:1;stroke-miterlimit:10;" d="M 64.309585 108.239843 L 41.980023 108.239843 " transform="matrix(2.906391,0,0,2.90256,-9.553331,-27.16092)"/>
<path style="fill:none;stroke-width:3;stroke-linecap:round;stroke-linejoin:round;stroke:rgb(19.999695%,21.179199%,22.749329%);stroke-opacity:1;stroke-miterlimit:10;" d="M 36.634852 108.239843 L 30.616327 108.239843 " transform="matrix(2.906391,0,0,2.90256,-9.553331,-27.16092)"/>
<path style="fill:none;stroke-width:3;stroke-linecap:round;stroke-linejoin:round;stroke:rgb(19.999695%,21.179199%,22.749329%);stroke-opacity:1;stroke-miterlimit:10;" d="M 19.662558 108.239843 L 18.133062 108.239843 " transform="matrix(2.906391,0,0,2.90256,-9.553331,-27.16092)"/>
<path style="fill:none;stroke-width:3;stroke-linecap:round;stroke-linejoin:round;stroke:rgb(19.999695%,21.179199%,22.749329%);stroke-opacity:1;stroke-miterlimit:10;" d="M 25.384054 108.239843 L 23.854559 108.239843 " transform="matrix(2.906391,0,0,2.90256,-9.553331,-27.16092)"/>
<path style=" stroke:none;fill-rule:nonzero;fill:rgb(100%,100%,100%);fill-opacity:1;" d="M 179.417969 296.269531 C 179.417969 296.871094 179.398438 297.472656 179.390625 298.066406 L 252.375 298.074219 C 252.371094 297.46875 252.351562 296.871094 252.351562 296.269531 C 252.351562 298.691406 269.074219 233.570312 285.101562 224.070312 L 285.882812 221.679688 L 215.878906 77.421875 L 145.890625 221.679688 L 146.667969 224.066406 C 162.695312 233.570312 179.417969 298.691406 179.417969 296.269531 Z M 179.417969 296.269531 "/>
<path style=" stroke:none;fill-rule:nonzero;fill:rgb(86.268616%,90.19928%,91.758728%);fill-opacity:1;" d="M 195.054688 296.269531 C 195.058594 296.871094 195.054688 297.46875 195.042969 298.066406 L 236.726562 298.066406 C 236.71875 297.46875 236.710938 296.871094 236.710938 296.269531 C 236.714844 298.691406 246.257812 233.570312 255.414062 224.070312 L 255.855469 221.679688 L 215.882812 77.421875 L 175.910156 221.675781 L 176.355469 224.066406 C 185.507812 233.570312 195.058594 298.691406 195.054688 296.269531 Z M 195.054688 296.269531 "/>
<path style=" stroke:none;fill-rule:nonzero;fill:rgb(76.469421%,84.309387%,86.669922%);fill-opacity:1;" d="M 236.726562 298.070312 C 236.71875 297.46875 236.710938 296.875 236.710938 296.273438 C 236.714844 298.695312 246.257812 233.574219 255.414062 224.074219 L 255.855469 221.679688 L 215.882812 77.425781 L 215.882812 298.078125 Z M 236.726562 298.070312 "/>
<path style=" stroke:none;fill-rule:nonzero;fill:rgb(100%,59.21936%,0%);fill-opacity:1;" d="M 265.332031 332.292969 L 166.441406 332.285156 L 166.4375 298.074219 L 265.332031 298.0625 Z M 265.332031 332.292969 "/>
<path style=" stroke:none;fill-rule:nonzero;fill:rgb(100%,35.688782%,0%);fill-opacity:1;" d="M 187.792969 298.070312 L 243.964844 298.070312 L 243.964844 332.296875 L 187.792969 332.296875 Z M 187.792969 298.070312 "/>
<g clip-path="url(#clip2)" clip-rule="nonzero">
<path style="fill:none;stroke-width:3;stroke-linecap:round;stroke-linejoin:round;stroke:rgb(19.999695%,21.179199%,22.749329%);stroke-opacity:1;stroke-miterlimit:10;" d="M 94.579621 123.840296 L 60.554391 123.837604 L 60.553047 112.051134 L 94.579621 112.047096 Z M 94.579621 123.840296 " transform="matrix(2.906391,0,0,2.90256,-9.553331,-27.16092)"/>
</g>
<path style="fill:none;stroke-width:3;stroke-linecap:round;stroke-linejoin:round;stroke:rgb(19.999695%,21.179199%,22.749329%);stroke-opacity:1;stroke-miterlimit:10;" d="M 65.019228 111.429377 C 65.019228 111.636629 65.012508 111.843881 65.00982 112.048442 L 90.121504 112.051134 C 90.12016 111.842536 90.11344 111.636629 90.11344 111.429377 C 90.11344 112.263769 95.867193 89.828025 101.381711 86.555052 L 101.650515 85.731426 L 77.564318 36.031226 L 53.483497 85.731426 L 53.750957 86.553707 C 59.265475 89.828025 65.019228 112.263769 65.019228 111.429377 Z M 65.019228 111.429377 " transform="matrix(2.906391,0,0,2.90256,-9.553331,-27.16092)"/>
<path style=" stroke:none;fill-rule:nonzero;fill:rgb(34.509277%,35.688782%,36.859131%);fill-opacity:1;" d="M 226.957031 242.359375 C 226.957031 243.085938 226.886719 243.804688 226.746094 244.515625 C 226.601562 245.230469 226.390625 245.921875 226.113281 246.589844 C 225.835938 247.261719 225.496094 247.898438 225.089844 248.503906 C 224.6875 249.105469 224.226562 249.664062 223.714844 250.179688 C 223.199219 250.691406 222.640625 251.152344 222.035156 251.554688 C 221.429688 251.957031 220.792969 252.296875 220.121094 252.574219 C 219.449219 252.855469 218.757812 253.0625 218.042969 253.207031 C 217.332031 253.347656 216.609375 253.417969 215.882812 253.417969 C 215.15625 253.417969 214.4375 253.347656 213.722656 253.207031 C 213.011719 253.0625 212.316406 252.855469 211.644531 252.574219 C 210.972656 252.296875 210.335938 251.957031 209.730469 251.554688 C 209.128906 251.152344 208.566406 250.691406 208.054688 250.179688 C 207.539062 249.664062 207.082031 249.105469 206.675781 248.503906 C 206.273438 247.898438 205.929688 247.261719 205.652344 246.589844 C 205.375 245.921875 205.164062 245.230469 205.023438 244.515625 C 204.882812 243.804688 204.808594 243.085938 204.808594 242.359375 C 204.808594 241.632812 204.882812 240.914062 205.023438 240.203125 C 205.164062 239.488281 205.375 238.796875 205.652344 238.128906 C 205.929688 237.457031 206.273438 236.820312 206.675781 236.214844 C 207.082031 235.613281 207.539062 235.054688 208.054688 234.539062 C 208.566406 234.027344 209.128906 233.566406 209.730469 233.164062 C 210.335938 232.761719 210.972656 232.421875 211.644531 232.140625 C 212.316406 231.863281 213.011719 231.65625 213.722656 231.511719 C 214.4375 231.371094 215.15625 231.300781 215.882812 231.300781 C 216.609375 231.300781 217.332031 231.371094 218.042969 231.511719 C 218.757812 231.65625 219.449219 231.863281 220.121094 232.140625 C 220.792969 232.421875 221.429688 232.761719 222.035156 233.164062 C 222.640625 233.566406 223.199219 234.027344 223.714844 234.539062 C 224.226562 235.054688 224.6875 235.613281 225.089844 236.214844 C 225.496094 236.820312 225.835938 237.457031 226.113281 238.128906 C 226.390625 238.796875 226.601562 239.488281 226.746094 240.203125 C 226.886719 240.914062 226.957031 241.632812 226.957031 242.359375 Z M 226.957031 242.359375 "/>
<path style=" stroke:none;fill-rule:nonzero;fill:rgb(26.269531%,27.449036%,28.62854%);fill-opacity:1;" d="M 204.808594 242.355469 C 204.808594 236.25 209.769531 231.300781 215.882812 231.300781 C 222 231.300781 226.953125 236.25 226.957031 242.363281 "/>
<path style="fill:none;stroke-width:3;stroke-linecap:round;stroke-linejoin:round;stroke:rgb(19.999695%,21.179199%,22.749329%);stroke-opacity:1;stroke-miterlimit:10;" d="M 81.375961 92.856063 C 81.375961 93.106381 81.351769 93.354007 81.303384 93.598942 C 81.253655 93.845222 81.181078 94.083428 81.085652 94.313559 C 80.990227 94.545036 80.873297 94.7644 80.733519 94.972998 C 80.595085 95.180251 80.43649 95.3727 80.260424 95.550344 C 80.083013 95.726644 79.890818 95.885447 79.682495 96.024064 C 79.474172 96.162681 79.255096 96.279765 79.023925 96.375317 C 78.792753 96.472214 78.554861 96.543541 78.308906 96.593335 C 78.064294 96.641784 77.81565 96.666008 77.565662 96.666008 C 77.315674 96.666008 77.068374 96.641784 76.822419 96.593335 C 76.577807 96.543541 76.338571 96.472214 76.107399 96.375317 C 75.876228 96.279765 75.657152 96.162681 75.448829 96.024064 C 75.24185 95.885447 75.048311 95.726644 74.872244 95.550344 C 74.694834 95.3727 74.537583 95.180251 74.397805 94.972998 C 74.259371 94.7644 74.141097 94.545036 74.045672 94.313559 C 73.950246 94.083428 73.877669 93.845222 73.829284 93.598942 C 73.780899 93.354007 73.755363 93.106381 73.755363 92.856063 C 73.755363 92.605746 73.780899 92.358119 73.829284 92.113185 C 73.877669 91.866904 73.950246 91.628699 74.045672 91.398568 C 74.141097 91.167091 74.259371 90.947726 74.397805 90.739128 C 74.537583 90.531876 74.694834 90.339427 74.872244 90.161782 C 75.048311 89.985483 75.24185 89.826679 75.448829 89.688063 C 75.657152 89.549446 75.876228 89.432362 76.107399 89.335464 C 76.338571 89.239913 76.577807 89.168586 76.822419 89.118791 C 77.068374 89.070343 77.315674 89.046118 77.565662 89.046118 C 77.81565 89.046118 78.064294 89.070343 78.308906 89.118791 C 78.554861 89.168586 78.792753 89.239913 79.023925 89.335464 C 79.255096 89.432362 79.474172 89.549446 79.682495 89.688063 C 79.890818 89.826679 80.083013 89.985483 80.260424 90.161782 C 80.43649 90.339427 80.595085 90.531876 80.733519 90.739128 C 80.873297 90.947726 80.990227 91.167091 81.085652 91.398568 C 81.181078 91.628699 81.253655 91.866904 81.303384 92.113185 C 81.351769 92.358119 81.375961 92.605746 81.375961 92.856063 Z M 81.375961 92.856063 " transform="matrix(2.906391,0,0,2.90256,-9.553331,-27.16092)"/>
<path style="fill:none;stroke-width:3;stroke-linecap:round;stroke-linejoin:round;stroke:rgb(19.999695%,21.179199%,22.749329%);stroke-opacity:1;stroke-miterlimit:10;" d="M 77.565662 62.699495 L 77.565662 89.047464 " transform="matrix(2.906391,0,0,2.90256,-9.553331,-27.16092)"/>
<path style="fill:none;stroke-width:3;stroke-linecap:round;stroke-linejoin:round;stroke:rgb(19.999695%,21.179199%,22.749329%);stroke-opacity:1;stroke-miterlimit:10;" d="M 126.400658 14.797276 C 112.597564 28.602439 94.415651 35.358329 76.325131 35.067637 " transform="matrix(2.906391,0,0,2.90256,-9.553331,-27.16092)"/>
<path style=" stroke:none;fill-rule:nonzero;fill:rgb(19.999695%,21.179199%,22.749329%);fill-opacity:1;" d="M 212.203125 78.972656 C 205.265625 78.863281 198.351562 78.40625 191.464844 77.597656 C 191.179688 77.566406 190.902344 77.503906 190.628906 77.417969 C 190.355469 77.328125 190.097656 77.214844 189.847656 77.078125 C 189.597656 76.9375 189.363281 76.773438 189.144531 76.589844 C 188.925781 76.402344 188.730469 76.199219 188.550781 75.972656 C 188.375 75.75 188.21875 75.511719 188.089844 75.257812 C 187.960938 75 187.855469 74.738281 187.777344 74.460938 C 187.699219 74.1875 187.648438 73.90625 187.625 73.621094 C 187.601562 73.335938 187.609375 73.050781 187.640625 72.769531 C 187.675781 72.484375 187.734375 72.207031 187.824219 71.933594 C 187.910156 71.664062 188.027344 71.402344 188.164062 71.152344 C 188.304688 70.902344 188.46875 70.667969 188.652344 70.453125 C 188.839844 70.234375 189.042969 70.035156 189.269531 69.859375 C 189.492188 69.683594 189.734375 69.527344 189.988281 69.398438 C 190.242188 69.269531 190.507812 69.164062 190.78125 69.085938 C 191.058594 69.007812 191.339844 68.957031 191.625 68.933594 C 191.910156 68.910156 192.195312 68.917969 192.476562 68.949219 C 199.074219 69.722656 205.699219 70.160156 212.34375 70.265625 C 212.628906 70.273438 212.914062 70.304688 213.191406 70.363281 C 213.472656 70.425781 213.742188 70.511719 214.007812 70.625 C 214.269531 70.738281 214.519531 70.875 214.753906 71.039062 C 214.988281 71.203125 215.207031 71.386719 215.40625 71.589844 C 215.605469 71.796875 215.78125 72.019531 215.9375 72.257812 C 216.09375 72.5 216.222656 72.753906 216.328125 73.019531 C 216.433594 73.285156 216.511719 73.558594 216.5625 73.839844 C 216.613281 74.121094 216.636719 74.402344 216.632812 74.691406 C 216.628906 74.976562 216.597656 75.257812 216.535156 75.539062 C 216.476562 75.816406 216.386719 76.089844 216.273438 76.351562 C 216.160156 76.613281 216.023438 76.863281 215.859375 77.097656 C 215.695312 77.332031 215.511719 77.546875 215.308594 77.746094 C 215.101562 77.945312 214.878906 78.125 214.636719 78.277344 C 214.398438 78.433594 214.144531 78.5625 213.878906 78.667969 C 213.613281 78.773438 213.335938 78.851562 213.054688 78.902344 C 212.773438 78.953125 212.492188 78.976562 212.203125 78.972656 Z M 170.941406 74.144531 C 164.171875 72.648438 157.496094 70.816406 150.917969 68.648438 C 150.648438 68.558594 150.386719 68.445312 150.136719 68.304688 C 149.886719 68.164062 149.65625 68 149.4375 67.8125 C 149.222656 67.625 149.023438 67.417969 148.847656 67.195312 C 148.671875 66.96875 148.519531 66.726562 148.390625 66.472656 C 148.261719 66.21875 148.160156 65.953125 148.082031 65.675781 C 148.007812 65.402344 147.957031 65.121094 147.9375 64.835938 C 147.914062 64.550781 147.921875 64.265625 147.957031 63.984375 C 147.992188 63.699219 148.054688 63.421875 148.144531 63.148438 C 148.234375 62.878906 148.351562 62.617188 148.492188 62.371094 C 148.632812 62.121094 148.796875 61.886719 148.984375 61.671875 C 149.167969 61.453125 149.375 61.257812 149.601562 61.082031 C 149.828125 60.90625 150.066406 60.753906 150.324219 60.625 C 150.578125 60.496094 150.84375 60.394531 151.121094 60.320312 C 151.398438 60.242188 151.675781 60.191406 151.960938 60.171875 C 152.25 60.152344 152.53125 60.15625 152.816406 60.191406 C 153.101562 60.226562 153.378906 60.289062 153.652344 60.378906 C 159.949219 62.457031 166.339844 64.210938 172.824219 65.640625 C 173.105469 65.703125 173.375 65.792969 173.636719 65.90625 C 173.898438 66.019531 174.148438 66.160156 174.382812 66.324219 C 174.617188 66.488281 174.832031 66.671875 175.03125 66.878906 C 175.230469 67.085938 175.40625 67.308594 175.558594 67.550781 C 175.714844 67.792969 175.84375 68.046875 175.945312 68.3125 C 176.050781 68.578125 176.128906 68.851562 176.175781 69.132812 C 176.226562 69.414062 176.25 69.699219 176.242188 69.984375 C 176.238281 70.269531 176.203125 70.554688 176.140625 70.832031 C 176.078125 71.113281 175.992188 71.382812 175.875 71.644531 C 175.761719 71.90625 175.621094 72.152344 175.457031 72.386719 C 175.292969 72.621094 175.109375 72.835938 174.902344 73.035156 C 174.695312 73.234375 174.46875 73.410156 174.230469 73.5625 C 173.988281 73.714844 173.734375 73.84375 173.464844 73.949219 C 173.199219 74.054688 172.925781 74.128906 172.644531 74.179688 C 172.363281 74.230469 172.078125 74.25 171.792969 74.246094 C 171.503906 74.238281 171.222656 74.207031 170.941406 74.144531 Z M 131.507812 61.136719 C 125.183594 58.3125 119.019531 55.171875 113.015625 51.71875 C 112.765625 51.574219 112.535156 51.410156 112.320312 51.222656 C 112.105469 51.035156 111.910156 50.824219 111.734375 50.597656 C 111.558594 50.371094 111.410156 50.132812 111.28125 49.875 C 111.15625 49.617188 111.054688 49.351562 110.980469 49.078125 C 110.90625 48.800781 110.859375 48.519531 110.839844 48.234375 C 110.820312 47.949219 110.828125 47.664062 110.867188 47.382812 C 110.902344 47.097656 110.96875 46.820312 111.058594 46.550781 C 111.152344 46.28125 111.269531 46.019531 111.410156 45.773438 C 111.554688 45.523438 111.71875 45.292969 111.910156 45.078125 C 112.097656 44.863281 112.304688 44.667969 112.53125 44.492188 C 112.757812 44.320312 113 44.167969 113.257812 44.042969 C 113.515625 43.914062 113.78125 43.816406 114.058594 43.742188 C 114.332031 43.667969 114.613281 43.621094 114.898438 43.601562 C 115.183594 43.582031 115.46875 43.589844 115.753906 43.628906 C 116.039062 43.664062 116.316406 43.730469 116.585938 43.820312 C 116.859375 43.914062 117.117188 44.03125 117.367188 44.171875 C 123.113281 47.476562 129.015625 50.484375 135.070312 53.1875 C 135.332031 53.304688 135.578125 53.445312 135.8125 53.613281 C 136.046875 53.777344 136.261719 53.964844 136.457031 54.171875 C 136.652344 54.378906 136.828125 54.605469 136.980469 54.847656 C 137.132812 55.089844 137.257812 55.34375 137.363281 55.609375 C 137.464844 55.875 137.539062 56.152344 137.585938 56.433594 C 137.636719 56.714844 137.65625 57 137.648438 57.285156 C 137.640625 57.570312 137.601562 57.851562 137.539062 58.132812 C 137.476562 58.410156 137.386719 58.679688 137.269531 58.941406 C 137.152344 59.203125 137.011719 59.449219 136.84375 59.683594 C 136.679688 59.914062 136.492188 60.128906 136.285156 60.328125 C 136.078125 60.523438 135.851562 60.695312 135.609375 60.847656 C 135.367188 61 135.113281 61.128906 134.84375 61.230469 C 134.578125 61.332031 134.300781 61.40625 134.019531 61.453125 C 133.738281 61.503906 133.453125 61.523438 133.167969 61.515625 C 132.882812 61.507812 132.597656 61.472656 132.320312 61.40625 C 132.039062 61.34375 131.769531 61.253906 131.507812 61.136719 Z M 95.539062 40.445312 C 89.929688 36.410156 84.527344 32.09375 79.332031 27.496094 C 79.121094 27.308594 78.925781 27.097656 78.753906 26.871094 C 78.578125 26.644531 78.429688 26.402344 78.304688 26.144531 C 78.179688 25.886719 78.082031 25.621094 78.007812 25.34375 C 77.933594 25.066406 77.890625 24.785156 77.871094 24.5 C 77.855469 24.214844 77.867188 23.933594 77.90625 23.648438 C 77.945312 23.367188 78.011719 23.089844 78.105469 22.820312 C 78.195312 22.546875 78.316406 22.289062 78.460938 22.042969 C 78.605469 21.796875 78.773438 21.566406 78.960938 21.351562 C 79.152344 21.136719 79.359375 20.945312 79.589844 20.769531 C 79.816406 20.597656 80.058594 20.449219 80.316406 20.324219 C 80.574219 20.199219 80.839844 20.101562 81.117188 20.027344 C 81.394531 19.957031 81.675781 19.910156 81.960938 19.894531 C 82.246094 19.875 82.53125 19.886719 82.816406 19.925781 C 83.097656 19.964844 83.375 20.03125 83.648438 20.125 C 83.917969 20.214844 84.175781 20.335938 84.421875 20.480469 C 84.671875 20.625 84.902344 20.789062 85.117188 20.980469 C 90.089844 25.382812 95.265625 29.515625 100.632812 33.378906 C 100.867188 33.546875 101.078125 33.734375 101.273438 33.945312 C 101.46875 34.152344 101.644531 34.378906 101.792969 34.625 C 101.945312 34.867188 102.070312 35.121094 102.167969 35.390625 C 102.269531 35.65625 102.34375 35.933594 102.390625 36.214844 C 102.433594 36.496094 102.453125 36.78125 102.441406 37.066406 C 102.433594 37.351562 102.394531 37.632812 102.328125 37.914062 C 102.261719 38.191406 102.171875 38.460938 102.050781 38.71875 C 101.933594 38.980469 101.789062 39.226562 101.621094 39.457031 C 101.457031 39.691406 101.265625 39.902344 101.058594 40.097656 C 100.847656 40.292969 100.621094 40.464844 100.378906 40.617188 C 100.136719 40.765625 99.878906 40.890625 99.609375 40.992188 C 99.34375 41.089844 99.066406 41.164062 98.785156 41.210938 C 98.503906 41.257812 98.21875 41.273438 97.933594 41.265625 C 97.644531 41.253906 97.363281 41.214844 97.085938 41.148438 C 96.804688 41.085938 96.535156 40.992188 96.277344 40.875 C 96.015625 40.753906 95.769531 40.613281 95.539062 40.445312 Z M 95.539062 40.445312 "/>
<path style=" stroke:none;fill-rule:nonzero;fill:rgb(100%,100%,100%);fill-opacity:1;" d="M 84.410156 16.449219 C 84.410156 17.140625 84.34375 17.824219 84.207031 18.5 C 84.074219 19.175781 83.875 19.832031 83.609375 20.46875 C 83.34375 21.105469 83.023438 21.710938 82.636719 22.285156 C 82.253906 22.859375 81.820312 23.386719 81.332031 23.875 C 80.84375 24.363281 80.3125 24.796875 79.738281 25.183594 C 79.164062 25.566406 78.558594 25.886719 77.917969 26.152344 C 77.28125 26.414062 76.625 26.613281 75.945312 26.75 C 75.269531 26.882812 74.585938 26.953125 73.894531 26.953125 C 73.203125 26.953125 72.519531 26.882812 71.84375 26.75 C 71.167969 26.613281 70.507812 26.414062 69.871094 26.152344 C 69.234375 25.886719 68.628906 25.566406 68.054688 25.183594 C 67.480469 24.796875 66.949219 24.363281 66.460938 23.875 C 65.972656 23.386719 65.535156 22.859375 65.152344 22.285156 C 64.769531 21.710938 64.445312 21.105469 64.179688 20.46875 C 63.914062 19.832031 63.714844 19.175781 63.582031 18.5 C 63.445312 17.824219 63.378906 17.140625 63.378906 16.449219 C 63.378906 15.761719 63.445312 15.078125 63.582031 14.402344 C 63.714844 13.726562 63.914062 13.066406 64.179688 12.429688 C 64.445312 11.792969 64.769531 11.1875 65.152344 10.617188 C 65.535156 10.042969 65.972656 9.511719 66.460938 9.023438 C 66.949219 8.535156 67.480469 8.101562 68.054688 7.71875 C 68.628906 7.335938 69.234375 7.011719 69.871094 6.746094 C 70.507812 6.484375 71.167969 6.285156 71.84375 6.148438 C 72.519531 6.015625 73.203125 5.949219 73.894531 5.949219 C 74.585938 5.949219 75.269531 6.015625 75.945312 6.148438 C 76.625 6.285156 77.28125 6.484375 77.917969 6.746094 C 78.558594 7.011719 79.164062 7.335938 79.738281 7.71875 C 80.3125 8.101562 80.84375 8.535156 81.332031 9.023438 C 81.820312 9.511719 82.253906 10.042969 82.636719 10.617188 C 83.023438 11.1875 83.34375 11.792969 83.609375 12.429688 C 83.875 13.066406 84.074219 13.726562 84.207031 14.402344 C 84.34375 15.078125 84.410156 15.761719 84.410156 16.449219 Z M 84.410156 16.449219 "/>
<path style=" stroke:none;fill-rule:nonzero;fill:rgb(84.709167%,89.7995%,91.758728%);fill-opacity:1;" d="M 81.328125 9.023438 C 85.4375 13.125 85.4375 19.773438 81.328125 23.878906 C 77.226562 27.980469 70.570312 27.976562 66.464844 23.878906 "/>
<path style="fill:none;stroke-width:3;stroke-linecap:round;stroke-linejoin:round;stroke:rgb(19.999695%,21.179199%,22.749329%);stroke-opacity:1;stroke-miterlimit:10;" d="M 32.329954 15.024716 C 32.329954 15.262921 32.307105 15.498436 32.260065 15.731258 C 32.214368 15.964081 32.145823 16.190174 32.05443 16.409539 C 31.963036 16.628903 31.852826 16.837501 31.719768 17.035333 C 31.588054 17.233165 31.438868 17.414847 31.270865 17.583072 C 31.102863 17.751296 30.920076 17.900679 30.722505 18.033913 C 30.524934 18.165801 30.316611 18.276156 30.096191 18.36767 C 29.877116 18.457838 29.65132 18.526474 29.417461 18.573577 C 29.184945 18.619334 28.949742 18.643558 28.71185 18.643558 C 28.473958 18.643558 28.238755 18.619334 28.006239 18.573577 C 27.773723 18.526474 27.546584 18.457838 27.327508 18.36767 C 27.108433 18.276156 26.90011 18.165801 26.702539 18.033913 C 26.504968 17.900679 26.322181 17.751296 26.154178 17.583072 C 25.986176 17.414847 25.835645 17.233165 25.703931 17.035333 C 25.572217 16.837501 25.460664 16.628903 25.36927 16.409539 C 25.277877 16.190174 25.209332 15.964081 25.163635 15.731258 C 25.116594 15.498436 25.093746 15.262921 25.093746 15.024716 C 25.093746 14.787856 25.116594 14.552342 25.163635 14.319519 C 25.209332 14.086697 25.277877 13.859258 25.36927 13.639893 C 25.460664 13.420528 25.572217 13.21193 25.703931 13.015444 C 25.835645 12.817612 25.986176 12.634584 26.154178 12.46636 C 26.322181 12.298136 26.504968 12.148752 26.702539 12.016865 C 26.90011 11.884977 27.108433 11.773276 27.327508 11.681762 C 27.546584 11.591593 27.773723 11.522958 28.006239 11.475855 C 28.238755 11.430098 28.473958 11.40722 28.71185 11.40722 C 28.949742 11.40722 29.184945 11.430098 29.417461 11.475855 C 29.65132 11.522958 29.877116 11.591593 30.096191 11.681762 C 30.316611 11.773276 30.524934 11.884977 30.722505 12.016865 C 30.920076 12.148752 31.102863 12.298136 31.270865 12.46636 C 31.438868 12.634584 31.588054 12.817612 31.719768 13.015444 C 31.852826 13.21193 31.963036 13.420528 32.05443 13.639893 C 32.145823 13.859258 32.214368 14.086697 32.260065 14.319519 C 32.307105 14.552342 32.329954 14.787856 32.329954 15.024716 Z M 32.329954 15.024716 " transform="matrix(2.906391,0,0,2.90256,-9.553331,-27.16092)"/>
<path style=" stroke:none;fill-rule:nonzero;fill:rgb(100%,100%,100%);fill-opacity:1;" d="M 350.433594 23.144531 C 346.324219 19.046875 346.324219 12.390625 350.433594 8.300781 C 354.53125 4.195312 361.191406 4.195312 365.304688 8.300781 C 369.40625 12.390625 369.40625 19.046875 365.300781 23.144531 C 361.191406 27.257812 354.53125 27.25 350.433594 23.144531 Z M 350.433594 23.144531 "/>
<path style=" stroke:none;fill-rule:nonzero;fill:rgb(84.709167%,89.7995%,91.758728%);fill-opacity:1;" d="M 365.3125 8.300781 C 369.414062 12.390625 369.414062 19.046875 365.308594 23.144531 C 361.199219 27.257812 354.542969 27.25 350.441406 23.144531 "/>
<path style="fill:none;stroke-width:3;stroke-linecap:round;stroke-linejoin:round;stroke:rgb(19.999695%,21.179199%,22.749329%);stroke-opacity:1;stroke-miterlimit:10;" d="M 123.860459 17.331408 C 122.446549 15.919669 122.446549 13.626435 123.860459 12.217388 C 125.270336 10.802958 127.561892 10.802958 128.977146 12.217388 C 130.388368 13.626435 130.388368 15.919669 128.975802 17.331408 C 127.561892 18.74853 125.270336 18.745838 123.860459 17.331408 Z M 123.860459 17.331408 " transform="matrix(2.906391,0,0,2.90256,-9.553331,-27.16092)"/>
</g>
</svg>
